STARTFONT 2.1
FONT -FontForge-Ubuntu-Book-R-Normal--16-150-75-75-P-95-ISO10646-1
SIZE 15 75 75
FONTBOUNDINGBOX 57 20 -3 -3
COMMENT "Generated by fontforge, http://fontforge.sourceforge.net"
COMMENT "Copyright 2011 Canonical Ltd.  Licensed under the Ubuntu Font Licence 1.0"
STARTPROPERTIES 41
FOUNDRY "FontForge"
FAMILY_NAME "Ubuntu"
WEIGHT_NAME "Book"
SLANT "R"
SETWIDTH_NAME "Normal"
ADD_STYLE_NAME ""
PIXEL_SIZE 16
POINT_SIZE 150
RESOLUTION_X 75
RESOLUTION_Y 75
SPACING "P"
AVERAGE_WIDTH 95
CHARSET_REGISTRY "ISO10646"
CHARSET_ENCODING "1"
FONTNAME_REGISTRY ""
CHARSET_COLLECTIONS "ISO8859-2 ISO8859-5 ISO8859-7 ISO8859-9 ISO8859-4 Symbol ISO10646-1"
FONT_NAME "Ubuntu"
FACE_NAME "Ubuntu"
COPYRIGHT "Copyright 2011 Canonical Ltd.  Licensed under the Ubuntu Font Licence 1.0"
FONT_VERSION "0.83"
FONT_ASCENT 13
FONT_DESCENT 3
UNDERLINE_POSITION -3
UNDERLINE_THICKNESS 2
X_HEIGHT 7
CAP_HEIGHT 10
DEFAULT_CHAR 1
RAW_ASCENT 800
RAW_DESCENT 200
NORM_SPACE 4
RELATIVE_WEIGHT 40
RELATIVE_SETWIDTH 50
SUPERSCRIPT_X 0
SUPERSCRIPT_Y 7
SUPERSCRIPT_SIZE 10
SUBSCRIPT_X 0
SUBSCRIPT_Y 2
SUBSCRIPT_SIZE 10
FIGURE_WIDTH 9
AVG_LOWERCASE_WIDTH 87
AVG_UPPERCASE_WIDTH 106
ENDPROPERTIES
CHARS 1267
STARTCHAR .null
ENCODING 0
SWIDTH 0 0
DWIDTH 0 0
BBX 1 1 0 0
BITMAP
00
ENDCHAR
STARTCHAR .null.dup1
ENCODING 8
SWIDTH 0 0
DWIDTH 0 0
BBX 1 1 0 0
BITMAP
00
ENDCHAR
STARTCHAR nonmarkingreturn
ENCODING 9
SWIDTH 231 0
DWIDTH 4 0
BBX 1 1 0 0
BITMAP
00
ENDCHAR
STARTCHAR nonmarkingreturn.dup2
ENCODING 13
SWIDTH 231 0
DWIDTH 4 0
BBX 1 1 0 0
BITMAP
00
ENDCHAR
STARTCHAR .null.dup3
ENCODING 29
SWIDTH 0 0
DWIDTH 0 0
BBX 1 1 0 0
BITMAP
00
ENDCHAR
STARTCHAR space
ENCODING 32
SWIDTH 231 0
DWIDTH 4 0
BBX 1 1 0 0
BITMAP
00
ENDCHAR
STARTCHAR exclam
ENCODING 33
SWIDTH 276 0
DWIDTH 4 0
BBX 1 11 1 0
BITMAP
80
80
80
80
80
80
80
00
00
80
80
ENDCHAR
STARTCHAR quotedbl
ENCODING 34
SWIDTH 418 0
DWIDTH 7 0
BBX 4 4 1 9
BITMAP
90
90
90
90
ENDCHAR
STARTCHAR numbersign
ENCODING 35
SWIDTH 667 0
DWIDTH 11 0
BBX 9 11 1 0
BITMAP
1100
1100
1100
FF80
2200
2200
2200
FF80
4400
4400
4400
ENDCHAR
STARTCHAR dollar
ENCODING 36
SWIDTH 564 0
DWIDTH 9 0
BBX 7 15 1 -2
BITMAP
10
10
7C
80
80
80
60
10
0C
02
02
02
FC
10
10
ENDCHAR
STARTCHAR percent
ENCODING 37
SWIDTH 858 0
DWIDTH 14 0
BBX 12 11 1 0
BITMAP
7040
8880
8900
8900
8A00
74E0
0510
0910
0910
1110
20E0
ENDCHAR
STARTCHAR ampersand
ENCODING 38
SWIDTH 666 0
DWIDTH 11 0
BBX 9 11 1 0
BITMAP
3C00
4200
4200
4200
2C00
3000
4880
8480
8300
8300
7C80
ENDCHAR
STARTCHAR quotesingle
ENCODING 39
SWIDTH 241 0
DWIDTH 4 0
BBX 1 4 1 9
BITMAP
80
80
80
80
ENDCHAR
STARTCHAR parenleft
ENCODING 40
SWIDTH 324 0
DWIDTH 5 0
BBX 4 16 1 -3
BITMAP
10
20
40
40
40
80
80
80
80
80
80
40
40
40
20
10
ENDCHAR
STARTCHAR parenright
ENCODING 41
SWIDTH 324 0
DWIDTH 5 0
BBX 4 16 0 -3
BITMAP
80
40
20
20
20
10
10
10
10
10
10
20
20
20
40
80
ENDCHAR
STARTCHAR asterisk
ENCODING 42
SWIDTH 480 0
DWIDTH 8 0
BBX 7 6 1 5
BITMAP
10
92
7C
28
28
44
ENDCHAR
STARTCHAR plus
ENCODING 43
SWIDTH 564 0
DWIDTH 9 0
BBX 7 7 1 1
BITMAP
10
10
10
FE
10
10
10
ENDCHAR
STARTCHAR comma
ENCODING 44
SWIDTH 246 0
DWIDTH 4 0
BBX 2 5 0 -3
BITMAP
40
40
40
40
80
ENDCHAR
STARTCHAR hyphen
ENCODING 45
SWIDTH 299 0
DWIDTH 6 0
BBX 4 1 1 4
BITMAP
F0
ENDCHAR
STARTCHAR period
ENCODING 46
SWIDTH 246 0
DWIDTH 4 0
BBX 1 2 1 0
BITMAP
80
80
ENDCHAR
STARTCHAR slash
ENCODING 47
SWIDTH 384 0
DWIDTH 6 0
BBX 7 16 0 -3
BITMAP
02
04
04
04
08
08
08
10
10
20
20
20
40
40
40
80
ENDCHAR
STARTCHAR zero
ENCODING 48
SWIDTH 564 0
DWIDTH 9 0
BBX 7 11 1 0
BITMAP
38
44
82
82
82
82
82
82
82
44
38
ENDCHAR
STARTCHAR one
ENCODING 49
SWIDTH 564 0
DWIDTH 9 0
BBX 4 11 1 0
BITMAP
10
30
50
90
10
10
10
10
10
10
10
ENDCHAR
STARTCHAR two
ENCODING 50
SWIDTH 564 0
DWIDTH 9 0
BBX 7 11 1 0
BITMAP
38
44
82
02
04
08
10
20
40
80
FE
ENDCHAR
STARTCHAR three
ENCODING 51
SWIDTH 564 0
DWIDTH 9 0
BBX 7 11 1 0
BITMAP
78
84
02
02
04
38
04
02
02
84
78
ENDCHAR
STARTCHAR four
ENCODING 52
SWIDTH 564 0
DWIDTH 9 0
BBX 7 11 1 0
BITMAP
04
0C
14
24
24
44
84
FE
04
04
04
ENDCHAR
STARTCHAR five
ENCODING 53
SWIDTH 564 0
DWIDTH 9 0
BBX 7 11 1 0
BITMAP
7E
40
40
40
78
04
02
02
02
84
78
ENDCHAR
STARTCHAR six
ENCODING 54
SWIDTH 564 0
DWIDTH 9 0
BBX 7 11 1 0
BITMAP
1C
20
40
80
F8
84
82
82
82
44
38
ENDCHAR
STARTCHAR seven
ENCODING 55
SWIDTH 564 0
DWIDTH 9 0
BBX 7 11 1 0
BITMAP
FE
02
04
08
08
10
10
10
20
20
20
ENDCHAR
STARTCHAR eight
ENCODING 56
SWIDTH 564 0
DWIDTH 9 0
BBX 7 11 1 0
BITMAP
38
44
82
82
44
38
44
82
82
44
38
ENDCHAR
STARTCHAR nine
ENCODING 57
SWIDTH 564 0
DWIDTH 9 0
BBX 7 11 1 0
BITMAP
38
44
82
82
82
42
3E
02
04
08
70
ENDCHAR
STARTCHAR colon
ENCODING 58
SWIDTH 246 0
DWIDTH 4 0
BBX 1 8 1 0
BITMAP
80
80
00
00
00
00
80
80
ENDCHAR
STARTCHAR semicolon
ENCODING 59
SWIDTH 246 0
DWIDTH 4 0
BBX 2 11 0 -3
BITMAP
40
40
00
00
00
00
40
40
40
40
80
ENDCHAR
STARTCHAR less
ENCODING 60
SWIDTH 564 0
DWIDTH 9 0
BBX 7 7 1 1
BITMAP
02
0C
30
C0
30
0C
02
ENDCHAR
STARTCHAR equal
ENCODING 61
SWIDTH 564 0
DWIDTH 9 0
BBX 7 4 1 3
BITMAP
FE
00
00
FE
ENDCHAR
STARTCHAR greater
ENCODING 62
SWIDTH 564 0
DWIDTH 9 0
BBX 8 7 1 1
BITMAP
80
70
0C
03
0C
70
80
ENDCHAR
STARTCHAR question
ENCODING 63
SWIDTH 404 0
DWIDTH 6 0
BBX 5 11 1 0
BITMAP
70
88
08
08
30
40
40
00
00
40
40
ENDCHAR
STARTCHAR at
ENCODING 64
SWIDTH 950 0
DWIDTH 15 0
BBX 13 13 1 -2
BITMAP
0F80
3060
4010
47D0
8848
9048
9048
9048
8848
47B0
4000
3000
0FC0
ENDCHAR
STARTCHAR A
ENCODING 65
SWIDTH 663 0
DWIDTH 11 0
BBX 11 11 0 0
BITMAP
0400
0A00
0A00
1100
1100
2080
2080
3F80
4040
4040
8020
ENDCHAR
STARTCHAR B
ENCODING 66
SWIDTH 643 0
DWIDTH 10 0
BBX 8 11 1 0
BITMAP
F8
84
82
82
84
FC
82
81
81
82
FC
ENDCHAR
STARTCHAR C
ENCODING 67
SWIDTH 620 0
DWIDTH 11 0
BBX 9 11 1 0
BITMAP
1F00
2080
4000
8000
8000
8000
8000
8000
4000
2080
1F00
ENDCHAR
STARTCHAR D
ENCODING 68
SWIDTH 713 0
DWIDTH 11 0
BBX 9 11 1 0
BITMAP
FC00
8200
8100
8080
8080
8080
8080
8080
8100
8200
FC00
ENDCHAR
STARTCHAR E
ENCODING 69
SWIDTH 571 0
DWIDTH 9 0
BBX 7 11 1 0
BITMAP
FE
80
80
80
80
FC
80
80
80
80
FE
ENDCHAR
STARTCHAR F
ENCODING 70
SWIDTH 537 0
DWIDTH 9 0
BBX 7 11 1 0
BITMAP
FE
80
80
80
80
FC
80
80
80
80
80
ENDCHAR
STARTCHAR G
ENCODING 71
SWIDTH 672 0
DWIDTH 11 0
BBX 9 11 1 0
BITMAP
1F00
2080
4000
8000
8000
8000
8080
8080
4080
2080
1F80
ENDCHAR
STARTCHAR H
ENCODING 72
SWIDTH 705 0
DWIDTH 11 0
BBX 9 11 1 0
BITMAP
8080
8080
8080
8080
8080
FF80
8080
8080
8080
8080
8080
ENDCHAR
STARTCHAR I
ENCODING 73
SWIDTH 269 0
DWIDTH 3 0
BBX 1 11 1 0
BITMAP
80
80
80
80
80
80
80
80
80
80
80
ENDCHAR
STARTCHAR J
ENCODING 74
SWIDTH 500 0
DWIDTH 8 0
BBX 7 11 0 0
BITMAP
02
02
02
02
02
02
02
02
02
84
78
ENDCHAR
STARTCHAR K
ENCODING 75
SWIDTH 629 0
DWIDTH 10 0
BBX 9 11 1 0
BITMAP
8100
8200
8C00
9000
A000
C000
B000
8800
8600
8100
8080
ENDCHAR
STARTCHAR L
ENCODING 76
SWIDTH 519 0
DWIDTH 8 0
BBX 7 11 1 0
BITMAP
80
80
80
80
80
80
80
80
80
80
FE
ENDCHAR
STARTCHAR M
ENCODING 77
SWIDTH 871 0
DWIDTH 13 0
BBX 11 11 1 0
BITMAP
4040
60C0
60C0
5140
5140
8A40
8A20
8A20
8420
8020
8020
ENDCHAR
STARTCHAR N
ENCODING 78
SWIDTH 728 0
DWIDTH 11 0
BBX 9 11 1 0
BITMAP
8080
C080
A080
9080
9080
8880
8480
8280
8280
8180
8080
ENDCHAR
STARTCHAR O
ENCODING 79
SWIDTH 778 0
DWIDTH 12 0
BBX 10 11 1 0
BITMAP
1E00
2100
4080
8040
8040
8040
8040
8040
4080
2100
1E00
ENDCHAR
STARTCHAR P
ENCODING 80
SWIDTH 608 0
DWIDTH 10 0
BBX 8 11 1 0
BITMAP
FC
82
81
81
81
82
FC
80
80
80
80
ENDCHAR
STARTCHAR Q
ENCODING 81
SWIDTH 778 0
DWIDTH 12 0
BBX 10 14 1 -3
BITMAP
1E00
2100
4080
8040
8040
8040
8040
8040
4080
2100
1E00
0400
0200
0180
ENDCHAR
STARTCHAR R
ENCODING 82
SWIDTH 629 0
DWIDTH 10 0
BBX 9 11 1 0
BITMAP
FC00
8200
8100
8100
8100
8200
FC00
8600
8200
8100
8080
ENDCHAR
STARTCHAR S
ENCODING 83
SWIDTH 532 0
DWIDTH 9 0
BBX 7 11 1 0
BITMAP
3C
42
80
80
60
18
04
02
02
84
78
ENDCHAR
STARTCHAR T
ENCODING 84
SWIDTH 565 0
DWIDTH 9 0
BBX 9 11 0 0
BITMAP
FF80
0800
0800
0800
0800
0800
0800
0800
0800
0800
0800
ENDCHAR
STARTCHAR U
ENCODING 85
SWIDTH 688 0
DWIDTH 11 0
BBX 9 11 1 0
BITMAP
8080
8080
8080
8080
8080
8080
8080
8080
8080
4100
3E00
ENDCHAR
STARTCHAR V
ENCODING 86
SWIDTH 656 0
DWIDTH 9 0
BBX 9 11 0 0
BITMAP
8080
8080
4100
4100
4100
2200
2200
1400
1400
1400
0800
ENDCHAR
STARTCHAR W
ENCODING 87
SWIDTH 929 0
DWIDTH 13 0
BBX 13 11 0 0
BITMAP
8008
8208
4210
4510
4510
4510
28A0
28A0
28A0
1040
1040
ENDCHAR
STARTCHAR X
ENCODING 88
SWIDTH 631 0
DWIDTH 9 0
BBX 9 11 0 0
BITMAP
8080
4100
2200
2200
1400
0800
1400
2200
2200
4100
8080
ENDCHAR
STARTCHAR Y
ENCODING 89
SWIDTH 598 0
DWIDTH 9 0
BBX 9 11 0 0
BITMAP
8080
4100
4100
2200
2200
1400
0800
0800
0800
0800
0800
ENDCHAR
STARTCHAR Z
ENCODING 90
SWIDTH 573 0
DWIDTH 9 0
BBX 7 11 1 0
BITMAP
FE
02
04
08
10
10
20
40
40
80
FE
ENDCHAR
STARTCHAR bracketleft
ENCODING 91
SWIDTH 329 0
DWIDTH 5 0
BBX 3 16 2 -3
BITMAP
E0
80
80
80
80
80
80
80
80
80
80
80
80
80
80
E0
ENDCHAR
STARTCHAR backslash
ENCODING 92
SWIDTH 384 0
DWIDTH 6 0
BBX 7 16 0 -3
BITMAP
80
40
40
40
20
20
20
10
10
08
08
08
04
04
04
02
ENDCHAR
STARTCHAR bracketright
ENCODING 93
SWIDTH 329 0
DWIDTH 5 0
BBX 3 16 0 -3
BITMAP
E0
20
20
20
20
20
20
20
20
20
20
20
20
20
20
E0
ENDCHAR
STARTCHAR asciicircum
ENCODING 94
SWIDTH 564 0
DWIDTH 9 0
BBX 7 6 1 5
BITMAP
10
28
28
44
44
82
ENDCHAR
STARTCHAR underscore
ENCODING 95
SWIDTH 492 0
DWIDTH 8 0
BBX 8 1 0 -3
BITMAP
FF
ENDCHAR
STARTCHAR grave
ENCODING 96
SWIDTH 376 0
DWIDTH 6 0
BBX 3 3 1 9
BITMAP
80
40
20
ENDCHAR
STARTCHAR a
ENCODING 97
SWIDTH 522 0
DWIDTH 8 0
BBX 6 8 1 0
BITMAP
78
04
04
7C
84
84
84
7C
ENDCHAR
STARTCHAR b
ENCODING 98
SWIDTH 589 0
DWIDTH 9 0
BBX 7 12 1 0
BITMAP
80
80
80
80
F8
84
82
82
82
82
84
F8
ENDCHAR
STARTCHAR c
ENCODING 99
SWIDTH 465 0
DWIDTH 8 0
BBX 6 8 1 0
BITMAP
3C
40
80
80
80
80
40
3C
ENDCHAR
STARTCHAR d
ENCODING 100
SWIDTH 589 0
DWIDTH 9 0
BBX 7 12 1 0
BITMAP
02
02
02
02
3E
42
82
82
82
82
42
3E
ENDCHAR
STARTCHAR e
ENCODING 101
SWIDTH 559 0
DWIDTH 9 0
BBX 7 8 1 0
BITMAP
38
44
82
FE
80
80
40
3C
ENDCHAR
STARTCHAR f
ENCODING 102
SWIDTH 386 0
DWIDTH 6 0
BBX 5 12 1 0
BITMAP
78
80
80
80
F8
80
80
80
80
80
80
80
ENDCHAR
STARTCHAR g
ENCODING 103
SWIDTH 578 0
DWIDTH 9 0
BBX 7 11 1 -3
BITMAP
3E
42
82
82
82
82
42
3E
02
04
F8
ENDCHAR
STARTCHAR h
ENCODING 104
SWIDTH 571 0
DWIDTH 9 0
BBX 7 12 1 0
BITMAP
80
80
80
80
F8
84
82
82
82
82
82
82
ENDCHAR
STARTCHAR i
ENCODING 105
SWIDTH 253 0
DWIDTH 3 0
BBX 1 12 1 0
BITMAP
80
80
00
00
80
80
80
80
80
80
80
80
ENDCHAR
STARTCHAR j
ENCODING 106
SWIDTH 253 0
DWIDTH 3 0
BBX 3 15 -1 -3
BITMAP
20
20
00
00
20
20
20
20
20
20
20
20
20
20
C0
ENDCHAR
STARTCHAR k
ENCODING 107
SWIDTH 522 0
DWIDTH 8 0
BBX 6 12 1 0
BITMAP
80
80
80
80
88
90
A0
C0
A0
90
88
84
ENDCHAR
STARTCHAR l
ENCODING 108
SWIDTH 273 0
DWIDTH 4 0
BBX 3 12 1 0
BITMAP
80
80
80
80
80
80
80
80
80
80
80
60
ENDCHAR
STARTCHAR m
ENCODING 109
SWIDTH 861 0
DWIDTH 13 0
BBX 11 8 1 0
BITMAP
F380
8C40
8420
8420
8420
8420
8420
8420
ENDCHAR
STARTCHAR n
ENCODING 110
SWIDTH 574 0
DWIDTH 9 0
BBX 7 8 1 0
BITMAP
F8
84
82
82
82
82
82
82
ENDCHAR
STARTCHAR o
ENCODING 111
SWIDTH 590 0
DWIDTH 10 0
BBX 8 8 1 0
BITMAP
3C
42
81
81
81
81
42
3C
ENDCHAR
STARTCHAR p
ENCODING 112
SWIDTH 589 0
DWIDTH 9 0
BBX 7 11 1 -3
BITMAP
F8
84
82
82
82
82
84
F8
80
80
80
ENDCHAR
STARTCHAR q
ENCODING 113
SWIDTH 589 0
DWIDTH 9 0
BBX 7 11 1 -3
BITMAP
3E
42
82
82
82
82
42
3E
02
02
02
ENDCHAR
STARTCHAR r
ENCODING 114
SWIDTH 386 0
DWIDTH 6 0
BBX 5 8 1 0
BITMAP
F8
80
80
80
80
80
80
80
ENDCHAR
STARTCHAR s
ENCODING 115
SWIDTH 446 0
DWIDTH 7 0
BBX 5 8 1 0
BITMAP
78
80
80
60
10
08
08
F0
ENDCHAR
STARTCHAR t
ENCODING 116
SWIDTH 402 0
DWIDTH 6 0
BBX 4 11 1 0
BITMAP
80
80
80
F0
80
80
80
80
80
80
70
ENDCHAR
STARTCHAR u
ENCODING 117
SWIDTH 574 0
DWIDTH 9 0
BBX 7 8 1 0
BITMAP
82
82
82
82
82
82
42
3C
ENDCHAR
STARTCHAR v
ENCODING 118
SWIDTH 502 0
DWIDTH 7 0
BBX 7 8 0 0
BITMAP
82
82
44
44
44
28
28
10
ENDCHAR
STARTCHAR w
ENCODING 119
SWIDTH 777 0
DWIDTH 13 0
BBX 13 8 0 0
BITMAP
8208
8208
4510
4510
4510
28A0
28A0
1040
ENDCHAR
STARTCHAR x
ENCODING 120
SWIDTH 511 0
DWIDTH 8 0
BBX 8 8 0 0
BITMAP
81
42
24
18
18
24
42
81
ENDCHAR
STARTCHAR y
ENCODING 121
SWIDTH 497 0
DWIDTH 7 0
BBX 7 11 0 -3
BITMAP
82
44
44
44
28
28
10
10
10
20
C0
ENDCHAR
STARTCHAR z
ENCODING 122
SWIDTH 471 0
DWIDTH 8 0
BBX 6 8 1 0
BITMAP
FC
04
08
10
20
40
80
FC
ENDCHAR
STARTCHAR braceleft
ENCODING 123
SWIDTH 333 0
DWIDTH 5 0
BBX 5 16 0 -3
BITMAP
18
20
20
20
20
20
20
C0
20
20
20
20
20
20
20
18
ENDCHAR
STARTCHAR bar
ENCODING 124
SWIDTH 279 0
DWIDTH 4 0
BBX 1 16 1 -3
BITMAP
80
80
80
80
80
80
80
80
80
80
80
80
80
80
80
80
ENDCHAR
STARTCHAR braceright
ENCODING 125
SWIDTH 333 0
DWIDTH 5 0
BBX 5 16 0 -3
BITMAP
C0
20
20
20
20
20
20
18
20
20
20
20
20
20
20
C0
ENDCHAR
STARTCHAR asciitilde
ENCODING 126
SWIDTH 564 0
DWIDTH 9 0
BBX 7 2 1 4
BITMAP
72
8C
ENDCHAR
STARTCHAR uni00A0
ENCODING 160
SWIDTH 231 0
DWIDTH 4 0
BBX 1 1 0 0
BITMAP
00
ENDCHAR
STARTCHAR exclamdown
ENCODING 161
SWIDTH 276 0
DWIDTH 4 0
BBX 1 11 1 -3
BITMAP
80
80
00
00
80
80
80
80
80
80
80
ENDCHAR
STARTCHAR cent
ENCODING 162
SWIDTH 564 0
DWIDTH 9 0
BBX 7 12 1 -2
BITMAP
08
08
3E
40
80
80
80
80
40
3E
08
08
ENDCHAR
STARTCHAR sterling
ENCODING 163
SWIDTH 564 0
DWIDTH 9 0
BBX 7 11 1 0
BITMAP
1E
20
40
40
40
FC
40
40
40
40
FE
ENDCHAR
STARTCHAR currency
ENCODING 164
SWIDTH 564 0
DWIDTH 9 0
BBX 8 8 0 1
BITMAP
81
5A
24
42
42
24
5A
81
ENDCHAR
STARTCHAR yen
ENCODING 165
SWIDTH 564 0
DWIDTH 9 0
BBX 9 11 0 0
BITMAP
8080
4100
2200
2200
1400
7F00
0800
0800
7F00
0800
0800
ENDCHAR
STARTCHAR brokenbar
ENCODING 166
SWIDTH 279 0
DWIDTH 4 0
BBX 1 16 1 -3
BITMAP
80
80
80
80
80
80
00
00
00
00
80
80
80
80
80
80
ENDCHAR
STARTCHAR section
ENCODING 167
SWIDTH 492 0
DWIDTH 8 0
BBX 6 13 1 -1
BITMAP
3C
40
40
60
58
84
84
44
38
08
04
04
F8
ENDCHAR
STARTCHAR dieresis
ENCODING 168
SWIDTH 376 0
DWIDTH 6 0
BBX 3 2 1 10
BITMAP
A0
A0
ENDCHAR
STARTCHAR copyright
ENCODING 169
SWIDTH 814 0
DWIDTH 13 0
BBX 11 11 1 0
BITMAP
1F00
2080
4040
8F20
9020
9020
9020
8F20
4040
2080
1F00
ENDCHAR
STARTCHAR ordfeminine
ENCODING 170
SWIDTH 389 0
DWIDTH 6 0
BBX 4 6 1 5
BITMAP
E0
10
70
90
90
70
ENDCHAR
STARTCHAR guillemotleft
ENCODING 171
SWIDTH 499 0
DWIDTH 8 0
BBX 7 7 0 1
BITMAP
12
24
48
90
48
24
12
ENDCHAR
STARTCHAR logicalnot
ENCODING 172
SWIDTH 564 0
DWIDTH 9 0
BBX 7 5 1 1
BITMAP
FE
02
02
02
02
ENDCHAR
STARTCHAR uni00AD
ENCODING 173
SWIDTH 299 0
DWIDTH 6 0
BBX 4 1 1 4
BITMAP
F0
ENDCHAR
STARTCHAR registered
ENCODING 174
SWIDTH 814 0
DWIDTH 13 0
BBX 11 11 1 0
BITMAP
1F00
2080
4040
9E20
9120
9E20
9220
9120
4040
2080
1F00
ENDCHAR
STARTCHAR macron
ENCODING 175
SWIDTH 376 0
DWIDTH 6 0
BBX 5 1 1 10
BITMAP
F8
ENDCHAR
STARTCHAR degree
ENCODING 176
SWIDTH 332 0
DWIDTH 5 0
BBX 4 4 1 8
BITMAP
60
90
90
60
ENDCHAR
STARTCHAR plusminus
ENCODING 177
SWIDTH 564 0
DWIDTH 9 0
BBX 7 9 1 0
BITMAP
10
10
10
FE
10
10
10
00
FE
ENDCHAR
STARTCHAR twosuperior
ENCODING 178
SWIDTH 359 0
DWIDTH 6 0
BBX 4 6 1 5
BITMAP
60
90
10
60
80
F0
ENDCHAR
STARTCHAR threesuperior
ENCODING 179
SWIDTH 359 0
DWIDTH 6 0
BBX 4 6 1 5
BITMAP
E0
10
60
10
10
E0
ENDCHAR
STARTCHAR acute
ENCODING 180
SWIDTH 376 0
DWIDTH 6 0
BBX 3 3 2 9
BITMAP
20
40
80
ENDCHAR
STARTCHAR mu
ENCODING 181
SWIDTH 580 0
DWIDTH 9 0
BBX 6 11 1 -3
BITMAP
84
84
84
84
84
84
C4
BC
80
80
80
ENDCHAR
STARTCHAR paragraph
ENCODING 182
SWIDTH 646 0
DWIDTH 10 0
BBX 7 14 1 -3
BITMAP
3E
72
F2
F2
F2
F2
32
12
12
12
12
12
12
12
ENDCHAR
STARTCHAR periodcentered
ENCODING 183
SWIDTH 246 0
DWIDTH 4 0
BBX 1 2 1 4
BITMAP
80
80
ENDCHAR
STARTCHAR cedilla
ENCODING 184
SWIDTH 376 0
DWIDTH 6 0
BBX 3 3 1 -3
BITMAP
60
20
E0
ENDCHAR
STARTCHAR onesuperior
ENCODING 185
SWIDTH 359 0
DWIDTH 6 0
BBX 2 6 2 5
BITMAP
40
C0
40
40
40
40
ENDCHAR
STARTCHAR ordmasculine
ENCODING 186
SWIDTH 446 0
DWIDTH 7 0
BBX 5 6 1 5
BITMAP
70
88
88
88
88
70
ENDCHAR
STARTCHAR guillemotright
ENCODING 187
SWIDTH 499 0
DWIDTH 8 0
BBX 7 7 0 1
BITMAP
98
4C
24
12
24
4C
98
ENDCHAR
STARTCHAR onequarter
ENCODING 188
SWIDTH 874 0
DWIDTH 14 0
BBX 11 11 2 0
BITMAP
4100
C100
4200
4200
4400
4840
08C0
1140
2140
23E0
4040
ENDCHAR
STARTCHAR onehalf
ENCODING 189
SWIDTH 874 0
DWIDTH 14 0
BBX 11 11 2 0
BITMAP
4100
C100
4200
4400
4400
48E0
1020
1020
2040
4080
41E0
ENDCHAR
STARTCHAR threequarters
ENCODING 190
SWIDTH 874 0
DWIDTH 14 0
BBX 12 11 1 0
BITMAP
E040
1080
6100
1100
1200
E220
0460
08A0
08A0
11F0
2020
ENDCHAR
STARTCHAR questiondown
ENCODING 191
SWIDTH 404 0
DWIDTH 6 0
BBX 5 11 0 -3
BITMAP
10
10
00
00
10
10
20
40
80
88
70
ENDCHAR
STARTCHAR Agrave
ENCODING 192
SWIDTH 663 0
DWIDTH 11 0
BBX 11 15 0 0
BITMAP
0800
0C00
0400
0000
0400
0A00
0A00
1100
1100
2080
2080
3F80
4040
4040
8020
ENDCHAR
STARTCHAR Aacute
ENCODING 193
SWIDTH 663 0
DWIDTH 11 0
BBX 11 15 0 0
BITMAP
0200
0600
0800
0000
0400
0A00
0A00
1100
1100
2080
2080
3F80
4040
4040
8020
ENDCHAR
STARTCHAR Acircumflex
ENCODING 194
SWIDTH 663 0
DWIDTH 11 0
BBX 11 15 0 0
BITMAP
0400
0A00
1100
0000
0400
0A00
0A00
1100
1100
2080
2080
3F80
4040
4040
8020
ENDCHAR
STARTCHAR Atilde
ENCODING 195
SWIDTH 663 0
DWIDTH 11 0
BBX 11 15 0 0
BITMAP
0D00
1300
0000
0000
0400
0A00
0A00
1100
1100
2080
2080
3F80
4040
4040
8020
ENDCHAR
STARTCHAR Adieresis
ENCODING 196
SWIDTH 663 0
DWIDTH 11 0
BBX 11 15 0 0
BITMAP
0A00
0A00
0000
0000
0400
0A00
0A00
1100
1100
2080
2080
3F80
4040
4040
8020
ENDCHAR
STARTCHAR Aring
ENCODING 197
SWIDTH 663 0
DWIDTH 11 0
BBX 11 14 0 0
BITMAP
0400
0A00
0A00
0400
0A00
0A00
1100
1100
2080
2080
3F80
4040
4040
8020
ENDCHAR
STARTCHAR AE
ENCODING 198
SWIDTH 935 0
DWIDTH 15 0
BBX 14 11 0 0
BITMAP
00FC
0180
0280
0480
0480
08F8
1080
1F80
2080
4080
80FC
ENDCHAR
STARTCHAR Ccedilla
ENCODING 199
SWIDTH 620 0
DWIDTH 11 0
BBX 9 14 1 -3
BITMAP
1F00
2080
4000
8000
8000
8000
8000
8000
4000
2080
1F00
0800
0400
1800
ENDCHAR
STARTCHAR Egrave
ENCODING 200
SWIDTH 571 0
DWIDTH 9 0
BBX 7 15 1 0
BITMAP
20
18
08
00
FE
80
80
80
80
FC
80
80
80
80
FE
ENDCHAR
STARTCHAR Eacute
ENCODING 201
SWIDTH 571 0
DWIDTH 9 0
BBX 7 15 1 0
BITMAP
04
08
10
00
FE
80
80
80
80
FC
80
80
80
80
FE
ENDCHAR
STARTCHAR Ecircumflex
ENCODING 202
SWIDTH 571 0
DWIDTH 9 0
BBX 7 15 1 0
BITMAP
10
28
44
00
FE
80
80
80
80
FC
80
80
80
80
FE
ENDCHAR
STARTCHAR Edieresis
ENCODING 203
SWIDTH 571 0
DWIDTH 9 0
BBX 7 15 1 0
BITMAP
28
28
00
00
FE
80
80
80
80
FC
80
80
80
80
FE
ENDCHAR
STARTCHAR Igrave
ENCODING 204
SWIDTH 269 0
DWIDTH 3 0
BBX 3 15 -1 0
BITMAP
80
60
20
00
20
20
20
20
20
20
20
20
20
20
20
ENDCHAR
STARTCHAR Iacute
ENCODING 205
SWIDTH 269 0
DWIDTH 3 0
BBX 3 15 0 0
BITMAP
20
40
80
00
40
40
40
40
40
40
40
40
40
40
40
ENDCHAR
STARTCHAR Icircumflex
ENCODING 206
SWIDTH 269 0
DWIDTH 3 0
BBX 5 15 -1 0
BITMAP
20
50
88
00
20
20
20
20
20
20
20
20
20
20
20
ENDCHAR
STARTCHAR Idieresis
ENCODING 207
SWIDTH 269 0
DWIDTH 3 0
BBX 3 15 0 0
BITMAP
A0
A0
00
00
40
40
40
40
40
40
40
40
40
40
40
ENDCHAR
STARTCHAR Eth
ENCODING 208
SWIDTH 726 0
DWIDTH 11 0
BBX 10 11 0 0
BITMAP
7E00
4100
4080
4040
4040
F040
4040
4040
4080
4100
7E00
ENDCHAR
STARTCHAR Ntilde
ENCODING 209
SWIDTH 728 0
DWIDTH 11 0
BBX 9 15 1 0
BITMAP
3200
2C00
0000
0000
8080
C080
A080
9080
9080
8880
8480
8280
8280
8180
8080
ENDCHAR
STARTCHAR Ograve
ENCODING 210
SWIDTH 778 0
DWIDTH 12 0
BBX 10 15 1 0
BITMAP
0800
0C00
0400
0000
1E00
2100
4080
8040
8040
8040
8040
8040
4080
2100
1E00
ENDCHAR
STARTCHAR Oacute
ENCODING 211
SWIDTH 778 0
DWIDTH 12 0
BBX 10 15 1 0
BITMAP
0200
0600
0800
0000
1E00
2100
4080
8040
8040
8040
8040
8040
4080
2100
1E00
ENDCHAR
STARTCHAR Ocircumflex
ENCODING 212
SWIDTH 778 0
DWIDTH 12 0
BBX 10 15 1 0
BITMAP
0800
1400
2200
0000
1E00
2100
4080
8040
8040
8040
8040
8040
4080
2100
1E00
ENDCHAR
STARTCHAR Otilde
ENCODING 213
SWIDTH 778 0
DWIDTH 12 0
BBX 10 15 1 0
BITMAP
1A00
2600
0000
0000
1E00
2100
4080
8040
8040
8040
8040
8040
4080
2100
1E00
ENDCHAR
STARTCHAR Odieresis
ENCODING 214
SWIDTH 778 0
DWIDTH 12 0
BBX 10 15 1 0
BITMAP
1400
1400
0000
0000
1E00
2100
4080
8040
8040
8040
8040
8040
4080
2100
1E00
ENDCHAR
STARTCHAR multiply
ENCODING 215
SWIDTH 564 0
DWIDTH 9 0
BBX 5 5 2 2
BITMAP
88
50
20
50
88
ENDCHAR
STARTCHAR Oslash
ENCODING 216
SWIDTH 778 0
DWIDTH 12 0
BBX 10 11 1 0
BITMAP
1E80
2100
4180
8240
8440
8840
8840
9040
6080
2100
5E00
ENDCHAR
STARTCHAR Ugrave
ENCODING 217
SWIDTH 688 0
DWIDTH 11 0
BBX 9 15 1 0
BITMAP
1000
1800
0800
0000
8080
8080
8080
8080
8080
8080
8080
8080
8080
4100
3E00
ENDCHAR
STARTCHAR Uacute
ENCODING 218
SWIDTH 688 0
DWIDTH 11 0
BBX 9 15 1 0
BITMAP
0400
0C00
0800
0000
8080
8080
8080
8080
8080
8080
8080
8080
8080
4100
3E00
ENDCHAR
STARTCHAR Ucircumflex
ENCODING 219
SWIDTH 688 0
DWIDTH 11 0
BBX 9 15 1 0
BITMAP
1800
3C00
2400
0000
8080
8080
8080
8080
8080
8080
8080
8080
8080
4100
3E00
ENDCHAR
STARTCHAR Udieresis
ENCODING 220
SWIDTH 688 0
DWIDTH 11 0
BBX 9 15 1 0
BITMAP
1400
1400
0000
0000
8080
8080
8080
8080
8080
8080
8080
8080
8080
4100
3E00
ENDCHAR
STARTCHAR Yacute
ENCODING 221
SWIDTH 598 0
DWIDTH 9 0
BBX 9 15 0 0
BITMAP
0200
0C00
0800
0000
8080
4100
4100
2200
2200
1400
0800
0800
0800
0800
0800
ENDCHAR
STARTCHAR Thorn
ENCODING 222
SWIDTH 609 0
DWIDTH 10 0
BBX 8 11 1 0
BITMAP
80
80
FC
82
81
81
81
82
FC
80
80
ENDCHAR
STARTCHAR germandbls
ENCODING 223
SWIDTH 623 0
DWIDTH 10 0
BBX 8 12 1 0
BITMAP
78
84
84
84
88
90
90
8C
82
81
81
BE
ENDCHAR
STARTCHAR agrave
ENCODING 224
SWIDTH 522 0
DWIDTH 8 0
BBX 6 12 1 0
BITMAP
40
30
10
00
78
04
04
7C
84
84
84
7C
ENDCHAR
STARTCHAR aacute
ENCODING 225
SWIDTH 522 0
DWIDTH 8 0
BBX 6 12 1 0
BITMAP
08
10
20
00
78
04
04
7C
84
84
84
7C
ENDCHAR
STARTCHAR acircumflex
ENCODING 226
SWIDTH 522 0
DWIDTH 8 0
BBX 6 12 1 0
BITMAP
10
28
44
00
78
04
04
7C
84
84
84
7C
ENDCHAR
STARTCHAR atilde
ENCODING 227
SWIDTH 522 0
DWIDTH 8 0
BBX 6 12 1 0
BITMAP
34
4C
00
00
78
04
04
7C
84
84
84
7C
ENDCHAR
STARTCHAR adieresis
ENCODING 228
SWIDTH 522 0
DWIDTH 8 0
BBX 6 12 1 0
BITMAP
28
28
00
00
78
04
04
7C
84
84
84
7C
ENDCHAR
STARTCHAR aring
ENCODING 229
SWIDTH 522 0
DWIDTH 8 0
BBX 6 13 1 0
BITMAP
38
48
48
38
00
78
04
04
7C
84
84
84
7C
ENDCHAR
STARTCHAR ae
ENCODING 230
SWIDTH 859 0
DWIDTH 14 0
BBX 12 8 1 0
BITMAP
79C0
0620
0410
7FF0
8400
8400
8600
79E0
ENDCHAR
STARTCHAR ccedilla
ENCODING 231
SWIDTH 465 0
DWIDTH 8 0
BBX 6 11 1 -3
BITMAP
3C
40
80
80
80
80
40
3C
20
10
60
ENDCHAR
STARTCHAR egrave
ENCODING 232
SWIDTH 559 0
DWIDTH 9 0
BBX 7 12 1 0
BITMAP
20
30
10
00
38
44
82
FE
80
80
40
3C
ENDCHAR
STARTCHAR eacute
ENCODING 233
SWIDTH 559 0
DWIDTH 9 0
BBX 7 12 1 0
BITMAP
08
18
10
00
38
44
82
FE
80
80
40
3C
ENDCHAR
STARTCHAR ecircumflex
ENCODING 234
SWIDTH 559 0
DWIDTH 9 0
BBX 7 12 1 0
BITMAP
08
34
24
00
38
44
82
FE
80
80
40
3C
ENDCHAR
STARTCHAR edieresis
ENCODING 235
SWIDTH 559 0
DWIDTH 9 0
BBX 7 12 1 0
BITMAP
14
14
00
00
38
44
82
FE
80
80
40
3C
ENDCHAR
STARTCHAR igrave
ENCODING 236
SWIDTH 253 0
DWIDTH 3 0
BBX 3 12 -1 0
BITMAP
80
60
20
00
20
20
20
20
20
20
20
20
ENDCHAR
STARTCHAR iacute
ENCODING 237
SWIDTH 253 0
DWIDTH 3 0
BBX 3 12 0 0
BITMAP
20
40
80
00
40
40
40
40
40
40
40
40
ENDCHAR
STARTCHAR icircumflex
ENCODING 238
SWIDTH 253 0
DWIDTH 3 0
BBX 5 12 -1 0
BITMAP
20
50
88
00
20
20
20
20
20
20
20
20
ENDCHAR
STARTCHAR idieresis
ENCODING 239
SWIDTH 253 0
DWIDTH 3 0
BBX 3 12 0 0
BITMAP
A0
A0
00
00
40
40
40
40
40
40
40
40
ENDCHAR
STARTCHAR eth
ENCODING 240
SWIDTH 589 0
DWIDTH 9 0
BBX 8 12 1 0
BITMAP
31
0E
14
02
3A
46
82
82
82
82
44
38
ENDCHAR
STARTCHAR ntilde
ENCODING 241
SWIDTH 574 0
DWIDTH 9 0
BBX 7 12 1 0
BITMAP
64
58
00
00
F8
84
82
82
82
82
82
82
ENDCHAR
STARTCHAR ograve
ENCODING 242
SWIDTH 590 0
DWIDTH 10 0
BBX 8 12 1 0
BITMAP
20
30
08
00
3C
42
81
81
81
81
42
3C
ENDCHAR
STARTCHAR oacute
ENCODING 243
SWIDTH 590 0
DWIDTH 10 0
BBX 8 12 1 0
BITMAP
08
18
10
00
3C
42
81
81
81
81
42
3C
ENDCHAR
STARTCHAR ocircumflex
ENCODING 244
SWIDTH 590 0
DWIDTH 10 0
BBX 8 12 1 0
BITMAP
08
14
22
00
3C
42
81
81
81
81
42
3C
ENDCHAR
STARTCHAR otilde
ENCODING 245
SWIDTH 590 0
DWIDTH 10 0
BBX 8 12 1 0
BITMAP
32
2C
00
00
3C
42
81
81
81
81
42
3C
ENDCHAR
STARTCHAR odieresis
ENCODING 246
SWIDTH 590 0
DWIDTH 10 0
BBX 8 12 1 0
BITMAP
14
14
00
00
3C
42
81
81
81
81
42
3C
ENDCHAR
STARTCHAR divide
ENCODING 247
SWIDTH 564 0
DWIDTH 9 0
BBX 7 7 1 1
BITMAP
10
10
00
FE
00
10
10
ENDCHAR
STARTCHAR oslash
ENCODING 248
SWIDTH 590 0
DWIDTH 10 0
BBX 8 8 1 0
BITMAP
3D
42
85
89
91
A1
42
BC
ENDCHAR
STARTCHAR ugrave
ENCODING 249
SWIDTH 574 0
DWIDTH 9 0
BBX 7 12 1 0
BITMAP
20
30
10
00
82
82
82
82
82
82
42
3C
ENDCHAR
STARTCHAR uacute
ENCODING 250
SWIDTH 574 0
DWIDTH 9 0
BBX 7 12 1 0
BITMAP
08
18
10
00
82
82
82
82
82
82
42
3C
ENDCHAR
STARTCHAR ucircumflex
ENCODING 251
SWIDTH 574 0
DWIDTH 9 0
BBX 7 12 1 0
BITMAP
30
78
48
00
82
82
82
82
82
82
42
3C
ENDCHAR
STARTCHAR udieresis
ENCODING 252
SWIDTH 574 0
DWIDTH 9 0
BBX 7 12 1 0
BITMAP
28
28
00
00
82
82
82
82
82
82
42
3C
ENDCHAR
STARTCHAR yacute
ENCODING 253
SWIDTH 497 0
DWIDTH 7 0
BBX 7 15 0 -3
BITMAP
04
08
10
00
82
44
44
44
28
28
10
10
10
20
C0
ENDCHAR
STARTCHAR thorn
ENCODING 254
SWIDTH 589 0
DWIDTH 9 0
BBX 7 15 1 -3
BITMAP
80
80
80
80
F8
84
82
82
82
82
84
F8
80
80
80
ENDCHAR
STARTCHAR ydieresis
ENCODING 255
SWIDTH 497 0
DWIDTH 7 0
BBX 7 15 0 -3
BITMAP
28
28
00
00
82
44
44
44
28
28
10
10
10
20
C0
ENDCHAR
STARTCHAR Amacron
ENCODING 256
SWIDTH 663 0
DWIDTH 11 0
BBX 11 14 0 0
BITMAP
1F00
0000
0000
0400
0A00
0A00
1100
1100
2080
2080
3F80
4040
4040
8020
ENDCHAR
STARTCHAR amacron
ENCODING 257
SWIDTH 522 0
DWIDTH 8 0
BBX 6 11 1 0
BITMAP
7C
00
00
78
04
04
7C
84
84
84
7C
ENDCHAR
STARTCHAR Abreve
ENCODING 258
SWIDTH 663 0
DWIDTH 11 0
BBX 11 15 0 0
BITMAP
1200
0E00
0000
0000
0400
0A00
0A00
1100
1100
2080
2080
3F80
4040
4040
8020
ENDCHAR
STARTCHAR abreve
ENCODING 259
SWIDTH 522 0
DWIDTH 8 0
BBX 6 12 1 0
BITMAP
48
38
00
00
78
04
04
7C
84
84
84
7C
ENDCHAR
STARTCHAR Aogonek
ENCODING 260
SWIDTH 663 0
DWIDTH 11 0
BBX 12 14 0 -3
BITMAP
0400
0A00
0A00
1100
1100
2080
2080
3F80
4040
4040
8020
0020
0040
0030
ENDCHAR
STARTCHAR aogonek
ENCODING 261
SWIDTH 522 0
DWIDTH 8 0
BBX 7 11 1 -3
BITMAP
78
04
04
7C
84
84
84
7C
08
08
06
ENDCHAR
STARTCHAR Cacute
ENCODING 262
SWIDTH 620 0
DWIDTH 11 0
BBX 9 15 1 0
BITMAP
0200
0C00
0800
0000
1F00
2080
4000
8000
8000
8000
8000
8000
4000
2080
1F00
ENDCHAR
STARTCHAR cacute
ENCODING 263
SWIDTH 465 0
DWIDTH 8 0
BBX 6 12 1 0
BITMAP
08
18
10
00
3C
40
80
80
80
80
40
3C
ENDCHAR
STARTCHAR Ccircumflex
ENCODING 264
SWIDTH 620 0
DWIDTH 11 0
BBX 9 15 1 0
BITMAP
0400
0A00
1100
0000
1F00
2080
4000
8000
8000
8000
8000
8000
4000
2080
1F00
ENDCHAR
STARTCHAR ccircumflex
ENCODING 265
SWIDTH 465 0
DWIDTH 8 0
BBX 6 12 1 0
BITMAP
08
34
24
00
3C
40
80
80
80
80
40
3C
ENDCHAR
STARTCHAR Cdotaccent
ENCODING 266
SWIDTH 620 0
DWIDTH 11 0
BBX 9 15 1 0
BITMAP
0400
0400
0000
0000
1F00
2080
4000
8000
8000
8000
8000
8000
4000
2080
1F00
ENDCHAR
STARTCHAR cdotaccent
ENCODING 267
SWIDTH 465 0
DWIDTH 8 0
BBX 6 12 1 0
BITMAP
08
08
00
00
3C
40
80
80
80
80
40
3C
ENDCHAR
STARTCHAR Ccaron
ENCODING 268
SWIDTH 620 0
DWIDTH 11 0
BBX 9 15 1 0
BITMAP
1100
0A00
0400
0000
1F00
2080
4000
8000
8000
8000
8000
8000
4000
2080
1F00
ENDCHAR
STARTCHAR ccaron
ENCODING 269
SWIDTH 465 0
DWIDTH 8 0
BBX 6 12 1 0
BITMAP
24
34
08
00
3C
40
80
80
80
80
40
3C
ENDCHAR
STARTCHAR Dcaron
ENCODING 270
SWIDTH 713 0
DWIDTH 11 0
BBX 9 15 1 0
BITMAP
4400
2800
1000
0000
FC00
8200
8100
8080
8080
8080
8080
8080
8100
8200
FC00
ENDCHAR
STARTCHAR dcaron
ENCODING 271
SWIDTH 622 0
DWIDTH 10 0
BBX 9 12 1 0
BITMAP
0280
0280
0280
0280
3E00
4200
8200
8200
8200
8200
4200
3E00
ENDCHAR
STARTCHAR Dcroat
ENCODING 272
SWIDTH 726 0
DWIDTH 11 0
BBX 10 11 0 0
BITMAP
7E00
4100
4080
4040
4040
F040
4040
4040
4080
4100
7E00
ENDCHAR
STARTCHAR dcroat
ENCODING 273
SWIDTH 589 0
DWIDTH 9 0
BBX 8 12 1 0
BITMAP
02
02
1F
02
3E
42
82
82
82
82
42
3E
ENDCHAR
STARTCHAR Emacron
ENCODING 274
SWIDTH 571 0
DWIDTH 9 0
BBX 7 14 1 0
BITMAP
7C
00
00
FE
80
80
80
80
FC
80
80
80
80
FE
ENDCHAR
STARTCHAR emacron
ENCODING 275
SWIDTH 559 0
DWIDTH 9 0
BBX 7 11 1 0
BITMAP
7C
00
00
38
44
82
FE
80
80
40
3C
ENDCHAR
STARTCHAR Ebreve
ENCODING 276
SWIDTH 571 0
DWIDTH 9 0
BBX 7 15 1 0
BITMAP
2C
38
00
00
FE
80
80
80
80
FC
80
80
80
80
FE
ENDCHAR
STARTCHAR ebreve
ENCODING 277
SWIDTH 559 0
DWIDTH 9 0
BBX 7 12 1 0
BITMAP
68
38
00
00
38
44
82
FE
80
80
40
3C
ENDCHAR
STARTCHAR Edotaccent
ENCODING 278
SWIDTH 571 0
DWIDTH 9 0
BBX 7 15 1 0
BITMAP
10
10
00
00
FE
80
80
80
80
FC
80
80
80
80
FE
ENDCHAR
STARTCHAR edotaccent
ENCODING 279
SWIDTH 559 0
DWIDTH 9 0
BBX 7 12 1 0
BITMAP
08
08
00
00
38
44
82
FE
80
80
40
3C
ENDCHAR
STARTCHAR Eogonek
ENCODING 280
SWIDTH 571 0
DWIDTH 9 0
BBX 8 14 1 -3
BITMAP
FE
80
80
80
80
FC
80
80
80
80
FE
02
04
03
ENDCHAR
STARTCHAR eogonek
ENCODING 281
SWIDTH 559 0
DWIDTH 9 0
BBX 7 11 1 -3
BITMAP
38
44
82
FE
80
80
40
3C
08
10
0C
ENDCHAR
STARTCHAR Ecaron
ENCODING 282
SWIDTH 571 0
DWIDTH 9 0
BBX 7 15 1 0
BITMAP
48
68
10
00
FE
80
80
80
80
FC
80
80
80
80
FE
ENDCHAR
STARTCHAR ecaron
ENCODING 283
SWIDTH 559 0
DWIDTH 9 0
BBX 7 13 1 0
BITMAP
24
34
08
00
00
38
44
82
FE
80
80
40
3C
ENDCHAR
STARTCHAR Gcircumflex
ENCODING 284
SWIDTH 672 0
DWIDTH 11 0
BBX 9 15 1 0
BITMAP
0400
0A00
1100
0000
1F00
2080
4000
8000
8000
8000
8080
8080
4080
2080
1F80
ENDCHAR
STARTCHAR gcircumflex
ENCODING 285
SWIDTH 578 0
DWIDTH 9 0
BBX 7 15 1 -3
BITMAP
08
14
22
00
3E
42
82
82
82
82
42
3E
02
04
F8
ENDCHAR
STARTCHAR Gbreve
ENCODING 286
SWIDTH 672 0
DWIDTH 11 0
BBX 9 15 1 0
BITMAP
1200
0C00
0000
0000
1F00
2080
4000
8000
8000
8000
8080
8080
4080
2080
1F80
ENDCHAR
STARTCHAR gbreve
ENCODING 287
SWIDTH 578 0
DWIDTH 9 0
BBX 7 15 1 -3
BITMAP
24
38
00
00
3E
42
82
82
82
82
42
3E
02
04
F8
ENDCHAR
STARTCHAR Gdotaccent
ENCODING 288
SWIDTH 672 0
DWIDTH 11 0
BBX 9 15 1 0
BITMAP
0400
0400
0000
0000
1F00
2080
4000
8000
8000
8000
8080
8080
4080
2080
1F80
ENDCHAR
STARTCHAR gdotaccent
ENCODING 289
SWIDTH 578 0
DWIDTH 9 0
BBX 7 15 1 -3
BITMAP
08
08
00
00
3E
42
82
82
82
82
42
3E
02
04
F8
ENDCHAR
STARTCHAR Gcommaaccent
ENCODING 290
SWIDTH 672 0
DWIDTH 11 0
BBX 9 14 1 -3
BITMAP
1F00
2080
4000
8000
8000
8000
8080
8080
4080
2080
1F80
0000
0400
0800
ENDCHAR
STARTCHAR gcommaaccent
ENCODING 291
SWIDTH 578 0
DWIDTH 9 0
BBX 7 16 1 -3
BITMAP
08
10
10
00
00
3E
42
82
82
82
82
42
3E
02
04
F8
ENDCHAR
STARTCHAR Hcircumflex
ENCODING 292
SWIDTH 705 0
DWIDTH 11 0
BBX 9 15 1 0
BITMAP
0800
3400
2400
0000
8080
8080
8080
8080
8080
FF80
8080
8080
8080
8080
8080
ENDCHAR
STARTCHAR hcircumflex
ENCODING 293
SWIDTH 571 0
DWIDTH 9 0
BBX 7 15 1 0
BITMAP
20
50
00
80
80
80
80
F8
84
82
82
82
82
82
82
ENDCHAR
STARTCHAR Hbar
ENCODING 294
SWIDTH 731 0
DWIDTH 11 0
BBX 11 11 0 0
BITMAP
4040
4040
FFE0
4040
4040
7FC0
4040
4040
4040
4040
4040
ENDCHAR
STARTCHAR hbar
ENCODING 295
SWIDTH 571 0
DWIDTH 9 0
BBX 8 12 0 0
BITMAP
40
40
F8
40
7C
42
41
41
41
41
41
41
ENDCHAR
STARTCHAR Itilde
ENCODING 296
SWIDTH 269 0
DWIDTH 3 0
BBX 5 15 -1 0
BITMAP
68
98
00
00
20
20
20
20
20
20
20
20
20
20
20
ENDCHAR
STARTCHAR itilde
ENCODING 297
SWIDTH 253 0
DWIDTH 3 0
BBX 5 12 -1 0
BITMAP
68
90
00
00
20
20
20
20
20
20
20
20
ENDCHAR
STARTCHAR Imacron
ENCODING 298
SWIDTH 269 0
DWIDTH 3 0
BBX 3 14 0 0
BITMAP
E0
00
00
40
40
40
40
40
40
40
40
40
40
40
ENDCHAR
STARTCHAR imacron
ENCODING 299
SWIDTH 253 0
DWIDTH 3 0
BBX 3 11 0 0
BITMAP
E0
00
00
40
40
40
40
40
40
40
40
ENDCHAR
STARTCHAR Ibreve
ENCODING 300
SWIDTH 269 0
DWIDTH 3 0
BBX 4 15 -1 0
BITMAP
90
70
00
00
20
20
20
20
20
20
20
20
20
20
20
ENDCHAR
STARTCHAR ibreve
ENCODING 301
SWIDTH 253 0
DWIDTH 3 0
BBX 4 12 0 0
BITMAP
90
60
00
00
40
40
40
40
40
40
40
40
ENDCHAR
STARTCHAR Iogonek
ENCODING 302
SWIDTH 269 0
DWIDTH 3 0
BBX 3 14 0 -3
BITMAP
40
40
40
40
40
40
40
40
40
40
40
40
80
60
ENDCHAR
STARTCHAR iogonek
ENCODING 303
SWIDTH 253 0
DWIDTH 3 0
BBX 3 15 0 -3
BITMAP
40
40
00
00
40
40
40
40
40
40
40
40
40
80
60
ENDCHAR
STARTCHAR Idotaccent
ENCODING 304
SWIDTH 269 0
DWIDTH 3 0
BBX 1 15 1 0
BITMAP
80
80
00
00
80
80
80
80
80
80
80
80
80
80
80
ENDCHAR
STARTCHAR dotlessi
ENCODING 305
SWIDTH 253 0
DWIDTH 3 0
BBX 1 8 1 0
BITMAP
80
80
80
80
80
80
80
80
ENDCHAR
STARTCHAR IJ
ENCODING 306
SWIDTH 768 0
DWIDTH 12 0
BBX 10 11 1 0
BITMAP
8040
8040
8040
8040
8040
8040
8040
8040
8040
88C0
8F80
ENDCHAR
STARTCHAR ij
ENCODING 307
SWIDTH 510 0
DWIDTH 8 0
BBX 5 15 1 -3
BITMAP
88
88
00
00
88
88
88
88
88
88
88
88
08
08
30
ENDCHAR
STARTCHAR Jcircumflex
ENCODING 308
SWIDTH 500 0
DWIDTH 8 0
BBX 9 15 0 0
BITMAP
0200
0500
0880
0000
0200
0200
0200
0200
0200
0200
0200
0200
0200
8400
7800
ENDCHAR
STARTCHAR jcircumflex
ENCODING 309
SWIDTH 253 0
DWIDTH 4 0
BBX 5 15 -1 -3
BITMAP
20
50
88
00
20
20
20
20
20
20
20
20
20
20
C0
ENDCHAR
STARTCHAR Kcommaaccent
ENCODING 310
SWIDTH 629 0
DWIDTH 10 0
BBX 9 14 1 -3
BITMAP
8100
8200
8C00
9000
A000
C000
B000
8800
8600
8100
8080
0000
1000
2000
ENDCHAR
STARTCHAR kcommaaccent
ENCODING 311
SWIDTH 522 0
DWIDTH 8 0
BBX 6 15 1 -3
BITMAP
80
80
80
80
88
90
A0
C0
A0
90
88
84
00
20
60
ENDCHAR
STARTCHAR kgreenlandic
ENCODING 312
SWIDTH 537 0
DWIDTH 9 0
BBX 7 8 1 0
BITMAP
86
98
A0
C0
B0
88
84
82
ENDCHAR
STARTCHAR Lacute
ENCODING 313
SWIDTH 519 0
DWIDTH 8 0
BBX 7 15 1 0
BITMAP
20
60
40
00
80
80
80
80
80
80
80
80
80
80
FE
ENDCHAR
STARTCHAR lacute
ENCODING 314
SWIDTH 273 0
DWIDTH 4 0
BBX 3 15 1 0
BITMAP
40
80
00
80
80
80
80
80
80
80
80
80
80
80
60
ENDCHAR
STARTCHAR Lcommaaccent
ENCODING 315
SWIDTH 519 0
DWIDTH 8 0
BBX 7 14 1 -3
BITMAP
80
80
80
80
80
80
80
80
80
80
FE
00
10
20
ENDCHAR
STARTCHAR lcommaaccent
ENCODING 316
SWIDTH 273 0
DWIDTH 4 0
BBX 4 15 0 -3
BITMAP
40
40
40
40
40
40
40
40
40
40
40
30
00
40
80
ENDCHAR
STARTCHAR Lcaron
ENCODING 317
SWIDTH 519 0
DWIDTH 8 0
BBX 7 11 1 0
BITMAP
90
90
90
90
80
80
80
80
80
80
FE
ENDCHAR
STARTCHAR lcaron
ENCODING 318
SWIDTH 284 0
DWIDTH 5 0
BBX 3 12 1 0
BITMAP
A0
A0
A0
A0
80
80
80
80
80
80
80
60
ENDCHAR
STARTCHAR Ldot
ENCODING 319
SWIDTH 519 0
DWIDTH 8 0
BBX 7 11 1 0
BITMAP
80
80
80
80
88
88
80
80
80
80
FE
ENDCHAR
STARTCHAR ldot
ENCODING 320
SWIDTH 369 0
DWIDTH 6 0
BBX 5 12 1 0
BITMAP
80
80
80
80
80
88
88
80
80
80
80
60
ENDCHAR
STARTCHAR Lslash
ENCODING 321
SWIDTH 537 0
DWIDTH 9 0
BBX 10 11 -1 0
BITMAP
2000
2000
2000
2000
3800
6000
A000
2000
2000
2000
3FC0
ENDCHAR
STARTCHAR lslash
ENCODING 322
SWIDTH 287 0
DWIDTH 4 0
BBX 4 12 0 0
BITMAP
40
40
40
40
50
60
C0
40
40
40
40
30
ENDCHAR
STARTCHAR Nacute
ENCODING 323
SWIDTH 728 0
DWIDTH 11 0
BBX 9 15 1 0
BITMAP
0200
0C00
0800
0000
8080
C080
A080
9080
9080
8880
8480
8280
8280
8180
8080
ENDCHAR
STARTCHAR nacute
ENCODING 324
SWIDTH 574 0
DWIDTH 9 0
BBX 7 12 1 0
BITMAP
08
18
10
00
F8
84
82
82
82
82
82
82
ENDCHAR
STARTCHAR Ncommaaccent
ENCODING 325
SWIDTH 728 0
DWIDTH 11 0
BBX 9 14 1 -3
BITMAP
8080
C080
A080
9080
9080
8880
8480
8280
8280
8180
8080
0000
0800
1000
ENDCHAR
STARTCHAR ncommaaccent
ENCODING 326
SWIDTH 574 0
DWIDTH 9 0
BBX 7 11 1 -3
BITMAP
F8
84
82
82
82
82
82
82
00
10
20
ENDCHAR
STARTCHAR Ncaron
ENCODING 327
SWIDTH 728 0
DWIDTH 11 0
BBX 9 15 1 0
BITMAP
2200
1400
0800
0000
8080
C080
A080
9080
9080
8880
8480
8280
8280
8180
8080
ENDCHAR
STARTCHAR ncaron
ENCODING 328
SWIDTH 574 0
DWIDTH 9 0
BBX 7 12 1 0
BITMAP
48
68
10
00
F8
84
82
82
82
82
82
82
ENDCHAR
STARTCHAR napostrophe
ENCODING 329
SWIDTH 574 0
DWIDTH 9 0
BBX 9 12 -1 0
BITMAP
4000
4000
C000
0000
3E00
2100
2080
2080
2080
2080
2080
2080
ENDCHAR
STARTCHAR Eng
ENCODING 330
SWIDTH 728 0
DWIDTH 12 0
BBX 10 14 1 -3
BITMAP
8040
C040
A040
9040
8840
8440
8240
8140
8140
80C0
8040
0040
0040
0180
ENDCHAR
STARTCHAR eng
ENCODING 331
SWIDTH 574 0
DWIDTH 9 0
BBX 7 11 1 -3
BITMAP
F8
84
82
82
82
82
82
82
02
02
0C
ENDCHAR
STARTCHAR Omacron
ENCODING 332
SWIDTH 778 0
DWIDTH 12 0
BBX 10 14 1 0
BITMAP
3E00
0000
0000
1E00
2100
4080
8040
8040
8040
8040
8040
4080
2100
1E00
ENDCHAR
STARTCHAR omacron
ENCODING 333
SWIDTH 590 0
DWIDTH 10 0
BBX 8 11 1 0
BITMAP
3E
00
00
3C
42
81
81
81
81
42
3C
ENDCHAR
STARTCHAR Obreve
ENCODING 334
SWIDTH 778 0
DWIDTH 12 0
BBX 10 15 1 0
BITMAP
1200
0E00
0000
0000
1E00
2100
4080
8040
8040
8040
8040
8040
4080
2100
1E00
ENDCHAR
STARTCHAR obreve
ENCODING 335
SWIDTH 590 0
DWIDTH 10 0
BBX 8 12 1 0
BITMAP
24
38
00
00
3C
42
81
81
81
81
42
3C
ENDCHAR
STARTCHAR Ohungarumlaut
ENCODING 336
SWIDTH 778 0
DWIDTH 12 0
BBX 10 15 1 0
BITMAP
0900
1B00
1200
0000
1E00
2100
4080
8040
8040
8040
8040
8040
4080
2100
1E00
ENDCHAR
STARTCHAR ohungarumlaut
ENCODING 337
SWIDTH 590 0
DWIDTH 10 0
BBX 8 12 1 0
BITMAP
09
1B
24
00
3C
42
81
81
81
81
42
3C
ENDCHAR
STARTCHAR OE
ENCODING 338
SWIDTH 993 0
DWIDTH 16 0
BBX 14 11 1 0
BITMAP
1FFC
2100
4100
8100
8100
81F8
8100
8100
4100
2100
1FFC
ENDCHAR
STARTCHAR oe
ENCODING 339
SWIDTH 947 0
DWIDTH 15 0
BBX 13 8 1 0
BITMAP
38E0
4510
8208
83F8
8200
8200
4500
38F0
ENDCHAR
STARTCHAR Racute
ENCODING 340
SWIDTH 629 0
DWIDTH 10 0
BBX 9 15 1 0
BITMAP
0800
1800
1000
0000
FC00
8200
8100
8100
8100
8200
FC00
8600
8200
8100
8080
ENDCHAR
STARTCHAR racute
ENCODING 341
SWIDTH 386 0
DWIDTH 6 0
BBX 5 12 1 0
BITMAP
10
30
20
00
F8
80
80
80
80
80
80
80
ENDCHAR
STARTCHAR Rcommaaccent
ENCODING 342
SWIDTH 629 0
DWIDTH 10 0
BBX 9 14 1 -3
BITMAP
FC00
8200
8100
8100
8100
8200
FC00
8600
8200
8100
8080
0000
1000
2000
ENDCHAR
STARTCHAR rcommaaccent
ENCODING 343
SWIDTH 386 0
DWIDTH 6 0
BBX 6 11 0 -3
BITMAP
7C
40
40
40
40
40
40
40
00
40
80
ENDCHAR
STARTCHAR Rcaron
ENCODING 344
SWIDTH 629 0
DWIDTH 10 0
BBX 9 15 1 0
BITMAP
4400
2800
1000
0000
FC00
8200
8100
8100
8100
8200
FC00
8600
8200
8100
8080
ENDCHAR
STARTCHAR rcaron
ENCODING 345
SWIDTH 386 0
DWIDTH 6 0
BBX 5 12 1 0
BITMAP
90
50
20
00
F8
80
80
80
80
80
80
80
ENDCHAR
STARTCHAR Sacute
ENCODING 346
SWIDTH 532 0
DWIDTH 9 0
BBX 7 15 1 0
BITMAP
08
18
20
00
3C
42
80
80
60
18
04
02
02
84
78
ENDCHAR
STARTCHAR sacute
ENCODING 347
SWIDTH 446 0
DWIDTH 7 0
BBX 5 12 1 0
BITMAP
10
30
20
00
78
80
80
60
10
08
08
F0
ENDCHAR
STARTCHAR Scircumflex
ENCODING 348
SWIDTH 532 0
DWIDTH 9 0
BBX 7 15 1 0
BITMAP
10
2C
24
00
3C
42
80
80
60
18
04
02
02
84
78
ENDCHAR
STARTCHAR scircumflex
ENCODING 349
SWIDTH 446 0
DWIDTH 7 0
BBX 5 12 1 0
BITMAP
20
D0
90
00
78
80
80
60
10
08
08
F0
ENDCHAR
STARTCHAR Scedilla
ENCODING 350
SWIDTH 532 0
DWIDTH 9 0
BBX 7 14 1 -3
BITMAP
3C
42
80
80
60
18
04
02
02
84
78
20
10
60
ENDCHAR
STARTCHAR scedilla
ENCODING 351
SWIDTH 446 0
DWIDTH 7 0
BBX 5 11 1 -3
BITMAP
78
80
80
60
10
08
08
F0
40
20
40
ENDCHAR
STARTCHAR Scaron
ENCODING 352
SWIDTH 532 0
DWIDTH 9 0
BBX 7 15 1 0
BITMAP
24
2C
10
00
3C
42
80
80
60
18
04
02
02
84
78
ENDCHAR
STARTCHAR scaron
ENCODING 353
SWIDTH 446 0
DWIDTH 7 0
BBX 5 12 1 0
BITMAP
90
D0
20
00
78
80
80
60
10
08
08
F0
ENDCHAR
STARTCHAR uni0162
ENCODING 354
SWIDTH 565 0
DWIDTH 9 0
BBX 9 14 0 -3
BITMAP
FF80
0800
0800
0800
0800
0800
0800
0800
0800
0800
0800
0800
0800
1000
ENDCHAR
STARTCHAR uni0163
ENCODING 355
SWIDTH 402 0
DWIDTH 6 0
BBX 4 14 1 -3
BITMAP
80
80
80
F0
80
80
80
80
80
80
70
40
20
40
ENDCHAR
STARTCHAR Tcaron
ENCODING 356
SWIDTH 565 0
DWIDTH 9 0
BBX 9 15 0 0
BITMAP
2400
3C00
1800
0000
FF80
0800
0800
0800
0800
0800
0800
0800
0800
0800
0800
ENDCHAR
STARTCHAR tcaron
ENCODING 357
SWIDTH 402 0
DWIDTH 6 0
BBX 4 12 1 0
BITMAP
20
A0
A0
80
F0
80
80
80
80
80
80
70
ENDCHAR
STARTCHAR Tbar
ENCODING 358
SWIDTH 565 0
DWIDTH 9 0
BBX 9 11 0 0
BITMAP
FF80
0800
0800
0800
3E00
0800
0800
0800
0800
0800
0800
ENDCHAR
STARTCHAR tbar
ENCODING 359
SWIDTH 402 0
DWIDTH 6 0
BBX 4 11 1 0
BITMAP
80
80
80
F0
80
80
F0
80
80
80
70
ENDCHAR
STARTCHAR Utilde
ENCODING 360
SWIDTH 688 0
DWIDTH 11 0
BBX 9 15 1 0
BITMAP
3400
2C00
0000
0000
8080
8080
8080
8080
8080
8080
8080
8080
8080
4100
3E00
ENDCHAR
STARTCHAR utilde
ENCODING 361
SWIDTH 574 0
DWIDTH 9 0
BBX 7 12 1 0
BITMAP
64
58
00
00
82
82
82
82
82
82
42
3C
ENDCHAR
STARTCHAR Umacron
ENCODING 362
SWIDTH 688 0
DWIDTH 11 0
BBX 9 14 1 0
BITMAP
7E00
0000
0000
8080
8080
8080
8080
8080
8080
8080
8080
8080
4100
3E00
ENDCHAR
STARTCHAR umacron
ENCODING 363
SWIDTH 574 0
DWIDTH 9 0
BBX 7 11 1 0
BITMAP
7C
00
00
82
82
82
82
82
82
42
3C
ENDCHAR
STARTCHAR Ubreve
ENCODING 364
SWIDTH 688 0
DWIDTH 11 0
BBX 9 15 1 0
BITMAP
3400
1C00
0000
0000
8080
8080
8080
8080
8080
8080
8080
8080
8080
4100
3E00
ENDCHAR
STARTCHAR ubreve
ENCODING 365
SWIDTH 574 0
DWIDTH 9 0
BBX 7 12 1 0
BITMAP
28
38
00
00
82
82
82
82
82
82
42
3C
ENDCHAR
STARTCHAR Uring
ENCODING 366
SWIDTH 688 0
DWIDTH 11 0
BBX 9 16 1 0
BITMAP
1C00
1400
1400
1C00
0000
8080
8080
8080
8080
8080
8080
8080
8080
8080
4100
3E00
ENDCHAR
STARTCHAR uring
ENCODING 367
SWIDTH 574 0
DWIDTH 9 0
BBX 7 13 1 0
BITMAP
38
28
28
38
00
82
82
82
82
82
82
42
3C
ENDCHAR
STARTCHAR Uhungarumlaut
ENCODING 368
SWIDTH 688 0
DWIDTH 11 0
BBX 9 15 1 0
BITMAP
0900
1200
2400
0000
8080
8080
8080
8080
8080
8080
8080
8080
8080
4100
3E00
ENDCHAR
STARTCHAR uhungarumlaut
ENCODING 369
SWIDTH 574 0
DWIDTH 9 0
BBX 7 12 1 0
BITMAP
12
24
48
00
82
82
82
82
82
82
42
3C
ENDCHAR
STARTCHAR Uogonek
ENCODING 370
SWIDTH 688 0
DWIDTH 11 0
BBX 9 14 1 -3
BITMAP
8080
8080
8080
8080
8080
8080
8080
8080
8080
4100
3E00
0400
0800
0600
ENDCHAR
STARTCHAR uogonek
ENCODING 371
SWIDTH 574 0
DWIDTH 9 0
BBX 8 11 1 -3
BITMAP
82
82
82
82
82
82
42
3E
04
04
03
ENDCHAR
STARTCHAR Wcircumflex
ENCODING 372
SWIDTH 929 0
DWIDTH 13 0
BBX 13 15 0 0
BITMAP
0200
0580
0480
0000
8008
8208
4210
4510
4510
4510
28A0
28A0
28A0
1040
1040
ENDCHAR
STARTCHAR wcircumflex
ENCODING 373
SWIDTH 777 0
DWIDTH 13 0
BBX 13 12 0 0
BITMAP
0200
0500
0880
0000
8208
8208
4510
4510
4510
28A0
28A0
1040
ENDCHAR
STARTCHAR Ycircumflex
ENCODING 374
SWIDTH 598 0
DWIDTH 9 0
BBX 9 15 0 0
BITMAP
0800
1400
2200
0000
8080
4100
4100
2200
2200
1400
0800
0800
0800
0800
0800
ENDCHAR
STARTCHAR ycircumflex
ENCODING 375
SWIDTH 497 0
DWIDTH 7 0
BBX 7 15 0 -3
BITMAP
10
28
44
00
82
44
44
44
28
28
10
10
10
20
C0
ENDCHAR
STARTCHAR Ydieresis
ENCODING 376
SWIDTH 598 0
DWIDTH 9 0
BBX 9 15 0 0
BITMAP
1400
1400
0000
0000
8080
4100
4100
2200
2200
1400
0800
0800
0800
0800
0800
ENDCHAR
STARTCHAR Zacute
ENCODING 377
SWIDTH 573 0
DWIDTH 9 0
BBX 7 15 1 0
BITMAP
08
18
10
00
FE
02
04
08
10
10
20
40
40
80
FE
ENDCHAR
STARTCHAR zacute
ENCODING 378
SWIDTH 471 0
DWIDTH 8 0
BBX 6 12 1 0
BITMAP
10
30
20
00
FC
04
08
10
20
40
80
FC
ENDCHAR
STARTCHAR Zdotaccent
ENCODING 379
SWIDTH 573 0
DWIDTH 9 0
BBX 7 15 1 0
BITMAP
10
10
00
00
FE
02
04
08
10
10
20
40
40
80
FE
ENDCHAR
STARTCHAR zdotaccent
ENCODING 380
SWIDTH 471 0
DWIDTH 8 0
BBX 6 12 1 0
BITMAP
10
10
00
00
FC
04
08
10
20
40
80
FC
ENDCHAR
STARTCHAR Zcaron
ENCODING 381
SWIDTH 573 0
DWIDTH 9 0
BBX 7 15 1 0
BITMAP
48
28
10
00
FE
02
04
08
10
10
20
40
40
80
FE
ENDCHAR
STARTCHAR zcaron
ENCODING 382
SWIDTH 471 0
DWIDTH 8 0
BBX 6 12 1 0
BITMAP
48
28
10
00
FC
04
08
10
20
40
80
FC
ENDCHAR
STARTCHAR longs
ENCODING 383
SWIDTH 273 0
DWIDTH 4 0
BBX 5 12 1 0
BITMAP
78
80
80
80
80
80
80
80
80
80
80
80
ENDCHAR
STARTCHAR uni0180
ENCODING 384
SWIDTH 589 0
DWIDTH 9 0
BBX 8 12 0 0
BITMAP
40
40
F8
40
7C
42
41
41
41
41
42
7C
ENDCHAR
STARTCHAR uni0181
ENCODING 385
SWIDTH 744 0
DWIDTH 12 0
BBX 10 11 1 0
BITMAP
7E00
A100
A080
2080
2100
3F00
2080
2040
2040
2080
3F00
ENDCHAR
STARTCHAR uni0182
ENCODING 386
SWIDTH 619 0
DWIDTH 10 0
BBX 8 11 1 0
BITMAP
FE
80
80
80
FC
82
81
81
81
82
FC
ENDCHAR
STARTCHAR uni0183
ENCODING 387
SWIDTH 589 0
DWIDTH 9 0
BBX 7 12 1 0
BITMAP
FC
80
80
80
F8
84
82
82
82
82
84
F8
ENDCHAR
STARTCHAR uni0184
ENCODING 388
SWIDTH 589 0
DWIDTH 9 0
BBX 8 12 0 0
BITMAP
40
C0
40
40
7C
42
41
41
41
41
42
7C
ENDCHAR
STARTCHAR uni0185
ENCODING 389
SWIDTH 620 0
DWIDTH 10 0
BBX 9 11 0 0
BITMAP
4000
C000
4000
4000
7E00
4100
4080
4080
4080
4100
7E00
ENDCHAR
STARTCHAR uni0186
ENCODING 390
SWIDTH 620 0
DWIDTH 10 0
BBX 9 11 0 0
BITMAP
7C00
8200
0100
0080
0080
0080
0080
0080
0100
8200
7C00
ENDCHAR
STARTCHAR uni0187
ENCODING 391
SWIDTH 663 0
DWIDTH 11 0
BBX 11 12 1 0
BITMAP
0060
1F80
2080
4000
8000
8000
8000
8000
8000
4000
2080
1F00
ENDCHAR
STARTCHAR uni0188
ENCODING 392
SWIDTH 508 0
DWIDTH 8 0
BBX 8 10 1 0
BITMAP
03
04
3C
40
80
80
80
80
40
3C
ENDCHAR
STARTCHAR uni0189
ENCODING 393
SWIDTH 726 0
DWIDTH 11 0
BBX 10 11 0 0
BITMAP
7E00
4100
4080
4040
4040
F040
4040
4040
4080
4100
7E00
ENDCHAR
STARTCHAR uni018A
ENCODING 394
SWIDTH 814 0
DWIDTH 13 0
BBX 11 11 1 0
BITMAP
7F00
A080
A040
2020
2020
2020
2020
2020
2040
2080
3F00
ENDCHAR
STARTCHAR uni018B
ENCODING 395
SWIDTH 625 0
DWIDTH 10 0
BBX 8 11 1 0
BITMAP
7F
01
01
01
3F
41
81
81
81
41
3F
ENDCHAR
STARTCHAR uni018C
ENCODING 396
SWIDTH 589 0
DWIDTH 9 0
BBX 7 12 1 0
BITMAP
7E
02
02
02
3E
42
82
82
82
82
42
3E
ENDCHAR
STARTCHAR uni018D
ENCODING 397
SWIDTH 582 0
DWIDTH 9 0
BBX 7 11 1 -3
BITMAP
38
44
82
82
82
82
44
38
08
08
70
ENDCHAR
STARTCHAR uni018E
ENCODING 398
SWIDTH 571 0
DWIDTH 9 0
BBX 6 11 1 0
BITMAP
FC
04
04
04
04
7C
04
04
04
04
FC
ENDCHAR
STARTCHAR uni018F
ENCODING 399
SWIDTH 705 0
DWIDTH 11 0
BBX 9 11 1 0
BITMAP
3C00
4200
0100
0080
0080
FF80
8080
8080
8100
4200
3C00
ENDCHAR
STARTCHAR uni0190
ENCODING 400
SWIDTH 572 0
DWIDTH 9 0
BBX 8 11 1 0
BITMAP
1E
21
40
40
20
3C
40
80
80
41
3E
ENDCHAR
STARTCHAR uni0191
ENCODING 401
SWIDTH 537 0
DWIDTH 9 0
BBX 9 14 -1 -3
BITMAP
3F80
2000
2000
2000
2000
3F00
2000
2000
2000
2000
2000
2000
2000
C000
ENDCHAR
STARTCHAR florin
ENCODING 402
SWIDTH 386 0
DWIDTH 5 0
BBX 6 15 -1 -3
BITMAP
1C
20
20
20
3C
20
20
20
20
20
20
20
20
20
C0
ENDCHAR
STARTCHAR uni0193
ENCODING 403
SWIDTH 672 0
DWIDTH 11 0
BBX 11 12 1 0
BITMAP
0060
1F80
2080
4000
8000
8000
8000
8080
8080
4080
2080
1F80
ENDCHAR
STARTCHAR uni0194
ENCODING 404
SWIDTH 650 0
DWIDTH 10 0
BBX 10 14 0 -3
BITMAP
8040
4080
4080
2100
2100
1200
1200
0C00
0C00
0C00
1200
1200
1200
0C00
ENDCHAR
STARTCHAR uni0195
ENCODING 405
SWIDTH 891 0
DWIDTH 13 0
BBX 11 12 1 0
BITMAP
8000
8000
8000
8000
F020
8820
8420
8420
8420
8420
8240
8180
ENDCHAR
STARTCHAR uni0196
ENCODING 406
SWIDTH 376 0
DWIDTH 6 0
BBX 5 11 1 0
BITMAP
80
80
80
80
80
80
80
80
80
80
78
ENDCHAR
STARTCHAR uni0197
ENCODING 407
SWIDTH 325 0
DWIDTH 5 0
BBX 5 11 0 0
BITMAP
20
20
20
20
20
F8
20
20
20
20
20
ENDCHAR
STARTCHAR uni0198
ENCODING 408
SWIDTH 664 0
DWIDTH 11 0
BBX 9 11 1 0
BITMAP
8300
8480
8800
9000
A000
C000
B000
8800
8600
8100
8080
ENDCHAR
STARTCHAR uni0199
ENCODING 409
SWIDTH 522 0
DWIDTH 8 0
BBX 7 12 1 0
BITMAP
60
80
80
80
84
98
A0
C0
B0
88
84
82
ENDCHAR
STARTCHAR uni019A
ENCODING 410
SWIDTH 287 0
DWIDTH 4 0
BBX 4 12 0 0
BITMAP
40
40
40
40
40
F0
40
40
40
40
40
30
ENDCHAR
STARTCHAR uni019B
ENCODING 411
SWIDTH 510 0
DWIDTH 8 0
BBX 8 12 0 0
BITMAP
E0
14
38
50
08
18
14
24
22
42
42
81
ENDCHAR
STARTCHAR uni019C
ENCODING 412
SWIDTH 975 0
DWIDTH 15 0
BBX 13 11 1 0
BITMAP
8208
8208
8208
8208
8208
8208
8208
8208
8208
4308
7CF8
ENDCHAR
STARTCHAR uni019D
ENCODING 413
SWIDTH 728 0
DWIDTH 12 0
BBX 12 14 -1 -3
BITMAP
2010
3010
2810
2410
2210
2110
2090
2050
2050
2030
2010
2000
2000
C000
ENDCHAR
STARTCHAR uni019E
ENCODING 414
SWIDTH 574 0
DWIDTH 9 0
BBX 7 11 1 -3
BITMAP
F8
84
82
82
82
82
82
82
02
02
02
ENDCHAR
STARTCHAR uni019F
ENCODING 415
SWIDTH 778 0
DWIDTH 12 0
BBX 10 11 1 0
BITMAP
1E00
2100
4080
8040
8040
FFC0
8040
8040
4080
2100
1E00
ENDCHAR
STARTCHAR Ohorn
ENCODING 416
SWIDTH 778 0
DWIDTH 12 0
BBX 10 12 1 0
BITMAP
0040
1E40
6180
4080
8040
8040
8040
8040
8040
4080
6180
1E00
ENDCHAR
STARTCHAR ohorn
ENCODING 417
SWIDTH 590 0
DWIDTH 9 0
BBX 8 10 1 0
BITMAP
01
01
39
46
82
82
82
82
44
38
ENDCHAR
STARTCHAR uni01A2
ENCODING 418
SWIDTH 1024 0
DWIDTH 16 0
BBX 14 11 1 0
BITMAP
1E30
21C8
4084
8044
8044
8044
8044
8044
4084
2104
1E04
ENDCHAR
STARTCHAR uni01A3
ENCODING 419
SWIDTH 821 0
DWIDTH 13 0
BBX 11 11 1 -3
BITMAP
3BC0
4420
8220
8220
8220
8220
4420
3820
0020
0020
0020
ENDCHAR
STARTCHAR uni01A4
ENCODING 420
SWIDTH 710 0
DWIDTH 11 0
BBX 10 11 0 0
BITMAP
7F00
A080
A040
2040
2040
2080
3F00
2000
2000
2000
2000
ENDCHAR
STARTCHAR uni01A5
ENCODING 421
SWIDTH 589 0
DWIDTH 9 0
BBX 7 15 1 -3
BITMAP
60
80
80
80
F8
84
82
82
82
82
84
F8
80
80
80
ENDCHAR
STARTCHAR uni01A6
ENCODING 422
SWIDTH 629 0
DWIDTH 10 0
BBX 10 15 1 -2
BITMAP
8000
8000
FE00
8100
8080
8080
8080
8100
FE00
8200
8100
8100
8080
0080
0040
ENDCHAR
STARTCHAR uni01A7
ENCODING 423
SWIDTH 532 0
DWIDTH 9 0
BBX 7 11 1 0
BITMAP
78
84
02
02
0C
30
40
80
80
42
3C
ENDCHAR
STARTCHAR uni01A8
ENCODING 424
SWIDTH 446 0
DWIDTH 7 0
BBX 5 8 1 0
BITMAP
F0
08
08
30
40
80
80
78
ENDCHAR
STARTCHAR uni01A9
ENCODING 425
SWIDTH 563 0
DWIDTH 9 0
BBX 7 11 1 0
BITMAP
FE
80
40
20
10
08
10
20
40
80
FE
ENDCHAR
STARTCHAR uni01AA
ENCODING 426
SWIDTH 286 0
DWIDTH 5 0
BBX 5 15 -1 -3
BITMAP
60
90
90
70
10
10
10
10
10
10
10
10
10
10
08
ENDCHAR
STARTCHAR uni01AB
ENCODING 427
SWIDTH 402 0
DWIDTH 6 0
BBX 5 14 1 -3
BITMAP
80
80
80
F8
80
80
80
80
80
80
78
08
08
30
ENDCHAR
STARTCHAR uni01AC
ENCODING 428
SWIDTH 592 0
DWIDTH 8 0
BBX 8 11 0 0
BITMAP
7F
88
88
08
08
08
08
08
08
08
08
ENDCHAR
STARTCHAR uni01AD
ENCODING 429
SWIDTH 402 0
DWIDTH 6 0
BBX 5 12 1 0
BITMAP
78
C0
80
80
F8
80
80
80
80
80
80
78
ENDCHAR
STARTCHAR uni01AE
ENCODING 430
SWIDTH 565 0
DWIDTH 9 0
BBX 9 14 0 -3
BITMAP
FF80
0800
0800
0800
0800
0800
0800
0800
0800
0800
0800
0800
0800
0600
ENDCHAR
STARTCHAR Uhorn
ENCODING 431
SWIDTH 710 0
DWIDTH 11 0
BBX 11 13 1 0
BITMAP
0020
0020
80C0
8080
8080
8080
8080
8080
8080
8080
8080
4100
3E00
ENDCHAR
STARTCHAR uhorn
ENCODING 432
SWIDTH 597 0
DWIDTH 10 0
BBX 9 10 1 0
BITMAP
0080
0080
8300
8200
8200
8200
8200
8200
4200
3C00
ENDCHAR
STARTCHAR uni01B1
ENCODING 433
SWIDTH 784 0
DWIDTH 13 0
BBX 11 11 1 0
BITMAP
F1E0
2080
4040
8060
8020
8020
8020
8020
4040
2080
1F00
ENDCHAR
STARTCHAR uni01B2
ENCODING 434
SWIDTH 694 0
DWIDTH 11 0
BBX 9 11 1 0
BITMAP
8600
8100
8080
8080
8080
8080
8080
8080
8100
4200
3C00
ENDCHAR
STARTCHAR uni01B3
ENCODING 435
SWIDTH 672 0
DWIDTH 10 0
BBX 10 11 0 0
BITMAP
80C0
4100
4200
2200
1400
1400
0800
0800
0800
0800
0800
ENDCHAR
STARTCHAR uni01B4
ENCODING 436
SWIDTH 570 0
DWIDTH 9 0
BBX 9 11 0 -3
BITMAP
8180
8200
4200
4400
2400
2400
1800
1800
0800
1000
E000
ENDCHAR
STARTCHAR uni01B5
ENCODING 437
SWIDTH 573 0
DWIDTH 9 0
BBX 7 11 1 0
BITMAP
FE
02
04
08
08
7E
20
20
40
80
FE
ENDCHAR
STARTCHAR uni01B6
ENCODING 438
SWIDTH 471 0
DWIDTH 8 0
BBX 6 8 1 0
BITMAP
FC
04
08
FC
20
40
80
FC
ENDCHAR
STARTCHAR uni01B7
ENCODING 439
SWIDTH 567 0
DWIDTH 9 0
BBX 8 11 0 0
BITMAP
7F
02
04
04
08
1C
02
01
01
82
7C
ENDCHAR
STARTCHAR uni01B8
ENCODING 440
SWIDTH 567 0
DWIDTH 9 0
BBX 8 11 1 0
BITMAP
FE
40
20
10
08
3C
40
80
80
41
3E
ENDCHAR
STARTCHAR uni01B9
ENCODING 441
SWIDTH 471 0
DWIDTH 8 0
BBX 7 11 1 -3
BITMAP
FE
40
20
20
10
38
40
80
80
40
3E
ENDCHAR
STARTCHAR uni01BA
ENCODING 442
SWIDTH 474 0
DWIDTH 8 0
BBX 7 11 0 -3
BITMAP
FE
04
08
10
3C
02
02
0C
70
80
80
ENDCHAR
STARTCHAR uni01BB
ENCODING 443
SWIDTH 545 0
DWIDTH 9 0
BBX 7 11 1 0
BITMAP
7C
82
02
02
02
04
7E
20
40
80
FE
ENDCHAR
STARTCHAR uni01BC
ENCODING 444
SWIDTH 538 0
DWIDTH 9 0
BBX 8 11 0 0
BITMAP
FF
20
20
20
3C
02
01
01
01
82
7C
ENDCHAR
STARTCHAR uni01BD
ENCODING 445
SWIDTH 496 0
DWIDTH 8 0
BBX 6 8 1 0
BITMAP
FC
40
40
78
04
04
04
F8
ENDCHAR
STARTCHAR uni01BE
ENCODING 446
SWIDTH 463 0
DWIDTH 7 0
BBX 5 11 1 0
BITMAP
80
80
80
F0
80
80
60
10
08
08
F0
ENDCHAR
STARTCHAR uni01BF
ENCODING 447
SWIDTH 571 0
DWIDTH 9 0
BBX 7 11 1 -3
BITMAP
78
84
82
82
82
82
84
98
E0
80
80
ENDCHAR
STARTCHAR uni01C0
ENCODING 448
SWIDTH 279 0
DWIDTH 4 0
BBX 1 16 1 -3
BITMAP
80
80
80
80
80
80
80
80
80
80
80
80
80
80
80
80
ENDCHAR
STARTCHAR uni01C1
ENCODING 449
SWIDTH 483 0
DWIDTH 8 0
BBX 4 16 1 -3
BITMAP
90
90
90
90
90
90
90
90
90
90
90
90
90
90
90
90
ENDCHAR
STARTCHAR uni01C2
ENCODING 450
SWIDTH 569 0
DWIDTH 9 0
BBX 7 16 1 -3
BITMAP
10
10
10
10
10
10
FE
10
10
FE
10
10
10
10
10
10
ENDCHAR
STARTCHAR uni01C3
ENCODING 451
SWIDTH 276 0
DWIDTH 4 0
BBX 1 11 1 0
BITMAP
80
80
80
80
80
80
80
00
00
80
80
ENDCHAR
STARTCHAR uni01C4
ENCODING 452
SWIDTH 1290 0
DWIDTH 21 0
BBX 18 15 1 0
BITMAP
000440
000280
000100
000000
FC1FC0
820040
810080
808080
808100
808200
808200
808400
810800
820800
FC1FC0
ENDCHAR
STARTCHAR uni01C5
ENCODING 453
SWIDTH 1188 0
DWIDTH 19 0
BBX 17 12 1 0
BITMAP
000880
FC0500
820200
810000
809F80
808080
808100
808200
808400
810400
820800
FC1F80
ENDCHAR
STARTCHAR uni01C6
ENCODING 454
SWIDTH 1064 0
DWIDTH 17 0
BBX 15 12 1 0
BITMAP
0222
0214
0208
0200
3E7E
4202
8204
8208
8210
8210
4220
3E7E
ENDCHAR
STARTCHAR uni01C7
ENCODING 455
SWIDTH 1018 0
DWIDTH 16 0
BBX 14 11 1 0
BITMAP
8004
8004
8004
8004
8004
8004
8004
8004
8004
808C
FEF8
ENDCHAR
STARTCHAR uni01C8
ENCODING 456
SWIDTH 776 0
DWIDTH 12 0
BBX 9 15 1 -3
BITMAP
0080
8080
8000
8000
8080
8080
8080
8080
8080
8080
8080
FE80
0080
0080
0380
ENDCHAR
STARTCHAR uni01C9
ENCODING 457
SWIDTH 530 0
DWIDTH 8 0
BBX 6 15 1 -3
BITMAP
8C
8C
80
80
88
88
88
88
88
88
88
68
08
08
38
ENDCHAR
STARTCHAR uni01CA
ENCODING 458
SWIDTH 1227 0
DWIDTH 20 0
BBX 18 11 1 0
BITMAP
808040
C08040
A08040
908040
908040
888040
848040
828040
828040
819080
808F00
ENDCHAR
STARTCHAR uni01CB
ENCODING 459
SWIDTH 985 0
DWIDTH 16 0
BBX 13 15 1 -3
BITMAP
0008
8088
C080
A080
9088
9088
8888
8488
8288
8288
8188
8088
0008
0018
0030
ENDCHAR
STARTCHAR uni01CC
ENCODING 460
SWIDTH 831 0
DWIDTH 13 0
BBX 10 15 1 -3
BITMAP
0040
0040
0000
0000
F840
8440
8240
8240
8240
8240
8240
8240
0040
0040
0180
ENDCHAR
STARTCHAR uni01CD
ENCODING 461
SWIDTH 663 0
DWIDTH 11 0
BBX 11 15 0 0
BITMAP
1100
0A00
0400
0000
0400
0A00
0A00
1100
1100
2080
2080
3F80
4040
4040
8020
ENDCHAR
STARTCHAR uni01CE
ENCODING 462
SWIDTH 522 0
DWIDTH 8 0
BBX 6 12 1 0
BITMAP
44
28
10
00
78
04
04
7C
84
84
84
7C
ENDCHAR
STARTCHAR uni01CF
ENCODING 463
SWIDTH 269 0
DWIDTH 3 0
BBX 5 15 -1 0
BITMAP
88
50
20
00
20
20
20
20
20
20
20
20
20
20
20
ENDCHAR
STARTCHAR uni01D0
ENCODING 464
SWIDTH 253 0
DWIDTH 3 0
BBX 5 12 -1 0
BITMAP
88
50
20
00
20
20
20
20
20
20
20
20
ENDCHAR
STARTCHAR uni01D1
ENCODING 465
SWIDTH 778 0
DWIDTH 12 0
BBX 10 15 1 0
BITMAP
2200
1400
0800
0000
1E00
2100
4080
8040
8040
8040
8040
8040
4080
2100
1E00
ENDCHAR
STARTCHAR uni01D2
ENCODING 466
SWIDTH 590 0
DWIDTH 10 0
BBX 8 12 1 0
BITMAP
22
14
08
00
3C
42
81
81
81
81
42
3C
ENDCHAR
STARTCHAR uni01D3
ENCODING 467
SWIDTH 688 0
DWIDTH 11 0
BBX 9 15 1 0
BITMAP
2400
3C00
1800
0000
8080
8080
8080
8080
8080
8080
8080
8080
8080
4100
3E00
ENDCHAR
STARTCHAR uni01D4
ENCODING 468
SWIDTH 574 0
DWIDTH 9 0
BBX 7 12 1 0
BITMAP
48
78
30
00
82
82
82
82
82
82
42
3C
ENDCHAR
STARTCHAR uni01D5
ENCODING 469
SWIDTH 688 0
DWIDTH 11 0
BBX 9 16 1 0
BITMAP
3E00
0000
2400
2400
0000
8080
8080
8080
8080
8080
8080
8080
8080
8080
4100
3E00
ENDCHAR
STARTCHAR uni01D6
ENCODING 470
SWIDTH 574 0
DWIDTH 9 0
BBX 7 13 1 0
BITMAP
3C
00
24
24
00
82
82
82
82
82
82
42
3C
ENDCHAR
STARTCHAR uni01D7
ENCODING 471
SWIDTH 688 0
DWIDTH 11 0
BBX 9 16 1 0
BITMAP
0400
0C00
4A00
4200
0000
8080
8080
8080
8080
8080
8080
8080
8080
8080
4100
3E00
ENDCHAR
STARTCHAR uni01D8
ENCODING 472
SWIDTH 574 0
DWIDTH 9 0
BBX 7 15 1 0
BITMAP
0C
18
10
00
24
24
00
82
82
82
82
82
82
42
3C
ENDCHAR
STARTCHAR uni01D9
ENCODING 473
SWIDTH 688 0
DWIDTH 11 0
BBX 9 17 1 0
BITMAP
1200
0C00
0000
1100
1100
0000
8080
8080
8080
8080
8080
8080
8080
8080
8080
4100
3E00
ENDCHAR
STARTCHAR uni01DA
ENCODING 474
SWIDTH 574 0
DWIDTH 9 0
BBX 7 14 1 0
BITMAP
48
30
00
44
44
00
82
82
82
82
82
82
42
3C
ENDCHAR
STARTCHAR uni01DB
ENCODING 475
SWIDTH 688 0
DWIDTH 11 0
BBX 9 16 1 0
BITMAP
1000
1800
4A00
4200
0000
8080
8080
8080
8080
8080
8080
8080
8080
8080
4100
3E00
ENDCHAR
STARTCHAR uni01DC
ENCODING 476
SWIDTH 574 0
DWIDTH 9 0
BBX 7 15 1 0
BITMAP
20
30
10
00
24
24
00
82
82
82
82
82
82
42
3C
ENDCHAR
STARTCHAR uni01DD
ENCODING 477
SWIDTH 559 0
DWIDTH 9 0
BBX 7 8 1 0
BITMAP
78
04
02
02
FE
82
44
38
ENDCHAR
STARTCHAR uni01DE
ENCODING 478
SWIDTH 663 0
DWIDTH 11 0
BBX 11 16 0 0
BITMAP
1E00
0000
1200
1200
0000
0400
0A00
0A00
1100
1100
2080
2080
3F80
4040
4040
8020
ENDCHAR
STARTCHAR uni01DF
ENCODING 479
SWIDTH 522 0
DWIDTH 8 0
BBX 6 13 1 0
BITMAP
78
00
48
48
00
78
04
04
7C
84
84
84
7C
ENDCHAR
STARTCHAR uni01E0
ENCODING 480
SWIDTH 663 0
DWIDTH 11 0
BBX 11 16 0 0
BITMAP
0E00
0000
0400
0400
0000
0400
0A00
0A00
1100
1100
2080
2080
3F80
4040
4040
8020
ENDCHAR
STARTCHAR uni01E1
ENCODING 481
SWIDTH 522 0
DWIDTH 8 0
BBX 6 13 1 0
BITMAP
38
00
10
10
00
78
04
04
7C
84
84
84
7C
ENDCHAR
STARTCHAR uni01E2
ENCODING 482
SWIDTH 935 0
DWIDTH 15 0
BBX 14 14 0 0
BITMAP
03E0
0000
0000
00FC
0180
0280
0480
0480
08F8
1080
1F80
2080
4080
80FC
ENDCHAR
STARTCHAR uni01E3
ENCODING 483
SWIDTH 859 0
DWIDTH 14 0
BBX 12 11 1 0
BITMAP
0F80
0000
0000
79C0
0620
0410
7FF0
8400
8400
8600
79E0
ENDCHAR
STARTCHAR uni01E4
ENCODING 484
SWIDTH 702 0
DWIDTH 11 0
BBX 10 11 1 0
BITMAP
1F00
2080
4000
8000
8000
8080
8080
83C0
4080
2080
1F80
ENDCHAR
STARTCHAR uni01E5
ENCODING 485
SWIDTH 590 0
DWIDTH 9 0
BBX 8 11 1 -3
BITMAP
3E
42
82
82
8F
82
42
3E
02
04
F8
ENDCHAR
STARTCHAR Gcaron
ENCODING 486
SWIDTH 672 0
DWIDTH 11 0
BBX 9 15 1 0
BITMAP
1100
0A00
0400
0000
1F00
2080
4000
8000
8000
8000
8080
8080
4080
2080
1F80
ENDCHAR
STARTCHAR gcaron
ENCODING 487
SWIDTH 578 0
DWIDTH 9 0
BBX 7 15 1 -3
BITMAP
24
34
08
00
3E
42
82
82
82
82
42
3E
02
04
F8
ENDCHAR
STARTCHAR uni01E8
ENCODING 488
SWIDTH 629 0
DWIDTH 10 0
BBX 9 15 1 0
BITMAP
4400
2800
1000
0000
8100
8200
8C00
9000
A000
C000
B000
8800
8600
8100
8080
ENDCHAR
STARTCHAR uni01E9
ENCODING 489
SWIDTH 522 0
DWIDTH 8 0
BBX 6 15 1 0
BITMAP
A0
40
00
80
80
80
80
88
90
A0
C0
A0
90
88
84
ENDCHAR
STARTCHAR uni01EA
ENCODING 490
SWIDTH 778 0
DWIDTH 12 0
BBX 10 14 1 -3
BITMAP
1E00
6180
4080
8040
8040
8040
8040
8040
4080
2180
1E00
0400
0400
0300
ENDCHAR
STARTCHAR uni01EB
ENCODING 491
SWIDTH 590 0
DWIDTH 9 0
BBX 7 11 1 -3
BITMAP
38
44
82
82
82
82
44
38
10
10
0C
ENDCHAR
STARTCHAR uni01EC
ENCODING 492
SWIDTH 778 0
DWIDTH 12 0
BBX 10 17 1 -3
BITMAP
3E00
0000
0000
1E00
6180
4080
8040
8040
8040
8040
8040
4080
2180
1E00
0400
0400
0300
ENDCHAR
STARTCHAR uni01ED
ENCODING 493
SWIDTH 590 0
DWIDTH 9 0
BBX 7 14 1 -3
BITMAP
7C
00
00
38
44
82
82
82
82
44
38
10
10
0C
ENDCHAR
STARTCHAR uni01EE
ENCODING 494
SWIDTH 567 0
DWIDTH 9 0
BBX 8 15 0 0
BITMAP
24
3C
10
00
7F
02
04
04
08
1C
02
01
01
82
7C
ENDCHAR
STARTCHAR uni01EF
ENCODING 495
SWIDTH 471 0
DWIDTH 8 0
BBX 7 15 0 -3
BITMAP
88
50
20
00
FE
02
04
08
10
38
04
02
02
04
F8
ENDCHAR
STARTCHAR uni01F0
ENCODING 496
SWIDTH 253 0
DWIDTH 4 0
BBX 5 15 -1 -3
BITMAP
88
50
20
00
20
20
20
20
20
20
20
20
20
20
C0
ENDCHAR
STARTCHAR uni01F1
ENCODING 497
SWIDTH 1290 0
DWIDTH 21 0
BBX 18 11 1 0
BITMAP
FC1FC0
820040
810080
808080
808100
808200
808200
808400
810800
820800
FC1FC0
ENDCHAR
STARTCHAR uni01F2
ENCODING 498
SWIDTH 1188 0
DWIDTH 19 0
BBX 17 11 1 0
BITMAP
FC0000
820000
810000
809F80
808080
808100
808200
808400
810400
820800
FC1F80
ENDCHAR
STARTCHAR uni01F3
ENCODING 499
SWIDTH 1064 0
DWIDTH 17 0
BBX 15 12 1 0
BITMAP
0200
0200
0200
0200
3E7E
4202
8204
8208
8210
8210
4220
3E7E
ENDCHAR
STARTCHAR uni01F4
ENCODING 500
SWIDTH 672 0
DWIDTH 11 0
BBX 9 15 1 0
BITMAP
0200
0400
0800
0000
1F00
2080
4000
8000
8000
8000
8080
8080
4080
2080
1F80
ENDCHAR
STARTCHAR uni01F5
ENCODING 501
SWIDTH 578 0
DWIDTH 9 0
BBX 7 15 1 -3
BITMAP
08
18
10
00
3E
42
82
82
82
82
42
3E
02
04
F8
ENDCHAR
STARTCHAR uni01F6
ENCODING 502
SWIDTH 1057 0
DWIDTH 17 0
BBX 14 11 1 0
BITMAP
8100
8100
8100
8104
8104
FF04
8104
8104
8104
8104
80F8
ENDCHAR
STARTCHAR uni01F7
ENCODING 503
SWIDTH 643 0
DWIDTH 10 0
BBX 8 14 1 -3
BITMAP
7C
82
81
81
81
81
82
82
8C
B0
C0
80
80
80
ENDCHAR
STARTCHAR uni01F8
ENCODING 504
SWIDTH 728 0
DWIDTH 11 0
BBX 9 15 1 0
BITMAP
1000
0800
0400
0000
8080
C080
A080
9080
9080
8880
8480
8280
8280
8180
8080
ENDCHAR
STARTCHAR uni01F9
ENCODING 505
SWIDTH 574 0
DWIDTH 9 0
BBX 7 12 1 0
BITMAP
20
30
08
00
F8
84
82
82
82
82
82
82
ENDCHAR
STARTCHAR Aringacute
ENCODING 506
SWIDTH 663 0
DWIDTH 11 0
BBX 11 16 0 0
BITMAP
0600
0800
0400
0A00
0A00
0400
0A00
0A00
1100
1100
2080
2080
3F80
4040
4040
8020
ENDCHAR
STARTCHAR aringacute
ENCODING 507
SWIDTH 522 0
DWIDTH 8 0
BBX 6 15 1 0
BITMAP
18
70
38
48
48
38
00
78
04
04
7C
84
84
84
7C
ENDCHAR
STARTCHAR AEacute
ENCODING 508
SWIDTH 935 0
DWIDTH 15 0
BBX 14 15 0 0
BITMAP
0020
0040
0080
0000
00FC
0180
0280
0480
0480
08F8
1080
1F80
2080
4080
80FC
ENDCHAR
STARTCHAR aeacute
ENCODING 509
SWIDTH 859 0
DWIDTH 14 0
BBX 12 12 1 0
BITMAP
0200
0600
0400
0000
79C0
0620
0410
7FF0
8400
8400
8600
79E0
ENDCHAR
STARTCHAR Oslashacute
ENCODING 510
SWIDTH 778 0
DWIDTH 12 0
BBX 10 15 1 0
BITMAP
0200
0600
0800
0000
1E80
2100
4180
8240
8440
8840
8840
9040
6080
2100
5E00
ENDCHAR
STARTCHAR oslashacute
ENCODING 511
SWIDTH 590 0
DWIDTH 10 0
BBX 8 12 1 0
BITMAP
08
18
10
00
3D
42
85
89
91
A1
42
BC
ENDCHAR
STARTCHAR uni0200
ENCODING 512
SWIDTH 663 0
DWIDTH 11 0
BBX 11 15 0 0
BITMAP
2400
3600
0900
0000
0400
0A00
0A00
1100
1100
2080
2080
3F80
4040
4040
8020
ENDCHAR
STARTCHAR uni0201
ENCODING 513
SWIDTH 522 0
DWIDTH 8 0
BBX 6 12 1 0
BITMAP
90
D8
48
00
78
04
04
7C
84
84
84
7C
ENDCHAR
STARTCHAR uni0202
ENCODING 514
SWIDTH 663 0
DWIDTH 11 0
BBX 11 15 0 0
BITMAP
0E00
1200
0000
0000
0400
0A00
0A00
1100
1100
2080
2080
3F80
4040
4040
8020
ENDCHAR
STARTCHAR uni0203
ENCODING 515
SWIDTH 522 0
DWIDTH 8 0
BBX 6 12 1 0
BITMAP
38
48
00
00
78
04
04
7C
84
84
84
7C
ENDCHAR
STARTCHAR uni0204
ENCODING 516
SWIDTH 571 0
DWIDTH 9 0
BBX 7 15 1 0
BITMAP
48
6C
24
00
FE
80
80
80
80
FC
80
80
80
80
FE
ENDCHAR
STARTCHAR uni0205
ENCODING 517
SWIDTH 559 0
DWIDTH 9 0
BBX 7 12 1 0
BITMAP
90
48
24
00
38
44
82
FE
80
80
40
3C
ENDCHAR
STARTCHAR uni0206
ENCODING 518
SWIDTH 571 0
DWIDTH 9 0
BBX 7 15 1 0
BITMAP
38
24
00
00
FE
80
80
80
80
FC
80
80
80
80
FE
ENDCHAR
STARTCHAR uni0207
ENCODING 519
SWIDTH 559 0
DWIDTH 9 0
BBX 7 12 1 0
BITMAP
38
2C
00
00
38
44
82
FE
80
80
40
3C
ENDCHAR
STARTCHAR uni0208
ENCODING 520
SWIDTH 269 0
DWIDTH 3 0
BBX 5 15 -2 0
BITMAP
90
D8
48
00
10
10
10
10
10
10
10
10
10
10
10
ENDCHAR
STARTCHAR uni0209
ENCODING 521
SWIDTH 253 0
DWIDTH 3 0
BBX 5 12 -2 0
BITMAP
90
D8
48
00
10
10
10
10
10
10
10
10
ENDCHAR
STARTCHAR uni020A
ENCODING 522
SWIDTH 269 0
DWIDTH 3 0
BBX 4 15 -1 0
BITMAP
70
90
00
00
20
20
20
20
20
20
20
20
20
20
20
ENDCHAR
STARTCHAR uni020B
ENCODING 523
SWIDTH 253 0
DWIDTH 3 0
BBX 4 12 -1 0
BITMAP
60
90
00
00
20
20
20
20
20
20
20
20
ENDCHAR
STARTCHAR uni020C
ENCODING 524
SWIDTH 778 0
DWIDTH 12 0
BBX 10 15 1 0
BITMAP
2400
3600
1200
0000
1E00
2100
4080
8040
8040
8040
8040
8040
4080
2100
1E00
ENDCHAR
STARTCHAR uni020D
ENCODING 525
SWIDTH 590 0
DWIDTH 10 0
BBX 8 12 1 0
BITMAP
90
48
24
00
3C
42
81
81
81
81
42
3C
ENDCHAR
STARTCHAR uni020E
ENCODING 526
SWIDTH 778 0
DWIDTH 12 0
BBX 10 15 1 0
BITMAP
0E00
1200
0000
0000
1E00
2100
4080
8040
8040
8040
8040
8040
4080
2100
1E00
ENDCHAR
STARTCHAR uni020F
ENCODING 527
SWIDTH 590 0
DWIDTH 10 0
BBX 8 12 1 0
BITMAP
38
24
00
00
3C
42
81
81
81
81
42
3C
ENDCHAR
STARTCHAR uni0210
ENCODING 528
SWIDTH 629 0
DWIDTH 10 0
BBX 9 15 1 0
BITMAP
9000
4800
2400
0000
FC00
8200
8100
8100
8100
8200
FC00
8600
8200
8100
8080
ENDCHAR
STARTCHAR uni0211
ENCODING 529
SWIDTH 386 0
DWIDTH 6 0
BBX 6 12 0 0
BITMAP
90
48
24
00
7C
40
40
40
40
40
40
40
ENDCHAR
STARTCHAR uni0212
ENCODING 530
SWIDTH 629 0
DWIDTH 10 0
BBX 9 15 1 0
BITMAP
3800
2400
0000
0000
FC00
8200
8100
8100
8100
8200
FC00
8600
8200
8100
8080
ENDCHAR
STARTCHAR uni0213
ENCODING 531
SWIDTH 386 0
DWIDTH 6 0
BBX 5 12 1 0
BITMAP
70
48
00
00
F8
80
80
80
80
80
80
80
ENDCHAR
STARTCHAR uni0214
ENCODING 532
SWIDTH 688 0
DWIDTH 11 0
BBX 9 15 1 0
BITMAP
4800
6C00
1200
0000
8080
8080
8080
8080
8080
8080
8080
8080
8080
4100
3E00
ENDCHAR
STARTCHAR uni0215
ENCODING 533
SWIDTH 574 0
DWIDTH 9 0
BBX 7 12 1 0
BITMAP
90
D8
24
00
82
82
82
82
82
82
42
3C
ENDCHAR
STARTCHAR uni0216
ENCODING 534
SWIDTH 688 0
DWIDTH 11 0
BBX 9 15 1 0
BITMAP
1C00
1400
0000
0000
8080
8080
8080
8080
8080
8080
8080
8080
8080
4100
3E00
ENDCHAR
STARTCHAR uni0217
ENCODING 535
SWIDTH 574 0
DWIDTH 9 0
BBX 7 12 1 0
BITMAP
38
28
00
00
82
82
82
82
82
82
42
3C
ENDCHAR
STARTCHAR Scommaaccent
ENCODING 536
SWIDTH 532 0
DWIDTH 9 0
BBX 7 14 1 -3
BITMAP
3C
42
80
80
60
18
04
02
02
84
78
00
10
20
ENDCHAR
STARTCHAR scommaaccent
ENCODING 537
SWIDTH 446 0
DWIDTH 7 0
BBX 5 11 1 -3
BITMAP
78
80
80
60
10
08
08
F0
00
40
C0
ENDCHAR
STARTCHAR uni021A
ENCODING 538
SWIDTH 565 0
DWIDTH 9 0
BBX 9 14 0 -3
BITMAP
FF80
0800
0800
0800
0800
0800
0800
0800
0800
0800
0800
0000
0800
1800
ENDCHAR
STARTCHAR uni021B
ENCODING 539
SWIDTH 402 0
DWIDTH 6 0
BBX 4 14 1 -3
BITMAP
80
80
80
F0
80
80
80
80
80
80
70
00
20
40
ENDCHAR
STARTCHAR uni021C
ENCODING 540
SWIDTH 535 0
DWIDTH 9 0
BBX 8 14 0 -3
BITMAP
FC
02
01
01
01
02
3C
02
01
01
01
01
06
F8
ENDCHAR
STARTCHAR uni021D
ENCODING 541
SWIDTH 436 0
DWIDTH 7 0
BBX 6 11 0 -3
BITMAP
F0
08
04
04
0C
30
08
04
04
08
F0
ENDCHAR
STARTCHAR uni021E
ENCODING 542
SWIDTH 705 0
DWIDTH 11 0
BBX 9 15 1 0
BITMAP
2400
3400
0800
0000
8080
8080
8080
8080
8080
FF80
8080
8080
8080
8080
8080
ENDCHAR
STARTCHAR uni021F
ENCODING 543
SWIDTH 571 0
DWIDTH 9 0
BBX 7 15 1 0
BITMAP
A0
40
00
80
80
80
80
F8
84
82
82
82
82
82
82
ENDCHAR
STARTCHAR uni0220
ENCODING 544
SWIDTH 676 0
DWIDTH 11 0
BBX 9 14 1 -3
BITMAP
FE00
8100
8080
8080
8080
8080
8080
8080
8080
8080
8080
0080
0080
0080
ENDCHAR
STARTCHAR uni0221
ENCODING 545
SWIDTH 727 0
DWIDTH 12 0
BBX 11 15 1 -3
BITMAP
0200
0200
0200
0200
3E00
4200
8200
8200
8200
8200
43C0
3E20
0220
0620
05C0
ENDCHAR
STARTCHAR uni0222
ENCODING 546
SWIDTH 670 0
DWIDTH 11 0
BBX 9 11 1 0
BITMAP
4100
4100
4100
4100
2200
3E00
4100
8080
8080
4100
3E00
ENDCHAR
STARTCHAR uni0223
ENCODING 547
SWIDTH 591 0
DWIDTH 9 0
BBX 7 12 1 0
BITMAP
44
44
44
44
44
38
44
82
82
82
44
38
ENDCHAR
STARTCHAR uni0224
ENCODING 548
SWIDTH 573 0
DWIDTH 9 0
BBX 7 14 1 -3
BITMAP
FE
02
04
08
10
10
20
40
40
80
FE
02
02
0C
ENDCHAR
STARTCHAR uni0225
ENCODING 549
SWIDTH 471 0
DWIDTH 8 0
BBX 6 11 1 -3
BITMAP
FC
04
08
10
20
40
80
FC
04
04
18
ENDCHAR
STARTCHAR uni0226
ENCODING 550
SWIDTH 663 0
DWIDTH 11 0
BBX 11 15 0 0
BITMAP
0400
0400
0000
0000
0400
0A00
0A00
1100
1100
2080
2080
3F80
4040
4040
8020
ENDCHAR
STARTCHAR uni0227
ENCODING 551
SWIDTH 522 0
DWIDTH 8 0
BBX 6 12 1 0
BITMAP
10
10
00
00
78
04
04
7C
84
84
84
7C
ENDCHAR
STARTCHAR uni0228
ENCODING 552
SWIDTH 571 0
DWIDTH 9 0
BBX 7 14 1 -3
BITMAP
FE
80
80
80
80
FC
80
80
80
80
FE
10
10
60
ENDCHAR
STARTCHAR uni0229
ENCODING 553
SWIDTH 559 0
DWIDTH 9 0
BBX 7 11 1 -3
BITMAP
38
44
82
FE
80
80
40
3C
10
10
60
ENDCHAR
STARTCHAR uni022A
ENCODING 554
SWIDTH 778 0
DWIDTH 12 0
BBX 10 16 1 0
BITMAP
1E00
0000
1200
1200
0000
1E00
2100
4080
8040
8040
8040
8040
8040
4080
2100
1E00
ENDCHAR
STARTCHAR uni022B
ENCODING 555
SWIDTH 590 0
DWIDTH 10 0
BBX 8 13 1 0
BITMAP
3C
00
24
24
00
3C
42
81
81
81
81
42
3C
ENDCHAR
STARTCHAR uni022C
ENCODING 556
SWIDTH 778 0
DWIDTH 12 0
BBX 10 16 1 0
BITMAP
3E00
0000
1A00
2600
0000
1E00
2100
4080
8040
8040
8040
8040
8040
4080
2100
1E00
ENDCHAR
STARTCHAR uni022D
ENCODING 557
SWIDTH 590 0
DWIDTH 10 0
BBX 8 13 1 0
BITMAP
3E
00
32
2C
00
3C
42
81
81
81
81
42
3C
ENDCHAR
STARTCHAR uni022E
ENCODING 558
SWIDTH 778 0
DWIDTH 12 0
BBX 10 15 1 0
BITMAP
0800
0800
0000
0000
1E00
2100
4080
8040
8040
8040
8040
8040
4080
2100
1E00
ENDCHAR
STARTCHAR uni022F
ENCODING 559
SWIDTH 590 0
DWIDTH 10 0
BBX 8 12 1 0
BITMAP
08
08
00
00
3C
42
81
81
81
81
42
3C
ENDCHAR
STARTCHAR uni0230
ENCODING 560
SWIDTH 778 0
DWIDTH 12 0
BBX 10 16 1 0
BITMAP
1C00
0000
0800
0800
0000
1E00
2100
4080
8040
8040
8040
8040
8040
4080
2100
1E00
ENDCHAR
STARTCHAR uni0231
ENCODING 561
SWIDTH 590 0
DWIDTH 10 0
BBX 8 13 1 0
BITMAP
1C
00
08
08
00
3C
42
81
81
81
81
42
3C
ENDCHAR
STARTCHAR uni0232
ENCODING 562
SWIDTH 598 0
DWIDTH 9 0
BBX 9 14 0 0
BITMAP
3E00
0000
0000
8080
4100
4100
2200
2200
1400
0800
0800
0800
0800
0800
ENDCHAR
STARTCHAR uni0233
ENCODING 563
SWIDTH 497 0
DWIDTH 7 0
BBX 7 14 0 -3
BITMAP
7C
00
00
82
44
44
44
28
28
10
10
10
20
C0
ENDCHAR
STARTCHAR uni0234
ENCODING 564
SWIDTH 410 0
DWIDTH 7 0
BBX 7 15 0 -3
BITMAP
20
20
20
20
20
20
20
20
20
20
3C
22
22
62
9C
ENDCHAR
STARTCHAR uni0235
ENCODING 565
SWIDTH 718 0
DWIDTH 10 0
BBX 9 11 1 -3
BITMAP
F800
8800
8400
8400
8400
8400
8400
8700
0480
0C80
1300
ENDCHAR
STARTCHAR uni0236
ENCODING 566
SWIDTH 410 0
DWIDTH 7 0
BBX 7 15 0 -3
BITMAP
20
20
20
20
3C
20
20
20
20
20
3C
22
22
62
9C
ENDCHAR
STARTCHAR dotlessj
ENCODING 567
SWIDTH 253 0
DWIDTH 4 0
BBX 3 11 -1 -3
BITMAP
20
20
20
20
20
20
20
20
20
20
C0
ENDCHAR
STARTCHAR uni0238
ENCODING 568
SWIDTH 925 0
DWIDTH 13 0
BBX 11 12 1 0
BITMAP
0400
0400
0400
0400
3F80
4440
8420
8420
8420
8420
4440
3F80
ENDCHAR
STARTCHAR uni0239
ENCODING 569
SWIDTH 925 0
DWIDTH 13 0
BBX 11 11 1 -3
BITMAP
3F80
4440
8420
8420
8420
8420
4440
3F80
0400
0400
0400
ENDCHAR
STARTCHAR uni023A
ENCODING 570
SWIDTH 663 0
DWIDTH 11 0
BBX 11 14 0 -2
BITMAP
0080
0500
0500
0A00
0A00
1300
1300
2480
3F80
4440
4840
8820
0800
1000
ENDCHAR
STARTCHAR uni023B
ENCODING 571
SWIDTH 641 0
DWIDTH 10 0
BBX 9 13 1 -1
BITMAP
0100
1F00
2280
4200
8400
8400
8800
8800
9000
5000
2080
3F00
4000
ENDCHAR
STARTCHAR uni023C
ENCODING 572
SWIDTH 477 0
DWIDTH 8 0
BBX 7 10 1 -1
BITMAP
04
3E
44
88
88
90
90
50
3E
20
ENDCHAR
STARTCHAR uni023D
ENCODING 573
SWIDTH 532 0
DWIDTH 8 0
BBX 8 11 0 0
BITMAP
40
40
40
40
40
F0
40
40
40
40
7F
ENDCHAR
STARTCHAR uni023E
ENCODING 574
SWIDTH 620 0
DWIDTH 10 0
BBX 10 13 0 -1
BITMAP
0040
FF80
0880
0900
0A00
0A00
0C00
0800
0800
1800
2800
2800
4000
ENDCHAR
STARTCHAR uni023F
ENCODING 575
SWIDTH 446 0
DWIDTH 7 0
BBX 5 11 1 -3
BITMAP
78
80
80
60
10
08
08
F0
40
20
18
ENDCHAR
STARTCHAR uni0240
ENCODING 576
SWIDTH 469 0
DWIDTH 8 0
BBX 6 11 1 -3
BITMAP
F8
08
10
20
20
40
80
C0
20
10
0C
ENDCHAR
STARTCHAR uni0241
ENCODING 577
SWIDTH 477 0
DWIDTH 8 0
BBX 8 11 0 0
BITMAP
7C
83
01
01
01
06
08
10
10
10
10
ENDCHAR
STARTCHAR uni0242
ENCODING 578
SWIDTH 417 0
DWIDTH 7 0
BBX 7 8 0 0
BITMAP
7C
82
02
04
18
20
20
20
ENDCHAR
STARTCHAR uni0243
ENCODING 579
SWIDTH 656 0
DWIDTH 10 0
BBX 9 11 0 0
BITMAP
7C00
4200
4100
4100
4200
7E00
4100
F080
4080
4100
7E00
ENDCHAR
STARTCHAR uni0244
ENCODING 580
SWIDTH 714 0
DWIDTH 11 0
BBX 11 11 0 0
BITMAP
4040
4040
4040
4040
FFE0
4040
4040
4040
4040
2080
1F00
ENDCHAR
STARTCHAR uni0245
ENCODING 581
SWIDTH 652 0
DWIDTH 10 0
BBX 10 11 0 0
BITMAP
0800
0800
1400
1400
2200
2200
2100
4100
4080
4080
8040
ENDCHAR
STARTCHAR uni0246
ENCODING 582
SWIDTH 595 0
DWIDTH 10 0
BBX 8 14 1 -2
BITMAP
01
FE
82
84
84
84
FE
88
90
90
A0
FF
20
40
ENDCHAR
STARTCHAR uni0247
ENCODING 583
SWIDTH 574 0
DWIDTH 9 0
BBX 7 10 1 -1
BITMAP
04
38
4C
8A
FE
90
A0
60
3C
40
ENDCHAR
STARTCHAR uni0248
ENCODING 584
SWIDTH 515 0
DWIDTH 8 0
BBX 8 11 0 0
BITMAP
04
04
04
04
04
1F
04
04
04
88
70
ENDCHAR
STARTCHAR uni0249
ENCODING 585
SWIDTH 291 0
DWIDTH 5 0
BBX 5 15 0 -3
BITMAP
20
20
00
00
20
20
20
F8
20
20
20
20
20
20
C0
ENDCHAR
STARTCHAR uni024A
ENCODING 586
SWIDTH 785 0
DWIDTH 13 0
BBX 12 14 1 -3
BITMAP
1E00
2100
4080
8040
8040
8040
8040
8040
40C0
2140
1E40
0040
0040
0030
ENDCHAR
STARTCHAR uni024B
ENCODING 587
SWIDTH 589 0
DWIDTH 9 0
BBX 8 11 1 -3
BITMAP
3C
44
84
84
84
84
44
3C
04
04
03
ENDCHAR
STARTCHAR uni024C
ENCODING 588
SWIDTH 642 0
DWIDTH 10 0
BBX 10 11 0 0
BITMAP
7E00
4100
4080
4080
4080
4100
FE00
4200
4100
4080
4040
ENDCHAR
STARTCHAR uni024D
ENCODING 589
SWIDTH 398 0
DWIDTH 6 0
BBX 6 8 0 0
BITMAP
7C
40
40
40
F0
40
40
40
ENDCHAR
STARTCHAR uni024E
ENCODING 590
SWIDTH 618 0
DWIDTH 9 0
BBX 9 11 0 0
BITMAP
8080
4100
4100
FF80
1400
1400
0800
0800
0800
0800
0800
ENDCHAR
STARTCHAR uni024F
ENCODING 591
SWIDTH 517 0
DWIDTH 7 0
BBX 7 11 0 -3
BITMAP
82
44
44
FE
28
28
28
10
10
20
C0
ENDCHAR
STARTCHAR uni0292
ENCODING 658
SWIDTH 471 0
DWIDTH 8 0
BBX 7 11 0 -3
BITMAP
FE
02
04
08
10
38
04
02
02
04
F8
ENDCHAR
STARTCHAR apostrophe
ENCODING 700
SWIDTH 376 0
DWIDTH 6 0
BBX 2 3 1 9
BITMAP
40
40
80
ENDCHAR
STARTCHAR circumflex
ENCODING 710
SWIDTH 376 0
DWIDTH 6 0
BBX 5 3 1 9
BITMAP
20
50
88
ENDCHAR
STARTCHAR caron
ENCODING 711
SWIDTH 376 0
DWIDTH 6 0
BBX 5 3 1 9
BITMAP
88
50
20
ENDCHAR
STARTCHAR uni02C9
ENCODING 713
SWIDTH 376 0
DWIDTH 6 0
BBX 5 1 1 10
BITMAP
F8
ENDCHAR
STARTCHAR breve
ENCODING 728
SWIDTH 376 0
DWIDTH 6 0
BBX 4 2 1 10
BITMAP
90
60
ENDCHAR
STARTCHAR dotaccent
ENCODING 729
SWIDTH 376 0
DWIDTH 6 0
BBX 1 2 3 10
BITMAP
80
80
ENDCHAR
STARTCHAR ring
ENCODING 730
SWIDTH 376 0
DWIDTH 6 0
BBX 4 4 1 9
BITMAP
60
90
90
60
ENDCHAR
STARTCHAR ogonek
ENCODING 731
SWIDTH 376 0
DWIDTH 6 0
BBX 2 3 2 -3
BITMAP
40
80
40
ENDCHAR
STARTCHAR tilde
ENCODING 732
SWIDTH 376 0
DWIDTH 6 0
BBX 5 2 0 10
BITMAP
68
90
ENDCHAR
STARTCHAR hungarumlaut
ENCODING 733
SWIDTH 376 0
DWIDTH 6 0
BBX 6 3 1 9
BITMAP
24
48
90
ENDCHAR
STARTCHAR breve_inverted
ENCODING 785
SWIDTH 376 0
DWIDTH 6 0
BBX 4 2 1 10
BITMAP
60
90
ENDCHAR
STARTCHAR tonos
ENCODING 900
SWIDTH 376 0
DWIDTH 6 0
BBX 3 3 2 9
BITMAP
20
40
80
ENDCHAR
STARTCHAR dieresistonos
ENCODING 901
SWIDTH 376 0
DWIDTH 6 0
BBX 7 4 1 9
BITMAP
08
92
92
20
ENDCHAR
STARTCHAR Alphatonos
ENCODING 902
SWIDTH 663 0
DWIDTH 11 0
BBX 11 11 0 0
BITMAP
4400
4A00
4A00
1100
1100
2080
2080
3F80
4040
4040
8020
ENDCHAR
STARTCHAR Epsilontonos
ENCODING 904
SWIDTH 634 0
DWIDTH 10 0
BBX 9 11 0 0
BITMAP
BF80
A000
A000
2000
2000
3F00
2000
2000
2000
2000
3F80
ENDCHAR
STARTCHAR Etatonos
ENCODING 905
SWIDTH 773 0
DWIDTH 12 0
BBX 11 11 0 0
BITMAP
A020
A020
A020
2020
2020
3FE0
2020
2020
2020
2020
2020
ENDCHAR
STARTCHAR Iotatonos
ENCODING 906
SWIDTH 337 0
DWIDTH 5 0
BBX 3 11 0 0
BITMAP
A0
A0
A0
20
20
20
20
20
20
20
20
ENDCHAR
STARTCHAR Omicrontonos
ENCODING 908
SWIDTH 803 0
DWIDTH 13 0
BBX 12 11 -1 0
BITMAP
87C0
8860
9020
1010
2010
2010
2010
1010
1020
0860
07C0
ENDCHAR
STARTCHAR Upsilontonos
ENCODING 910
SWIDTH 724 0
DWIDTH 11 0
BBX 11 11 0 0
BITMAP
A020
9040
9040
0880
0880
0500
0200
0200
0200
0200
0200
ENDCHAR
STARTCHAR Omegatonos
ENCODING 911
SWIDTH 806 0
DWIDTH 13 0
BBX 13 11 -1 0
BITMAP
87C0
8830
9018
1008
2008
2008
3008
1008
1010
0820
3C78
ENDCHAR
STARTCHAR iotadieresistonos
ENCODING 912
SWIDTH 273 0
DWIDTH 5 0
BBX 7 13 -2 0
BITMAP
08
9A
92
20
00
10
10
10
10
10
10
10
0C
ENDCHAR
STARTCHAR Alpha
ENCODING 913
SWIDTH 663 0
DWIDTH 11 0
BBX 11 11 0 0
BITMAP
0400
0A00
0A00
1100
1100
2080
2080
3F80
4040
4040
8020
ENDCHAR
STARTCHAR Beta
ENCODING 914
SWIDTH 643 0
DWIDTH 10 0
BBX 8 11 1 0
BITMAP
F8
84
82
82
84
FC
82
81
81
82
FC
ENDCHAR
STARTCHAR Gamma
ENCODING 915
SWIDTH 509 0
DWIDTH 8 0
BBX 7 11 1 0
BITMAP
FE
80
80
80
80
80
80
80
80
80
80
ENDCHAR
STARTCHAR uni0394
ENCODING 916
SWIDTH 651 0
DWIDTH 10 0
BBX 9 11 0 0
BITMAP
0800
1400
1400
1400
2200
2200
4100
4100
4100
8080
FF80
ENDCHAR
STARTCHAR Epsilon
ENCODING 917
SWIDTH 571 0
DWIDTH 9 0
BBX 7 11 1 0
BITMAP
FE
80
80
80
80
FC
80
80
80
80
FE
ENDCHAR
STARTCHAR Zeta
ENCODING 918
SWIDTH 573 0
DWIDTH 9 0
BBX 7 11 1 0
BITMAP
FE
02
04
08
10
10
20
40
40
80
FE
ENDCHAR
STARTCHAR Eta
ENCODING 919
SWIDTH 705 0
DWIDTH 11 0
BBX 9 11 1 0
BITMAP
8080
8080
8080
8080
8080
FF80
8080
8080
8080
8080
8080
ENDCHAR
STARTCHAR Theta
ENCODING 920
SWIDTH 778 0
DWIDTH 12 0
BBX 10 11 1 0
BITMAP
1E00
6180
4080
8040
8040
BF40
8040
8040
4080
6180
1E00
ENDCHAR
STARTCHAR Iota
ENCODING 921
SWIDTH 269 0
DWIDTH 3 0
BBX 1 11 1 0
BITMAP
80
80
80
80
80
80
80
80
80
80
80
ENDCHAR
STARTCHAR Kappa
ENCODING 922
SWIDTH 629 0
DWIDTH 10 0
BBX 9 11 1 0
BITMAP
8100
8200
8C00
9000
A000
C000
B000
8800
8600
8100
8080
ENDCHAR
STARTCHAR Lambda
ENCODING 923
SWIDTH 652 0
DWIDTH 10 0
BBX 10 11 0 0
BITMAP
0800
0800
1400
1400
2200
2200
2100
4100
4080
4080
8040
ENDCHAR
STARTCHAR Mu
ENCODING 924
SWIDTH 871 0
DWIDTH 13 0
BBX 11 11 1 0
BITMAP
4040
60C0
60C0
5140
5140
8A40
8A20
8A20
8420
8020
8020
ENDCHAR
STARTCHAR Nu
ENCODING 925
SWIDTH 728 0
DWIDTH 11 0
BBX 9 11 1 0
BITMAP
8080
C080
A080
9080
9080
8880
8480
8280
8280
8180
8080
ENDCHAR
STARTCHAR Xi
ENCODING 926
SWIDTH 552 0
DWIDTH 9 0
BBX 7 11 1 0
BITMAP
FE
00
00
00
00
7C
00
00
00
00
FE
ENDCHAR
STARTCHAR Omicron
ENCODING 927
SWIDTH 778 0
DWIDTH 12 0
BBX 10 11 1 0
BITMAP
1E00
2100
4080
8040
8040
8040
8040
8040
4080
2100
1E00
ENDCHAR
STARTCHAR Pi
ENCODING 928
SWIDTH 699 0
DWIDTH 11 0
BBX 9 11 1 0
BITMAP
FF80
8080
8080
8080
8080
8080
8080
8080
8080
8080
8080
ENDCHAR
STARTCHAR Rho
ENCODING 929
SWIDTH 608 0
DWIDTH 10 0
BBX 8 11 1 0
BITMAP
FC
82
81
81
81
82
FC
80
80
80
80
ENDCHAR
STARTCHAR Sigma
ENCODING 931
SWIDTH 563 0
DWIDTH 9 0
BBX 7 11 1 0
BITMAP
FE
80
40
20
10
08
10
20
40
80
FE
ENDCHAR
STARTCHAR Tau
ENCODING 932
SWIDTH 565 0
DWIDTH 9 0
BBX 9 11 0 0
BITMAP
FF80
0800
0800
0800
0800
0800
0800
0800
0800
0800
0800
ENDCHAR
STARTCHAR Upsilon
ENCODING 933
SWIDTH 598 0
DWIDTH 9 0
BBX 9 11 0 0
BITMAP
8080
4100
4100
2200
2200
1400
0800
0800
0800
0800
0800
ENDCHAR
STARTCHAR Phi
ENCODING 934
SWIDTH 864 0
DWIDTH 13 0
BBX 11 12 1 0
BITMAP
0400
3F80
4440
8420
8420
8420
8420
8420
8420
4440
3F80
0400
ENDCHAR
STARTCHAR Chi
ENCODING 935
SWIDTH 631 0
DWIDTH 9 0
BBX 9 11 0 0
BITMAP
8080
4100
2200
2200
1400
0800
1400
2200
2200
4100
8080
ENDCHAR
STARTCHAR Psi
ENCODING 936
SWIDTH 815 0
DWIDTH 13 0
BBX 11 11 1 0
BITMAP
8420
8420
8420
8420
8420
8420
4440
3F80
0400
0400
0400
ENDCHAR
STARTCHAR Omega
ENCODING 937
SWIDTH 784 0
DWIDTH 13 0
BBX 11 11 1 0
BITMAP
1F00
2080
4040
8020
8020
8020
8020
4040
4040
2080
F1E0
ENDCHAR
STARTCHAR Iotadieresis
ENCODING 938
SWIDTH 269 0
DWIDTH 3 0
BBX 3 15 0 0
BITMAP
A0
A0
00
00
40
40
40
40
40
40
40
40
40
40
40
ENDCHAR
STARTCHAR Upsilondieresis
ENCODING 939
SWIDTH 598 0
DWIDTH 9 0
BBX 9 15 0 0
BITMAP
1400
1400
0000
0000
8080
4100
4100
2200
2200
1400
0800
0800
0800
0800
0800
ENDCHAR
STARTCHAR alphatonos
ENCODING 940
SWIDTH 606 0
DWIDTH 10 0
BBX 8 12 1 0
BITMAP
08
18
10
00
3E
42
82
82
82
82
42
3D
ENDCHAR
STARTCHAR epsilontonos
ENCODING 941
SWIDTH 503 0
DWIDTH 8 0
BBX 7 12 1 0
BITMAP
08
30
20
00
7C
80
80
70
80
80
80
7E
ENDCHAR
STARTCHAR etatonos
ENCODING 942
SWIDTH 574 0
DWIDTH 9 0
BBX 7 15 1 -3
BITMAP
08
18
20
00
F8
84
82
82
82
82
82
82
02
02
02
ENDCHAR
STARTCHAR iotatonos
ENCODING 943
SWIDTH 273 0
DWIDTH 5 0
BBX 3 12 1 0
BITMAP
40
C0
80
00
80
80
80
80
80
80
80
60
ENDCHAR
STARTCHAR upsilondieresistonos
ENCODING 944
SWIDTH 576 0
DWIDTH 9 0
BBX 7 13 1 0
BITMAP
08
92
A2
20
00
82
82
82
82
82
82
44
38
ENDCHAR
STARTCHAR alpha
ENCODING 945
SWIDTH 606 0
DWIDTH 10 0
BBX 8 8 1 0
BITMAP
3E
42
82
82
82
82
42
3D
ENDCHAR
STARTCHAR beta
ENCODING 946
SWIDTH 611 0
DWIDTH 10 0
BBX 8 15 1 -3
BITMAP
38
44
82
82
84
9C
82
81
81
81
82
FC
80
80
80
ENDCHAR
STARTCHAR gamma
ENCODING 947
SWIDTH 503 0
DWIDTH 8 0
BBX 8 11 0 -3
BITMAP
81
41
42
42
24
24
28
10
10
10
10
ENDCHAR
STARTCHAR delta
ENCODING 948
SWIDTH 589 0
DWIDTH 9 0
BBX 7 12 1 0
BITMAP
3C
40
40
20
38
44
82
82
82
82
44
38
ENDCHAR
STARTCHAR epsilon
ENCODING 949
SWIDTH 503 0
DWIDTH 8 0
BBX 7 8 1 0
BITMAP
7C
80
80
70
80
80
80
7E
ENDCHAR
STARTCHAR zeta
ENCODING 950
SWIDTH 443 0
DWIDTH 7 0
BBX 6 15 1 -3
BITMAP
FC
08
10
20
20
40
40
80
80
80
40
38
04
04
08
ENDCHAR
STARTCHAR eta
ENCODING 951
SWIDTH 574 0
DWIDTH 9 0
BBX 7 11 1 -3
BITMAP
F8
84
82
82
82
82
82
82
02
02
02
ENDCHAR
STARTCHAR theta
ENCODING 952
SWIDTH 602 0
DWIDTH 10 0
BBX 8 12 1 0
BITMAP
3C
42
42
81
81
FF
81
81
81
42
42
3C
ENDCHAR
STARTCHAR iota
ENCODING 953
SWIDTH 273 0
DWIDTH 5 0
BBX 3 8 1 0
BITMAP
80
80
80
80
80
80
80
60
ENDCHAR
STARTCHAR kappa
ENCODING 954
SWIDTH 537 0
DWIDTH 9 0
BBX 7 8 1 0
BITMAP
86
98
A0
C0
B0
88
84
82
ENDCHAR
STARTCHAR lambda
ENCODING 955
SWIDTH 509 0
DWIDTH 8 0
BBX 8 12 0 0
BITMAP
E0
10
10
08
08
0C
14
22
22
42
41
81
ENDCHAR
STARTCHAR uni03BC
ENCODING 956
SWIDTH 580 0
DWIDTH 9 0
BBX 6 11 1 -3
BITMAP
84
84
84
84
84
84
C4
BC
80
80
80
ENDCHAR
STARTCHAR nu
ENCODING 957
SWIDTH 502 0
DWIDTH 7 0
BBX 7 8 0 0
BITMAP
82
82
44
44
44
28
28
10
ENDCHAR
STARTCHAR xi
ENCODING 958
SWIDTH 470 0
DWIDTH 8 0
BBX 7 15 1 -3
BITMAP
1E
20
40
40
20
1C
60
80
80
80
40
3C
02
02
04
ENDCHAR
STARTCHAR omicron
ENCODING 959
SWIDTH 590 0
DWIDTH 10 0
BBX 8 8 1 0
BITMAP
3C
42
81
81
81
81
42
3C
ENDCHAR
STARTCHAR pi
ENCODING 960
SWIDTH 578 0
DWIDTH 9 0
BBX 7 8 1 0
BITMAP
FE
82
82
82
82
82
82
82
ENDCHAR
STARTCHAR rho
ENCODING 961
SWIDTH 595 0
DWIDTH 10 0
BBX 8 11 1 -3
BITMAP
3C
42
81
81
81
81
C2
BC
80
80
80
ENDCHAR
STARTCHAR sigma1
ENCODING 962
SWIDTH 448 0
DWIDTH 7 0
BBX 6 11 1 -3
BITMAP
3C
40
80
80
80
80
40
38
04
04
08
ENDCHAR
STARTCHAR sigma
ENCODING 963
SWIDTH 613 0
DWIDTH 10 0
BBX 9 8 1 0
BITMAP
3F80
4200
8100
8100
8100
8100
4200
3C00
ENDCHAR
STARTCHAR tau
ENCODING 964
SWIDTH 445 0
DWIDTH 6 0
BBX 6 8 0 0
BITMAP
FC
20
20
20
20
20
20
1C
ENDCHAR
STARTCHAR upsilon
ENCODING 965
SWIDTH 576 0
DWIDTH 9 0
BBX 7 8 1 0
BITMAP
82
82
82
82
82
82
44
38
ENDCHAR
STARTCHAR phi
ENCODING 966
SWIDTH 770 0
DWIDTH 13 0
BBX 11 11 1 -3
BITMAP
3F80
4440
8420
8420
8420
8420
4440
3F80
0400
0400
0400
ENDCHAR
STARTCHAR chi
ENCODING 967
SWIDTH 511 0
DWIDTH 8 0
BBX 8 8 0 0
BITMAP
81
42
24
18
18
24
42
81
ENDCHAR
STARTCHAR psi
ENCODING 968
SWIDTH 776 0
DWIDTH 11 0
BBX 9 11 1 -3
BITMAP
8880
8880
8880
8880
8880
8880
4900
3E00
0800
0800
0800
ENDCHAR
STARTCHAR omega
ENCODING 969
SWIDTH 838 0
DWIDTH 13 0
BBX 11 8 1 0
BITMAP
2080
4040
8420
8420
8420
8420
4A40
3180
ENDCHAR
STARTCHAR iotadieresis
ENCODING 970
SWIDTH 273 0
DWIDTH 5 0
BBX 4 12 0 0
BITMAP
A0
A0
00
00
40
40
40
40
40
40
40
30
ENDCHAR
STARTCHAR upsilondieresis
ENCODING 971
SWIDTH 576 0
DWIDTH 9 0
BBX 7 12 1 0
BITMAP
28
28
00
00
82
82
82
82
82
82
44
38
ENDCHAR
STARTCHAR omicrontonos
ENCODING 972
SWIDTH 590 0
DWIDTH 10 0
BBX 8 12 1 0
BITMAP
04
0C
08
00
3C
42
81
81
81
81
42
3C
ENDCHAR
STARTCHAR upsilontonos
ENCODING 973
SWIDTH 576 0
DWIDTH 9 0
BBX 7 12 1 0
BITMAP
08
18
20
00
82
82
82
82
82
82
44
38
ENDCHAR
STARTCHAR omegatonos
ENCODING 974
SWIDTH 838 0
DWIDTH 13 0
BBX 11 12 1 0
BITMAP
0200
0600
0800
0000
2080
4040
8420
8420
8420
8420
4A40
3180
ENDCHAR
STARTCHAR uni0400
ENCODING 1024
SWIDTH 571 0
DWIDTH 9 0
BBX 7 15 1 0
BITMAP
20
18
08
00
FE
80
80
80
80
FC
80
80
80
80
FE
ENDCHAR
STARTCHAR afii10023
ENCODING 1025
SWIDTH 571 0
DWIDTH 9 0
BBX 7 15 1 0
BITMAP
28
28
00
00
FE
80
80
80
80
FC
80
80
80
80
FE
ENDCHAR
STARTCHAR afii10051
ENCODING 1026
SWIDTH 751 0
DWIDTH 12 0
BBX 11 11 0 0
BITMAP
FF80
0800
0800
0800
0F80
0840
0820
0820
0820
0840
0980
ENDCHAR
STARTCHAR afii10052
ENCODING 1027
SWIDTH 509 0
DWIDTH 8 0
BBX 7 15 1 0
BITMAP
08
18
10
00
FE
80
80
80
80
80
80
80
80
80
80
ENDCHAR
STARTCHAR afii10053
ENCODING 1028
SWIDTH 620 0
DWIDTH 10 0
BBX 9 11 1 0
BITMAP
1F00
2080
4000
8000
8000
FE00
8000
8000
4000
2080
1F00
ENDCHAR
STARTCHAR afii10054
ENCODING 1029
SWIDTH 532 0
DWIDTH 9 0
BBX 7 11 1 0
BITMAP
3C
42
80
80
60
18
04
02
02
84
78
ENDCHAR
STARTCHAR afii10055
ENCODING 1030
SWIDTH 269 0
DWIDTH 3 0
BBX 1 11 1 0
BITMAP
80
80
80
80
80
80
80
80
80
80
80
ENDCHAR
STARTCHAR afii10056
ENCODING 1031
SWIDTH 269 0
DWIDTH 3 0
BBX 3 15 0 0
BITMAP
A0
A0
00
00
40
40
40
40
40
40
40
40
40
40
40
ENDCHAR
STARTCHAR afii10057
ENCODING 1032
SWIDTH 500 0
DWIDTH 8 0
BBX 7 11 0 0
BITMAP
02
02
02
02
02
02
02
02
02
84
78
ENDCHAR
STARTCHAR afii10058
ENCODING 1033
SWIDTH 1043 0
DWIDTH 17 0
BBX 16 11 0 0
BITMAP
0FC0
0840
0840
0840
087C
0842
0841
1041
1041
2042
C07C
ENDCHAR
STARTCHAR afii10059
ENCODING 1034
SWIDTH 1026 0
DWIDTH 16 0
BBX 14 11 1 0
BITMAP
8100
8100
8100
8100
FFF0
8108
8104
8104
8104
8108
81F0
ENDCHAR
STARTCHAR afii10060
ENCODING 1035
SWIDTH 749 0
DWIDTH 12 0
BBX 10 11 0 0
BITMAP
FF80
1000
1000
1000
1F00
1080
1040
1040
1040
1040
1040
ENDCHAR
STARTCHAR afii10061
ENCODING 1036
SWIDTH 629 0
DWIDTH 10 0
BBX 9 15 1 0
BITMAP
0400
0800
1000
0000
8100
8200
8C00
9000
A000
C000
B000
8800
8600
8100
8080
ENDCHAR
STARTCHAR uni040D
ENCODING 1037
SWIDTH 728 0
DWIDTH 11 0
BBX 9 15 1 0
BITMAP
1000
0800
0400
0000
8080
8180
8280
8280
8480
8880
9080
9080
A080
C080
8080
ENDCHAR
STARTCHAR afii10062
ENCODING 1038
SWIDTH 587 0
DWIDTH 9 0
BBX 9 15 0 0
BITMAP
2200
1C00
0000
0000
8080
4100
4100
2200
2200
1400
1400
0800
0800
1000
E000
ENDCHAR
STARTCHAR afii10145
ENCODING 1039
SWIDTH 699 0
DWIDTH 11 0
BBX 9 14 1 -3
BITMAP
8080
8080
8080
8080
8080
8080
8080
8080
8080
8080
FF80
0800
0800
0800
ENDCHAR
STARTCHAR afii10017
ENCODING 1040
SWIDTH 663 0
DWIDTH 11 0
BBX 11 11 0 0
BITMAP
0400
0A00
0A00
1100
1100
2080
2080
3F80
4040
4040
8020
ENDCHAR
STARTCHAR afii10018
ENCODING 1041
SWIDTH 619 0
DWIDTH 10 0
BBX 8 11 1 0
BITMAP
FE
80
80
80
FC
82
81
81
81
82
FC
ENDCHAR
STARTCHAR afii10019
ENCODING 1042
SWIDTH 643 0
DWIDTH 10 0
BBX 8 11 1 0
BITMAP
F8
84
82
82
84
FC
82
81
81
82
FC
ENDCHAR
STARTCHAR afii10020
ENCODING 1043
SWIDTH 509 0
DWIDTH 8 0
BBX 7 11 1 0
BITMAP
FE
80
80
80
80
80
80
80
80
80
80
ENDCHAR
STARTCHAR afii10021
ENCODING 1044
SWIDTH 723 0
DWIDTH 12 0
BBX 11 14 0 -3
BITMAP
0FC0
0840
0840
0840
0840
0840
1040
1040
1040
2040
FFE0
8020
8020
8020
ENDCHAR
STARTCHAR afii10022
ENCODING 1045
SWIDTH 571 0
DWIDTH 9 0
BBX 7 11 1 0
BITMAP
FE
80
80
80
80
FC
80
80
80
80
FE
ENDCHAR
STARTCHAR afii10024
ENCODING 1046
SWIDTH 905 0
DWIDTH 13 0
BBX 13 11 0 0
BITMAP
8208
4210
2220
1240
0A80
0700
0A80
1240
2220
4210
8208
ENDCHAR
STARTCHAR afii10025
ENCODING 1047
SWIDTH 572 0
DWIDTH 9 0
BBX 8 11 0 0
BITMAP
7C
82
01
01
02
3C
02
01
01
82
7C
ENDCHAR
STARTCHAR afii10026
ENCODING 1048
SWIDTH 728 0
DWIDTH 11 0
BBX 9 11 1 0
BITMAP
8080
8180
8280
8280
8480
8880
9080
9080
A080
C080
8080
ENDCHAR
STARTCHAR afii10027
ENCODING 1049
SWIDTH 728 0
DWIDTH 11 0
BBX 9 15 1 0
BITMAP
2600
1C00
0000
0000
8080
8180
8280
8280
8480
8880
9080
9080
A080
C080
8080
ENDCHAR
STARTCHAR afii10028
ENCODING 1050
SWIDTH 629 0
DWIDTH 10 0
BBX 9 11 1 0
BITMAP
8100
8200
8C00
9000
A000
C000
B000
8800
8600
8100
8080
ENDCHAR
STARTCHAR afii10029
ENCODING 1051
SWIDTH 707 0
DWIDTH 11 0
BBX 10 11 0 0
BITMAP
0FC0
0840
0840
0840
0840
0840
0840
1040
1040
2040
C040
ENDCHAR
STARTCHAR afii10030
ENCODING 1052
SWIDTH 871 0
DWIDTH 13 0
BBX 11 11 1 0
BITMAP
4040
60C0
60C0
5140
5140
8A40
8A20
8A20
8420
8020
8020
ENDCHAR
STARTCHAR afii10031
ENCODING 1053
SWIDTH 705 0
DWIDTH 11 0
BBX 9 11 1 0
BITMAP
8080
8080
8080
8080
8080
FF80
8080
8080
8080
8080
8080
ENDCHAR
STARTCHAR afii10032
ENCODING 1054
SWIDTH 778 0
DWIDTH 12 0
BBX 10 11 1 0
BITMAP
1E00
2100
4080
8040
8040
8040
8040
8040
4080
2100
1E00
ENDCHAR
STARTCHAR afii10033
ENCODING 1055
SWIDTH 699 0
DWIDTH 11 0
BBX 9 11 1 0
BITMAP
FF80
8080
8080
8080
8080
8080
8080
8080
8080
8080
8080
ENDCHAR
STARTCHAR afii10034
ENCODING 1056
SWIDTH 608 0
DWIDTH 10 0
BBX 8 11 1 0
BITMAP
FC
82
81
81
81
82
FC
80
80
80
80
ENDCHAR
STARTCHAR afii10035
ENCODING 1057
SWIDTH 620 0
DWIDTH 11 0
BBX 9 11 1 0
BITMAP
1F00
2080
4000
8000
8000
8000
8000
8000
4000
2080
1F00
ENDCHAR
STARTCHAR afii10036
ENCODING 1058
SWIDTH 565 0
DWIDTH 9 0
BBX 9 11 0 0
BITMAP
FF80
0800
0800
0800
0800
0800
0800
0800
0800
0800
0800
ENDCHAR
STARTCHAR afii10037
ENCODING 1059
SWIDTH 587 0
DWIDTH 9 0
BBX 9 11 0 0
BITMAP
8080
4100
4100
2200
2200
1400
1400
0800
0800
1000
E000
ENDCHAR
STARTCHAR afii10038
ENCODING 1060
SWIDTH 864 0
DWIDTH 13 0
BBX 11 12 1 0
BITMAP
0400
3F80
4440
8420
8420
8420
8420
8420
8420
4440
3F80
0400
ENDCHAR
STARTCHAR afii10039
ENCODING 1061
SWIDTH 631 0
DWIDTH 9 0
BBX 9 11 0 0
BITMAP
8080
4100
2200
2200
1400
0800
1400
2200
2200
4100
8080
ENDCHAR
STARTCHAR afii10040
ENCODING 1062
SWIDTH 718 0
DWIDTH 11 0
BBX 9 14 1 -3
BITMAP
8100
8100
8100
8100
8100
8100
8100
8100
8100
8100
FF80
0080
0080
0080
ENDCHAR
STARTCHAR afii10041
ENCODING 1063
SWIDTH 631 0
DWIDTH 10 0
BBX 7 11 1 0
BITMAP
82
82
82
82
82
42
3E
02
02
02
02
ENDCHAR
STARTCHAR afii10042
ENCODING 1064
SWIDTH 983 0
DWIDTH 16 0
BBX 13 11 1 0
BITMAP
8208
8208
8208
8208
8208
8208
8208
8208
8208
8208
FFF8
ENDCHAR
STARTCHAR afii10043
ENCODING 1065
SWIDTH 1002 0
DWIDTH 16 0
BBX 14 14 1 -3
BITMAP
8208
8208
8208
8208
8208
8208
8208
8208
8208
8208
FFFC
0004
0004
0004
ENDCHAR
STARTCHAR afii10044
ENCODING 1066
SWIDTH 726 0
DWIDTH 12 0
BBX 11 11 0 0
BITMAP
F000
1000
1000
1000
1F80
1040
1020
1020
1020
1040
1F80
ENDCHAR
STARTCHAR afii10045
ENCODING 1067
SWIDTH 856 0
DWIDTH 14 0
BBX 11 11 1 0
BITMAP
8020
8020
8020
8020
FC20
8220
8120
8120
8120
8220
FC20
ENDCHAR
STARTCHAR afii10046
ENCODING 1068
SWIDTH 616 0
DWIDTH 10 0
BBX 8 11 1 0
BITMAP
80
80
80
80
FC
82
81
81
81
82
FC
ENDCHAR
STARTCHAR afii10047
ENCODING 1069
SWIDTH 620 0
DWIDTH 10 0
BBX 9 11 0 0
BITMAP
7C00
8200
0100
0080
0080
3F80
0080
0080
0100
8200
7C00
ENDCHAR
STARTCHAR afii10048
ENCODING 1070
SWIDTH 1030 0
DWIDTH 15 0
BBX 13 11 1 0
BITMAP
83C0
8C30
8810
9008
9008
F008
9008
9008
8810
8C30
83C0
ENDCHAR
STARTCHAR afii10049
ENCODING 1071
SWIDTH 635 0
DWIDTH 10 0
BBX 9 11 0 0
BITMAP
1F80
2080
4080
4080
4080
2080
1F80
1080
2080
4080
8080
ENDCHAR
STARTCHAR afii10065
ENCODING 1072
SWIDTH 522 0
DWIDTH 8 0
BBX 6 8 1 0
BITMAP
78
04
04
7C
84
84
84
7C
ENDCHAR
STARTCHAR afii10066
ENCODING 1073
SWIDTH 595 0
DWIDTH 10 0
BBX 8 12 1 0
BITMAP
0E
30
40
80
BC
C2
81
81
81
81
42
3C
ENDCHAR
STARTCHAR afii10067
ENCODING 1074
SWIDTH 548 0
DWIDTH 9 0
BBX 7 8 1 0
BITMAP
FC
82
82
FC
82
82
82
FC
ENDCHAR
STARTCHAR afii10068
ENCODING 1075
SWIDTH 418 0
DWIDTH 7 0
BBX 6 8 1 0
BITMAP
FC
80
80
80
80
80
80
80
ENDCHAR
STARTCHAR afii10069
ENCODING 1076
SWIDTH 603 0
DWIDTH 10 0
BBX 9 10 0 -2
BITMAP
1F00
1100
1100
1100
1100
2100
2100
FF80
8080
8080
ENDCHAR
STARTCHAR afii10070
ENCODING 1077
SWIDTH 559 0
DWIDTH 9 0
BBX 7 8 1 0
BITMAP
38
44
82
FE
80
80
40
3C
ENDCHAR
STARTCHAR afii10072
ENCODING 1078
SWIDTH 763 0
DWIDTH 13 0
BBX 13 8 0 0
BITMAP
4210
2220
1240
0F80
1240
2220
4210
8208
ENDCHAR
STARTCHAR afii10073
ENCODING 1079
SWIDTH 489 0
DWIDTH 8 0
BBX 6 8 1 0
BITMAP
F8
04
04
78
04
04
04
F8
ENDCHAR
STARTCHAR afii10074
ENCODING 1080
SWIDTH 597 0
DWIDTH 10 0
BBX 8 8 1 0
BITMAP
81
83
85
89
91
A1
C1
81
ENDCHAR
STARTCHAR afii10075
ENCODING 1081
SWIDTH 597 0
DWIDTH 10 0
BBX 8 12 1 0
BITMAP
26
1C
00
00
81
83
85
89
91
A1
C1
81
ENDCHAR
STARTCHAR afii10076
ENCODING 1082
SWIDTH 537 0
DWIDTH 9 0
BBX 7 8 1 0
BITMAP
86
98
A0
C0
B0
88
84
82
ENDCHAR
STARTCHAR afii10077
ENCODING 1083
SWIDTH 598 0
DWIDTH 10 0
BBX 9 8 0 0
BITMAP
1F80
1080
1080
1080
1080
2080
2080
C080
ENDCHAR
STARTCHAR afii10078
ENCODING 1084
SWIDTH 731 0
DWIDTH 11 0
BBX 9 8 1 0
BITMAP
C180
A280
A280
A280
9480
9480
8880
8080
ENDCHAR
STARTCHAR afii10079
ENCODING 1085
SWIDTH 586 0
DWIDTH 9 0
BBX 7 8 1 0
BITMAP
82
82
82
FE
82
82
82
82
ENDCHAR
STARTCHAR afii10080
ENCODING 1086
SWIDTH 590 0
DWIDTH 10 0
BBX 8 8 1 0
BITMAP
3C
42
81
81
81
81
42
3C
ENDCHAR
STARTCHAR afii10081
ENCODING 1087
SWIDTH 578 0
DWIDTH 9 0
BBX 7 8 1 0
BITMAP
FE
82
82
82
82
82
82
82
ENDCHAR
STARTCHAR afii10082
ENCODING 1088
SWIDTH 589 0
DWIDTH 9 0
BBX 7 11 1 -3
BITMAP
F8
84
82
82
82
82
84
F8
80
80
80
ENDCHAR
STARTCHAR afii10083
ENCODING 1089
SWIDTH 465 0
DWIDTH 8 0
BBX 6 8 1 0
BITMAP
3C
40
80
80
80
80
40
3C
ENDCHAR
STARTCHAR afii10084
ENCODING 1090
SWIDTH 463 0
DWIDTH 7 0
BBX 7 8 0 0
BITMAP
FE
10
10
10
10
10
10
10
ENDCHAR
STARTCHAR afii10085
ENCODING 1091
SWIDTH 497 0
DWIDTH 7 0
BBX 7 11 0 -3
BITMAP
82
44
44
44
28
28
10
10
10
20
C0
ENDCHAR
STARTCHAR afii10086
ENCODING 1092
SWIDTH 766 0
DWIDTH 13 0
BBX 11 15 1 -3
BITMAP
0400
0400
0400
0400
3F80
4440
8420
8420
8420
8420
4440
3F80
0400
0400
0400
ENDCHAR
STARTCHAR afii10087
ENCODING 1093
SWIDTH 511 0
DWIDTH 8 0
BBX 8 8 0 0
BITMAP
81
42
24
18
18
24
42
81
ENDCHAR
STARTCHAR afii10088
ENCODING 1094
SWIDTH 586 0
DWIDTH 9 0
BBX 7 10 1 -2
BITMAP
84
84
84
84
84
84
84
FE
02
02
ENDCHAR
STARTCHAR afii10089
ENCODING 1095
SWIDTH 533 0
DWIDTH 9 0
BBX 7 8 1 0
BITMAP
82
82
82
82
7E
02
02
02
ENDCHAR
STARTCHAR afii10090
ENCODING 1096
SWIDTH 823 0
DWIDTH 12 0
BBX 9 8 1 0
BITMAP
8880
8880
8880
8880
8880
8880
8880
FF80
ENDCHAR
STARTCHAR afii10091
ENCODING 1097
SWIDTH 834 0
DWIDTH 12 0
BBX 10 10 1 -2
BITMAP
8880
8880
8880
8880
8880
8880
8880
FFC0
0040
0040
ENDCHAR
STARTCHAR afii10092
ENCODING 1098
SWIDTH 598 0
DWIDTH 10 0
BBX 9 8 0 0
BITMAP
E000
2000
2000
3F00
2080
2080
2080
3F00
ENDCHAR
STARTCHAR afii10093
ENCODING 1099
SWIDTH 758 0
DWIDTH 12 0
BBX 10 8 1 0
BITMAP
8040
8040
8040
FC40
8240
8240
8240
FC40
ENDCHAR
STARTCHAR afii10094
ENCODING 1100
SWIDTH 528 0
DWIDTH 8 0
BBX 6 8 1 0
BITMAP
80
80
80
F8
84
84
84
F8
ENDCHAR
STARTCHAR afii10095
ENCODING 1101
SWIDTH 498 0
DWIDTH 8 0
BBX 6 8 1 0
BITMAP
F0
08
04
3C
04
04
08
F0
ENDCHAR
STARTCHAR afii10096
ENCODING 1102
SWIDTH 811 0
DWIDTH 13 0
BBX 11 8 1 0
BITMAP
8780
8840
9020
F020
9020
9020
8840
8780
ENDCHAR
STARTCHAR afii10097
ENCODING 1103
SWIDTH 548 0
DWIDTH 9 0
BBX 8 8 0 0
BITMAP
3F
41
41
41
3F
41
41
81
ENDCHAR
STARTCHAR uni0450
ENCODING 1104
SWIDTH 559 0
DWIDTH 9 0
BBX 7 12 1 0
BITMAP
20
30
10
00
38
44
82
FE
80
80
40
3C
ENDCHAR
STARTCHAR afii10071
ENCODING 1105
SWIDTH 559 0
DWIDTH 9 0
BBX 7 12 1 0
BITMAP
28
28
00
00
38
44
82
FE
80
80
40
3C
ENDCHAR
STARTCHAR afii10099
ENCODING 1106
SWIDTH 571 0
DWIDTH 9 0
BBX 8 15 0 -3
BITMAP
40
40
F8
40
7C
42
41
41
41
41
41
41
01
01
06
ENDCHAR
STARTCHAR afii10100
ENCODING 1107
SWIDTH 418 0
DWIDTH 7 0
BBX 6 12 1 0
BITMAP
08
18
20
00
FC
80
80
80
80
80
80
80
ENDCHAR
STARTCHAR afii10101
ENCODING 1108
SWIDTH 498 0
DWIDTH 8 0
BBX 6 8 1 0
BITMAP
3C
40
80
F0
80
80
40
3C
ENDCHAR
STARTCHAR afii10102
ENCODING 1109
SWIDTH 446 0
DWIDTH 7 0
BBX 5 8 1 0
BITMAP
78
80
80
60
10
08
08
F0
ENDCHAR
STARTCHAR afii10103
ENCODING 1110
SWIDTH 253 0
DWIDTH 3 0
BBX 1 12 1 0
BITMAP
80
80
00
00
80
80
80
80
80
80
80
80
ENDCHAR
STARTCHAR afii10104
ENCODING 1111
SWIDTH 253 0
DWIDTH 3 0
BBX 3 12 0 0
BITMAP
A0
A0
00
00
40
40
40
40
40
40
40
40
ENDCHAR
STARTCHAR afii10105
ENCODING 1112
SWIDTH 253 0
DWIDTH 3 0
BBX 3 15 -1 -3
BITMAP
20
20
00
00
20
20
20
20
20
20
20
20
20
20
C0
ENDCHAR
STARTCHAR afii10106
ENCODING 1113
SWIDTH 863 0
DWIDTH 14 0
BBX 13 8 0 0
BITMAP
1F00
1100
1100
11F0
1108
2108
2108
C1F0
ENDCHAR
STARTCHAR afii10107
ENCODING 1114
SWIDTH 851 0
DWIDTH 14 0
BBX 12 8 1 0
BITMAP
8200
8200
8200
FFE0
8210
8210
8210
83E0
ENDCHAR
STARTCHAR afii10108
ENCODING 1115
SWIDTH 571 0
DWIDTH 9 0
BBX 8 12 0 0
BITMAP
40
40
F8
40
7C
42
41
41
41
41
41
41
ENDCHAR
STARTCHAR afii10109
ENCODING 1116
SWIDTH 537 0
DWIDTH 9 0
BBX 7 12 1 0
BITMAP
08
18
10
00
86
98
A0
C0
B0
88
84
82
ENDCHAR
STARTCHAR uni045D
ENCODING 1117
SWIDTH 597 0
DWIDTH 10 0
BBX 8 12 1 0
BITMAP
20
10
08
00
81
83
85
89
91
A1
C1
81
ENDCHAR
STARTCHAR afii10110
ENCODING 1118
SWIDTH 497 0
DWIDTH 7 0
BBX 7 15 0 -3
BITMAP
22
1C
00
00
82
44
44
44
28
28
10
10
10
20
C0
ENDCHAR
STARTCHAR afii10193
ENCODING 1119
SWIDTH 575 0
DWIDTH 9 0
BBX 7 10 1 -2
BITMAP
82
82
82
82
82
82
82
FE
10
10
ENDCHAR
STARTCHAR uni0462
ENCODING 1122
SWIDTH 726 0
DWIDTH 12 0
BBX 11 12 0 0
BITMAP
1000
FF00
1000
1000
1000
1F80
1040
1020
1020
1020
1040
1F80
ENDCHAR
STARTCHAR uni0463
ENCODING 1123
SWIDTH 598 0
DWIDTH 10 0
BBX 9 12 0 0
BITMAP
2000
2000
2000
2000
FE00
2000
2000
3F00
2080
2080
2080
3F00
ENDCHAR
STARTCHAR uni0472
ENCODING 1138
SWIDTH 778 0
DWIDTH 12 0
BBX 10 11 1 0
BITMAP
1E00
6180
4080
8040
8040
B840
C7C0
8040
4080
6180
1E00
ENDCHAR
STARTCHAR uni0473
ENCODING 1139
SWIDTH 590 0
DWIDTH 9 0
BBX 7 8 1 0
BITMAP
38
44
82
F2
9E
82
44
38
ENDCHAR
STARTCHAR uni0474
ENCODING 1140
SWIDTH 753 0
DWIDTH 12 0
BBX 12 11 0 0
BITMAP
8070
8080
4080
4100
2100
2200
2200
1200
1400
1400
0800
ENDCHAR
STARTCHAR uni0475
ENCODING 1141
SWIDTH 564 0
DWIDTH 9 0
BBX 9 8 0 0
BITMAP
8180
8200
4200
4400
2400
2800
2800
1000
ENDCHAR
STARTCHAR uni048A
ENCODING 1162
SWIDTH 745 0
DWIDTH 11 0
BBX 10 17 1 -3
BITMAP
2200
1C00
0000
8080
8180
8280
8280
8480
8880
9080
9080
A080
C080
80C0
0040
0040
0080
ENDCHAR
STARTCHAR uni048B
ENCODING 1163
SWIDTH 608 0
DWIDTH 10 0
BBX 9 14 1 -3
BITMAP
2200
1C00
0000
8100
8300
8500
8900
9100
A100
C100
8180
0080
0080
0100
ENDCHAR
STARTCHAR uni048C
ENCODING 1164
SWIDTH 629 0
DWIDTH 10 0
BBX 9 12 0 0
BITMAP
4000
F000
4000
4000
4000
7E00
4100
4080
4080
4080
4100
7E00
ENDCHAR
STARTCHAR uni048D
ENCODING 1165
SWIDTH 524 0
DWIDTH 8 0
BBX 7 8 0 0
BITMAP
40
F0
40
7C
42
42
42
7C
ENDCHAR
STARTCHAR uni048E
ENCODING 1166
SWIDTH 608 0
DWIDTH 10 0
BBX 8 11 1 0
BITMAP
FC
82
81
81
91
8A
FC
84
84
80
80
ENDCHAR
STARTCHAR uni048F
ENCODING 1167
SWIDTH 589 0
DWIDTH 9 0
BBX 7 11 1 -3
BITMAP
F8
84
82
82
82
92
8C
F8
84
80
80
ENDCHAR
STARTCHAR afii10050
ENCODING 1168
SWIDTH 509 0
DWIDTH 8 0
BBX 7 13 1 0
BITMAP
02
02
FE
80
80
80
80
80
80
80
80
80
80
ENDCHAR
STARTCHAR afii10098
ENCODING 1169
SWIDTH 428 0
DWIDTH 7 0
BBX 6 10 1 0
BITMAP
04
04
FC
80
80
80
80
80
80
80
ENDCHAR
STARTCHAR uni0492
ENCODING 1170
SWIDTH 522 0
DWIDTH 8 0
BBX 8 11 0 0
BITMAP
7F
40
40
40
40
F0
40
40
40
40
40
ENDCHAR
STARTCHAR uni0493
ENCODING 1171
SWIDTH 426 0
DWIDTH 7 0
BBX 7 8 0 0
BITMAP
7E
40
40
40
F0
40
40
40
ENDCHAR
STARTCHAR uni0494
ENCODING 1172
SWIDTH 624 0
DWIDTH 10 0
BBX 8 14 1 -3
BITMAP
FE
80
80
80
FC
82
81
81
81
81
81
01
02
1C
ENDCHAR
STARTCHAR uni0495
ENCODING 1173
SWIDTH 544 0
DWIDTH 9 0
BBX 7 11 1 -3
BITMAP
FC
80
80
F8
84
82
82
82
02
04
18
ENDCHAR
STARTCHAR uni0496
ENCODING 1174
SWIDTH 921 0
DWIDTH 13 0
BBX 13 14 0 -3
BITMAP
8208
4210
2220
1240
0A80
0700
0A80
1240
2220
4210
8208
0008
0008
0008
ENDCHAR
STARTCHAR uni0497
ENCODING 1175
SWIDTH 775 0
DWIDTH 13 0
BBX 13 10 0 -2
BITMAP
4210
2220
1280
0F80
1240
2220
4210
8208
0008
0008
ENDCHAR
STARTCHAR uni0498
ENCODING 1176
SWIDTH 572 0
DWIDTH 9 0
BBX 8 14 0 -3
BITMAP
7C
82
01
01
02
3C
02
01
01
82
7C
10
08
30
ENDCHAR
STARTCHAR uni0499
ENCODING 1177
SWIDTH 489 0
DWIDTH 8 0
BBX 6 11 1 -3
BITMAP
F8
04
04
78
04
04
04
F8
20
10
60
ENDCHAR
STARTCHAR uni049A
ENCODING 1178
SWIDTH 656 0
DWIDTH 11 0
BBX 10 14 1 -3
BITMAP
8100
8200
8C00
9000
A000
C000
A000
9800
8600
8100
80C0
0040
0040
0040
ENDCHAR
STARTCHAR uni049B
ENCODING 1179
SWIDTH 546 0
DWIDTH 9 0
BBX 8 10 1 -2
BITMAP
84
98
A0
C0
A0
98
84
83
01
01
ENDCHAR
STARTCHAR uni049C
ENCODING 1180
SWIDTH 707 0
DWIDTH 10 0
BBX 9 11 1 0
BITMAP
8080
8100
8200
A400
A800
F000
A800
A400
8200
8100
8080
ENDCHAR
STARTCHAR uni049D
ENCODING 1181
SWIDTH 619 0
DWIDTH 9 0
BBX 8 8 1 0
BITMAP
82
A4
A8
F0
A8
A4
82
81
ENDCHAR
STARTCHAR uni049E
ENCODING 1182
SWIDTH 641 0
DWIDTH 10 0
BBX 10 11 0 0
BITMAP
4080
F100
4600
4800
5000
6000
5800
4400
4300
4080
4040
ENDCHAR
STARTCHAR uni049F
ENCODING 1183
SWIDTH 556 0
DWIDTH 9 0
BBX 8 8 0 0
BITMAP
41
E6
48
50
60
50
4C
43
ENDCHAR
STARTCHAR uni04A0
ENCODING 1184
SWIDTH 739 0
DWIDTH 12 0
BBX 12 11 0 0
BITMAP
F020
1040
1180
1200
1400
1800
1600
1100
10C0
1020
1010
ENDCHAR
STARTCHAR uni04A1
ENCODING 1185
SWIDTH 607 0
DWIDTH 10 0
BBX 9 8 0 0
BITMAP
E180
2600
2800
3000
2C00
2200
2100
2080
ENDCHAR
STARTCHAR uni04A2
ENCODING 1186
SWIDTH 724 0
DWIDTH 12 0
BBX 11 14 1 -3
BITMAP
8040
8040
8040
8040
8040
FFC0
8040
8040
8040
8040
8060
0020
0020
0020
ENDCHAR
STARTCHAR uni04A3
ENCODING 1187
SWIDTH 597 0
DWIDTH 10 0
BBX 9 10 1 -2
BITMAP
8100
8100
8100
FF00
8100
8100
8100
8180
0080
0080
ENDCHAR
STARTCHAR uni04A4
ENCODING 1188
SWIDTH 815 0
DWIDTH 13 0
BBX 12 11 1 0
BITMAP
80F0
8080
8080
8080
8080
FF80
8080
8080
8080
8080
8080
ENDCHAR
STARTCHAR uni04A5
ENCODING 1189
SWIDTH 656 0
DWIDTH 11 0
BBX 10 8 1 0
BITMAP
81C0
8100
8100
FF00
8100
8100
8100
8100
ENDCHAR
STARTCHAR uni04A6
ENCODING 1190
SWIDTH 1032 0
DWIDTH 17 0
BBX 15 14 1 -3
BITMAP
FF00
8100
8100
8100
81F8
8104
8102
8102
8102
8102
8102
0002
0004
0038
ENDCHAR
STARTCHAR uni04A7
ENCODING 1191
SWIDTH 860 0
DWIDTH 14 0
BBX 12 11 1 -3
BITMAP
FE00
8200
8200
83C0
8220
8210
8210
8210
0010
0020
00C0
ENDCHAR
STARTCHAR uni04A8
ENCODING 1192
SWIDTH 786 0
DWIDTH 13 0
BBX 11 14 1 -3
BITMAP
1F00
2000
4000
8300
8480
8840
8840
8840
4840
2880
1F00
0400
0300
00E0
ENDCHAR
STARTCHAR uni04A9
ENCODING 1193
SWIDTH 609 0
DWIDTH 10 0
BBX 8 10 1 -2
BITMAP
38
40
8E
91
91
91
52
3C
08
07
ENDCHAR
STARTCHAR uni04AA
ENCODING 1194
SWIDTH 620 0
DWIDTH 11 0
BBX 9 14 1 -3
BITMAP
1F00
2080
4000
8000
8000
8000
8000
8000
4000
2080
1F00
0800
0400
1800
ENDCHAR
STARTCHAR uni04AB
ENCODING 1195
SWIDTH 465 0
DWIDTH 8 0
BBX 6 11 1 -3
BITMAP
3C
40
80
80
80
80
40
3C
20
10
60
ENDCHAR
STARTCHAR uni04AC
ENCODING 1196
SWIDTH 565 0
DWIDTH 9 0
BBX 9 14 0 -3
BITMAP
FF80
0800
0800
0800
0800
0800
0800
0800
0800
0800
0C00
0400
0400
0400
ENDCHAR
STARTCHAR uni04AD
ENCODING 1197
SWIDTH 463 0
DWIDTH 7 0
BBX 7 10 0 -2
BITMAP
FE
10
10
10
10
10
10
18
08
08
ENDCHAR
STARTCHAR uni04AE
ENCODING 1198
SWIDTH 598 0
DWIDTH 9 0
BBX 9 11 0 0
BITMAP
8080
4100
4100
2200
2200
1400
0800
0800
0800
0800
0800
ENDCHAR
STARTCHAR uni04AF
ENCODING 1199
SWIDTH 502 0
DWIDTH 7 0
BBX 7 11 0 -3
BITMAP
82
82
44
44
28
28
28
10
10
10
10
ENDCHAR
STARTCHAR uni04B0
ENCODING 1200
SWIDTH 598 0
DWIDTH 9 0
BBX 9 11 0 0
BITMAP
8080
4100
2200
2200
1400
0800
3E00
0800
0800
0800
0800
ENDCHAR
STARTCHAR uni04B1
ENCODING 1201
SWIDTH 502 0
DWIDTH 7 0
BBX 7 11 0 -3
BITMAP
82
82
44
44
28
28
10
7C
10
10
10
ENDCHAR
STARTCHAR uni04B2
ENCODING 1202
SWIDTH 653 0
DWIDTH 9 0
BBX 9 14 0 -3
BITMAP
8100
4200
4400
2400
1800
1800
1800
2400
4200
4200
8180
0080
0080
0080
ENDCHAR
STARTCHAR uni04B3
ENCODING 1203
SWIDTH 525 0
DWIDTH 8 0
BBX 8 10 0 -2
BITMAP
81
42
24
18
18
24
42
81
01
01
ENDCHAR
STARTCHAR uni04B4
ENCODING 1204
SWIDTH 846 0
DWIDTH 14 0
BBX 13 14 0 -3
BITMAP
FF10
0810
0810
0810
0810
0810
0810
0810
0810
0810
0FF8
0008
0008
0008
ENDCHAR
STARTCHAR uni04B5
ENCODING 1205
SWIDTH 661 0
DWIDTH 11 0
BBX 10 10 0 -2
BITMAP
FC80
1080
1080
1080
1080
1080
1080
1FC0
0040
0040
ENDCHAR
STARTCHAR uni04B6
ENCODING 1206
SWIDTH 650 0
DWIDTH 10 0
BBX 8 14 1 -3
BITMAP
82
82
82
82
82
42
3E
02
02
02
03
01
01
01
ENDCHAR
STARTCHAR uni04B7
ENCODING 1207
SWIDTH 544 0
DWIDTH 9 0
BBX 8 10 1 -2
BITMAP
82
82
82
82
7E
02
02
03
01
01
ENDCHAR
STARTCHAR uni04B8
ENCODING 1208
SWIDTH 638 0
DWIDTH 10 0
BBX 7 11 1 0
BITMAP
82
82
82
82
92
52
3E
12
12
02
02
ENDCHAR
STARTCHAR uni04B9
ENCODING 1209
SWIDTH 533 0
DWIDTH 9 0
BBX 7 8 1 0
BITMAP
82
82
92
92
7E
12
12
02
ENDCHAR
STARTCHAR uni04BA
ENCODING 1210
SWIDTH 639 0
DWIDTH 10 0
BBX 8 11 1 0
BITMAP
80
80
80
80
FC
82
81
81
81
81
81
ENDCHAR
STARTCHAR uni04BB
ENCODING 1211
SWIDTH 571 0
DWIDTH 9 0
BBX 7 12 1 0
BITMAP
80
80
80
80
F8
84
82
82
82
82
82
82
ENDCHAR
STARTCHAR uni04BC
ENCODING 1212
SWIDTH 835 0
DWIDTH 13 0
BBX 12 11 0 0
BITMAP
0780
0840
1020
A010
A010
7FF0
2000
2000
1000
0820
07C0
ENDCHAR
STARTCHAR uni04BD
ENCODING 1213
SWIDTH 670 0
DWIDTH 10 0
BBX 9 8 0 0
BITMAP
0E00
9100
A080
7F80
2000
2000
1000
0F00
ENDCHAR
STARTCHAR uni04BE
ENCODING 1214
SWIDTH 835 0
DWIDTH 13 0
BBX 12 14 0 -3
BITMAP
0780
0840
1020
A010
A010
7FF0
2000
2000
1000
0820
07C0
0100
0100
0100
ENDCHAR
STARTCHAR uni04BF
ENCODING 1215
SWIDTH 670 0
DWIDTH 10 0
BBX 9 10 0 -2
BITMAP
0E00
9100
A080
7F80
2000
2000
1000
0F00
0200
0200
ENDCHAR
STARTCHAR uni04C0
ENCODING 1216
SWIDTH 269 0
DWIDTH 3 0
BBX 1 11 1 0
BITMAP
80
80
80
80
80
80
80
80
80
80
80
ENDCHAR
STARTCHAR uni04C1
ENCODING 1217
SWIDTH 905 0
DWIDTH 13 0
BBX 13 15 0 0
BITMAP
0440
0380
0000
0000
8208
4210
2220
1240
0A80
0700
0A80
1240
2220
4210
8208
ENDCHAR
STARTCHAR uni04C2
ENCODING 1218
SWIDTH 763 0
DWIDTH 13 0
BBX 13 12 0 0
BITMAP
0880
0700
0000
0000
4210
2220
1240
0F80
1240
2220
4210
8208
ENDCHAR
STARTCHAR uni04C3
ENCODING 1219
SWIDTH 631 0
DWIDTH 10 0
BBX 8 14 1 -3
BITMAP
81
82
84
88
90
FC
82
81
81
81
81
01
02
1C
ENDCHAR
STARTCHAR uni04C4
ENCODING 1220
SWIDTH 544 0
DWIDTH 9 0
BBX 7 11 1 -3
BITMAP
84
88
B0
F8
84
82
82
82
02
04
18
ENDCHAR
STARTCHAR uni04C5
ENCODING 1221
SWIDTH 724 0
DWIDTH 11 0
BBX 11 14 0 -3
BITMAP
0FC0
0840
0840
0840
0840
0840
0840
1040
1040
2040
C060
0020
0020
0040
ENDCHAR
STARTCHAR uni04C6
ENCODING 1222
SWIDTH 609 0
DWIDTH 10 0
BBX 10 11 0 -3
BITMAP
1F80
1080
1080
1080
1080
2080
2080
C0C0
0040
0040
0080
ENDCHAR
STARTCHAR uni04C7
ENCODING 1223
SWIDTH 705 0
DWIDTH 11 0
BBX 9 14 1 -3
BITMAP
8080
8080
8080
8080
8080
FF80
8080
8080
8080
8080
8080
0080
0080
0300
ENDCHAR
STARTCHAR uni04C8
ENCODING 1224
SWIDTH 586 0
DWIDTH 9 0
BBX 7 11 1 -3
BITMAP
82
82
82
FE
82
82
82
82
02
02
0C
ENDCHAR
STARTCHAR uni04C9
ENCODING 1225
SWIDTH 722 0
DWIDTH 11 0
BBX 10 14 1 -3
BITMAP
8080
8080
8080
8080
8080
FF80
8080
8080
8080
8080
80C0
0040
0040
0080
ENDCHAR
STARTCHAR uni04CA
ENCODING 1226
SWIDTH 597 0
DWIDTH 9 0
BBX 8 11 1 -3
BITMAP
82
82
82
FE
82
82
82
83
01
01
02
ENDCHAR
STARTCHAR uni04CB
ENCODING 1227
SWIDTH 638 0
DWIDTH 10 0
BBX 7 14 1 -3
BITMAP
82
82
82
82
82
42
3E
02
02
02
06
04
04
04
ENDCHAR
STARTCHAR uni04CC
ENCODING 1228
SWIDTH 533 0
DWIDTH 9 0
BBX 7 10 1 -2
BITMAP
82
82
82
82
7E
02
02
06
04
04
ENDCHAR
STARTCHAR uni04CD
ENCODING 1229
SWIDTH 899 0
DWIDTH 14 0
BBX 12 14 1 -3
BITMAP
4040
60C0
60C0
5140
5140
8A20
8A20
8A20
8420
8020
8030
0010
0020
0020
ENDCHAR
STARTCHAR uni04CE
ENCODING 1230
SWIDTH 751 0
DWIDTH 11 0
BBX 10 11 1 -3
BITMAP
C180
A280
A280
A280
9480
9480
8880
80C0
0040
0040
0080
ENDCHAR
STARTCHAR uni04CF
ENCODING 1231
SWIDTH 269 0
DWIDTH 3 0
BBX 1 11 1 0
BITMAP
80
80
80
80
80
80
80
80
80
80
80
ENDCHAR
STARTCHAR uni04D0
ENCODING 1232
SWIDTH 663 0
DWIDTH 11 0
BBX 11 15 0 0
BITMAP
1900
0E00
0000
0000
0400
0A00
0A00
1100
1100
2080
2080
3F80
4040
4040
8020
ENDCHAR
STARTCHAR uni04D1
ENCODING 1233
SWIDTH 522 0
DWIDTH 8 0
BBX 6 12 1 0
BITMAP
44
38
00
00
78
04
04
7C
84
84
84
7C
ENDCHAR
STARTCHAR uni04D2
ENCODING 1234
SWIDTH 663 0
DWIDTH 11 0
BBX 11 15 0 0
BITMAP
1400
1400
0000
0000
0400
0A00
0A00
1100
1100
2080
2080
3F80
4040
4040
8020
ENDCHAR
STARTCHAR uni04D3
ENCODING 1235
SWIDTH 522 0
DWIDTH 8 0
BBX 6 12 1 0
BITMAP
50
50
00
00
78
04
04
7C
84
84
84
7C
ENDCHAR
STARTCHAR uni04D4
ENCODING 1236
SWIDTH 935 0
DWIDTH 15 0
BBX 14 11 0 0
BITMAP
00FC
0180
0280
0480
0480
08F8
1080
1F80
2080
4080
80FC
ENDCHAR
STARTCHAR uni04D5
ENCODING 1237
SWIDTH 859 0
DWIDTH 14 0
BBX 12 8 1 0
BITMAP
79C0
0620
0410
7FF0
8400
8400
8600
79E0
ENDCHAR
STARTCHAR uni04D6
ENCODING 1238
SWIDTH 571 0
DWIDTH 9 0
BBX 7 15 1 0
BITMAP
24
3C
00
00
FE
80
80
80
80
FC
80
80
80
80
FE
ENDCHAR
STARTCHAR uni04D7
ENCODING 1239
SWIDTH 559 0
DWIDTH 9 0
BBX 7 12 1 0
BITMAP
24
3C
00
00
38
44
82
FE
80
80
40
3C
ENDCHAR
STARTCHAR uni04D8
ENCODING 1240
SWIDTH 705 0
DWIDTH 11 0
BBX 9 11 1 0
BITMAP
3C00
4200
0100
0080
0080
FF80
8080
8080
4100
2200
1C00
ENDCHAR
STARTCHAR uni04D9
ENCODING 1241
SWIDTH 559 0
DWIDTH 9 0
BBX 7 8 1 0
BITMAP
78
04
02
02
FE
82
44
38
ENDCHAR
STARTCHAR uni04DA
ENCODING 1242
SWIDTH 705 0
DWIDTH 11 0
BBX 9 15 1 0
BITMAP
2800
2800
0000
0000
3C00
4200
0100
0080
0080
FF80
8080
8080
4100
2200
1C00
ENDCHAR
STARTCHAR uni04DB
ENCODING 1243
SWIDTH 559 0
DWIDTH 9 0
BBX 7 12 1 0
BITMAP
50
50
00
00
78
04
02
02
FE
82
44
38
ENDCHAR
STARTCHAR uni04DC
ENCODING 1244
SWIDTH 905 0
DWIDTH 13 0
BBX 13 15 0 0
BITMAP
0500
0500
0000
0000
8208
4210
2220
1240
0A80
0700
0A80
1240
2220
4210
8208
ENDCHAR
STARTCHAR uni04DD
ENCODING 1245
SWIDTH 763 0
DWIDTH 13 0
BBX 13 12 0 0
BITMAP
0A00
0A00
0000
0000
4210
2220
1240
0F80
1240
2220
4210
8208
ENDCHAR
STARTCHAR uni04DE
ENCODING 1246
SWIDTH 572 0
DWIDTH 9 0
BBX 8 15 0 0
BITMAP
28
28
00
00
7C
82
01
01
02
3C
02
01
01
82
7C
ENDCHAR
STARTCHAR uni04DF
ENCODING 1247
SWIDTH 489 0
DWIDTH 8 0
BBX 6 12 1 0
BITMAP
50
50
00
00
F8
04
04
78
04
04
04
F8
ENDCHAR
STARTCHAR uni04E0
ENCODING 1248
SWIDTH 567 0
DWIDTH 9 0
BBX 8 11 0 0
BITMAP
7F
02
04
04
08
1C
02
01
01
82
7C
ENDCHAR
STARTCHAR uni04E1
ENCODING 1249
SWIDTH 471 0
DWIDTH 8 0
BBX 7 11 0 -3
BITMAP
FE
02
04
08
10
38
04
02
02
04
F8
ENDCHAR
STARTCHAR uni04E2
ENCODING 1250
SWIDTH 728 0
DWIDTH 11 0
BBX 9 14 1 0
BITMAP
1F00
0000
0000
8080
8180
8280
8280
8480
8880
9080
9080
A080
C080
8080
ENDCHAR
STARTCHAR uni04E3
ENCODING 1251
SWIDTH 597 0
DWIDTH 10 0
BBX 8 11 1 0
BITMAP
3E
00
00
81
83
85
89
91
A1
C1
81
ENDCHAR
STARTCHAR uni04E4
ENCODING 1252
SWIDTH 728 0
DWIDTH 11 0
BBX 9 15 1 0
BITMAP
1400
1400
0000
0000
8080
8180
8280
8280
8480
8880
9080
9080
A080
C080
8080
ENDCHAR
STARTCHAR uni04E5
ENCODING 1253
SWIDTH 597 0
DWIDTH 10 0
BBX 8 12 1 0
BITMAP
28
28
00
00
81
83
85
89
91
A1
C1
81
ENDCHAR
STARTCHAR uni04E6
ENCODING 1254
SWIDTH 778 0
DWIDTH 12 0
BBX 10 15 1 0
BITMAP
1400
1400
0000
0000
1E00
2100
4080
8040
8040
8040
8040
8040
4080
2100
1E00
ENDCHAR
STARTCHAR uni04E7
ENCODING 1255
SWIDTH 590 0
DWIDTH 10 0
BBX 8 12 1 0
BITMAP
28
28
00
00
3C
42
81
81
81
81
42
3C
ENDCHAR
STARTCHAR uni04E8
ENCODING 1256
SWIDTH 778 0
DWIDTH 12 0
BBX 10 11 1 0
BITMAP
1E00
2100
4080
8040
8040
FFC0
8040
8040
4080
2100
1E00
ENDCHAR
STARTCHAR uni04E9
ENCODING 1257
SWIDTH 590 0
DWIDTH 9 0
BBX 7 8 1 0
BITMAP
38
44
82
FE
82
82
44
38
ENDCHAR
STARTCHAR uni04EA
ENCODING 1258
SWIDTH 778 0
DWIDTH 12 0
BBX 10 15 1 0
BITMAP
1400
1400
0000
0000
1E00
2100
4080
8040
8040
FFC0
8040
8040
4080
2100
1E00
ENDCHAR
STARTCHAR uni04EB
ENCODING 1259
SWIDTH 590 0
DWIDTH 9 0
BBX 7 12 1 0
BITMAP
28
28
00
00
38
44
82
FE
82
82
44
38
ENDCHAR
STARTCHAR uni04EC
ENCODING 1260
SWIDTH 620 0
DWIDTH 10 0
BBX 9 15 0 0
BITMAP
2800
2800
0000
0000
7C00
8200
0100
0080
0080
3F80
0080
0080
0100
8200
7C00
ENDCHAR
STARTCHAR uni04ED
ENCODING 1261
SWIDTH 498 0
DWIDTH 8 0
BBX 6 12 1 0
BITMAP
A0
A0
00
00
F0
08
04
3C
04
04
08
F0
ENDCHAR
STARTCHAR uni04EE
ENCODING 1262
SWIDTH 587 0
DWIDTH 9 0
BBX 9 14 0 0
BITMAP
1F00
0000
0000
8080
4100
4100
2200
2200
1400
1400
0800
0800
1000
E000
ENDCHAR
STARTCHAR uni04EF
ENCODING 1263
SWIDTH 497 0
DWIDTH 7 0
BBX 7 14 0 -3
BITMAP
3E
00
00
82
44
44
44
28
28
10
10
10
20
C0
ENDCHAR
STARTCHAR uni04F0
ENCODING 1264
SWIDTH 587 0
DWIDTH 9 0
BBX 9 15 0 0
BITMAP
1400
1400
0000
0000
8080
4100
4100
2200
2200
1400
1400
0800
0800
1000
E000
ENDCHAR
STARTCHAR uni04F1
ENCODING 1265
SWIDTH 497 0
DWIDTH 7 0
BBX 7 15 0 -3
BITMAP
28
28
00
00
82
44
44
44
28
28
10
10
10
20
C0
ENDCHAR
STARTCHAR uni04F2
ENCODING 1266
SWIDTH 587 0
DWIDTH 9 0
BBX 9 15 0 0
BITMAP
0480
0D80
1200
0000
8080
4100
4100
2200
2200
1400
1400
0800
0800
1000
E000
ENDCHAR
STARTCHAR uni04F3
ENCODING 1267
SWIDTH 497 0
DWIDTH 7 0
BBX 8 15 0 -3
BITMAP
09
1B
12
00
82
44
44
44
28
28
10
10
10
20
C0
ENDCHAR
STARTCHAR uni04F4
ENCODING 1268
SWIDTH 631 0
DWIDTH 10 0
BBX 7 15 1 0
BITMAP
28
28
00
00
82
82
82
82
82
42
3E
02
02
02
02
ENDCHAR
STARTCHAR uni04F5
ENCODING 1269
SWIDTH 533 0
DWIDTH 9 0
BBX 7 12 1 0
BITMAP
50
50
00
00
82
82
82
82
7E
02
02
02
ENDCHAR
STARTCHAR uni04F6
ENCODING 1270
SWIDTH 509 0
DWIDTH 8 0
BBX 7 14 1 -3
BITMAP
FE
80
80
80
80
80
80
80
80
80
C0
40
40
40
ENDCHAR
STARTCHAR uni04F7
ENCODING 1271
SWIDTH 418 0
DWIDTH 7 0
BBX 6 10 1 -2
BITMAP
FC
80
80
80
80
80
80
C0
40
40
ENDCHAR
STARTCHAR uni04F8
ENCODING 1272
SWIDTH 856 0
DWIDTH 14 0
BBX 11 15 1 0
BITMAP
0A00
0A00
0000
0000
8020
8020
8020
8020
FC20
8220
8120
8120
8120
8220
FC20
ENDCHAR
STARTCHAR uni04F9
ENCODING 1273
SWIDTH 758 0
DWIDTH 12 0
BBX 10 12 1 0
BITMAP
1400
1400
0000
0000
8040
8040
8040
FC40
8240
8240
8240
FC40
ENDCHAR
STARTCHAR Wgrave
ENCODING 7808
SWIDTH 929 0
DWIDTH 13 0
BBX 13 15 0 0
BITMAP
0400
0600
0200
0000
8008
8208
4210
4510
4510
4510
28A0
28A0
28A0
1040
1040
ENDCHAR
STARTCHAR wgrave
ENCODING 7809
SWIDTH 777 0
DWIDTH 13 0
BBX 13 12 0 0
BITMAP
0800
0600
0200
0000
8208
8208
4510
4510
4510
28A0
28A0
1040
ENDCHAR
STARTCHAR Wacute
ENCODING 7810
SWIDTH 929 0
DWIDTH 13 0
BBX 13 15 0 0
BITMAP
0100
0300
0400
0000
8008
8208
4210
4510
4510
4510
28A0
28A0
28A0
1040
1040
ENDCHAR
STARTCHAR wacute
ENCODING 7811
SWIDTH 777 0
DWIDTH 13 0
BBX 13 12 0 0
BITMAP
0100
0200
0400
0000
8208
8208
4510
4510
4510
28A0
28A0
1040
ENDCHAR
STARTCHAR Wdieresis
ENCODING 7812
SWIDTH 929 0
DWIDTH 13 0
BBX 13 15 0 0
BITMAP
0500
0500
0000
0000
8008
8208
4210
4510
4510
4510
28A0
28A0
28A0
1040
1040
ENDCHAR
STARTCHAR wdieresis
ENCODING 7813
SWIDTH 777 0
DWIDTH 13 0
BBX 13 12 0 0
BITMAP
0500
0500
0000
0000
8208
8208
4510
4510
4510
28A0
28A0
1040
ENDCHAR
STARTCHAR Ygrave
ENCODING 7922
SWIDTH 598 0
DWIDTH 9 0
BBX 9 15 0 0
BITMAP
1000
0800
0400
0000
8080
4100
4100
2200
2200
1400
0800
0800
0800
0800
0800
ENDCHAR
STARTCHAR ygrave
ENCODING 7923
SWIDTH 497 0
DWIDTH 7 0
BBX 7 16 0 -3
BITMAP
20
18
08
00
00
82
44
44
44
28
28
10
10
10
20
C0
ENDCHAR
STARTCHAR uni1F00
ENCODING 7936
SWIDTH 606 0
DWIDTH 10 0
BBX 8 12 1 0
BITMAP
08
08
10
00
3E
42
82
82
82
82
42
3D
ENDCHAR
STARTCHAR uni1F01
ENCODING 7937
SWIDTH 606 0
DWIDTH 10 0
BBX 8 12 1 0
BITMAP
10
10
08
00
3E
42
82
82
82
82
42
3D
ENDCHAR
STARTCHAR uni1F02
ENCODING 7938
SWIDTH 606 0
DWIDTH 10 0
BBX 8 12 1 0
BITMAP
28
24
42
00
3E
42
82
82
82
82
42
3D
ENDCHAR
STARTCHAR uni1F03
ENCODING 7939
SWIDTH 606 0
DWIDTH 10 0
BBX 8 12 1 0
BITMAP
B0
98
48
00
3E
42
82
82
82
82
42
3D
ENDCHAR
STARTCHAR uni1F04
ENCODING 7940
SWIDTH 606 0
DWIDTH 10 0
BBX 8 12 1 0
BITMAP
22
24
6C
00
3E
42
82
82
82
82
42
3D
ENDCHAR
STARTCHAR uni1F05
ENCODING 7941
SWIDTH 606 0
DWIDTH 10 0
BBX 8 12 1 0
BITMAP
42
44
28
00
3E
42
82
82
82
82
42
3D
ENDCHAR
STARTCHAR uni1F06
ENCODING 7942
SWIDTH 606 0
DWIDTH 10 0
BBX 8 15 1 0
BITMAP
38
44
00
10
10
20
00
3E
42
82
82
82
82
42
3D
ENDCHAR
STARTCHAR uni1F07
ENCODING 7943
SWIDTH 606 0
DWIDTH 10 0
BBX 8 15 1 0
BITMAP
38
44
00
10
10
08
00
3E
42
82
82
82
82
42
3D
ENDCHAR
STARTCHAR uni1F08
ENCODING 7944
SWIDTH 663 0
DWIDTH 11 0
BBX 11 11 0 0
BITMAP
4400
4A00
8A00
1100
1100
2080
2080
3F80
4040
4040
8020
ENDCHAR
STARTCHAR uni1F09
ENCODING 7945
SWIDTH 663 0
DWIDTH 11 0
BBX 11 11 0 0
BITMAP
8400
4A00
4A00
1100
1100
2080
2080
3F80
4040
4040
8020
ENDCHAR
STARTCHAR uni1F0A
ENCODING 7946
SWIDTH 781 0
DWIDTH 13 0
BBX 14 11 -1 0
BITMAP
5080
4940
8540
0220
0220
0420
0410
0FF0
0808
0808
1004
ENDCHAR
STARTCHAR uni1F0B
ENCODING 7947
SWIDTH 766 0
DWIDTH 13 0
BBX 13 11 -1 0
BITMAP
A180
9180
4A40
0240
0220
0420
0410
0FF0
0808
1008
1008
ENDCHAR
STARTCHAR uni1F0C
ENCODING 7948
SWIDTH 725 0
DWIDTH 12 0
BBX 13 11 -1 0
BITMAP
4900
4A80
9280
0440
0440
0820
0820
0FE0
1010
1010
2008
ENDCHAR
STARTCHAR uni1F0D
ENCODING 7949
SWIDTH 752 0
DWIDTH 12 0
BBX 12 11 0 0
BITMAP
8700
8B00
5C80
0480
0880
0840
1040
1FE0
1020
2010
2010
ENDCHAR
STARTCHAR uni1F0E
ENCODING 7950
SWIDTH 663 0
DWIDTH 11 0
BBX 13 13 -2 0
BITMAP
7800
C800
0100
2280
2280
6440
0440
0820
0820
0FE0
1010
1010
2008
ENDCHAR
STARTCHAR uni1F0F
ENCODING 7951
SWIDTH 673 0
DWIDTH 11 0
BBX 12 13 -1 0
BITMAP
7800
C800
0200
2500
2500
1480
0880
0840
1040
1FE0
2020
2020
4010
ENDCHAR
STARTCHAR uni1F10
ENCODING 7952
SWIDTH 503 0
DWIDTH 8 0
BBX 7 12 1 0
BITMAP
10
10
20
00
7C
80
80
70
80
80
80
7E
ENDCHAR
STARTCHAR uni1F11
ENCODING 7953
SWIDTH 503 0
DWIDTH 8 0
BBX 7 12 1 0
BITMAP
20
20
10
00
7C
80
80
70
80
80
80
7E
ENDCHAR
STARTCHAR uni1F12
ENCODING 7954
SWIDTH 503 0
DWIDTH 8 0
BBX 7 12 1 0
BITMAP
50
48
C4
00
7C
80
80
70
80
80
80
7E
ENDCHAR
STARTCHAR uni1F13
ENCODING 7955
SWIDTH 503 0
DWIDTH 8 0
BBX 7 12 1 0
BITMAP
50
48
24
00
7C
80
80
70
80
80
80
7E
ENDCHAR
STARTCHAR uni1F14
ENCODING 7956
SWIDTH 503 0
DWIDTH 8 0
BBX 7 12 1 0
BITMAP
24
24
48
00
7C
80
80
70
80
80
80
7E
ENDCHAR
STARTCHAR uni1F15
ENCODING 7957
SWIDTH 503 0
DWIDTH 8 0
BBX 7 12 1 0
BITMAP
84
8C
58
00
7C
80
80
70
80
80
80
7E
ENDCHAR
STARTCHAR uni1F18
ENCODING 7960
SWIDTH 634 0
DWIDTH 10 0
BBX 11 11 -2 0
BITMAP
4FE0
4800
C800
0800
0800
0FC0
0800
0800
0800
0800
0FE0
ENDCHAR
STARTCHAR uni1F19
ENCODING 7961
SWIDTH 634 0
DWIDTH 10 0
BBX 8 11 1 0
BITMAP
FF
C0
40
40
40
7E
40
40
40
40
7F
ENDCHAR
STARTCHAR uni1F1A
ENCODING 7962
SWIDTH 824 0
DWIDTH 13 0
BBX 13 11 -1 0
BITMAP
53F8
4A00
8600
0200
0200
03F0
0200
0200
0200
0200
03F8
ENDCHAR
STARTCHAR uni1F1B
ENCODING 7963
SWIDTH 809 0
DWIDTH 13 0
BBX 12 11 0 0
BITMAP
A7F0
9400
4C00
0400
0400
07E0
0400
0400
0400
0400
07F0
ENDCHAR
STARTCHAR uni1F1C
ENCODING 7964
SWIDTH 802 0
DWIDTH 13 0
BBX 13 11 -1 0
BITMAP
4BF8
4A00
9200
0200
0200
03F0
0200
0200
0200
0200
03F8
ENDCHAR
STARTCHAR uni1F1D
ENCODING 7965
SWIDTH 829 0
DWIDTH 13 0
BBX 12 11 0 0
BITMAP
87F0
8C00
5C00
0400
0400
07E0
0400
0400
0400
0400
07F0
ENDCHAR
STARTCHAR uni1F20
ENCODING 7968
SWIDTH 574 0
DWIDTH 9 0
BBX 7 15 1 -3
BITMAP
08
08
10
00
F8
84
82
82
82
82
82
82
02
02
02
ENDCHAR
STARTCHAR uni1F21
ENCODING 7969
SWIDTH 574 0
DWIDTH 9 0
BBX 7 15 1 -3
BITMAP
10
10
18
00
F8
84
82
82
82
82
82
82
02
02
02
ENDCHAR
STARTCHAR uni1F22
ENCODING 7970
SWIDTH 574 0
DWIDTH 9 0
BBX 7 15 1 -3
BITMAP
28
24
42
00
F8
84
82
82
82
82
82
82
02
02
02
ENDCHAR
STARTCHAR uni1F23
ENCODING 7971
SWIDTH 574 0
DWIDTH 9 0
BBX 7 15 1 -3
BITMAP
B0
90
48
00
F8
84
82
82
82
82
82
82
02
02
02
ENDCHAR
STARTCHAR uni1F24
ENCODING 7972
SWIDTH 574 0
DWIDTH 9 0
BBX 7 15 1 -3
BITMAP
22
24
4C
00
F8
84
82
82
82
82
82
82
02
02
02
ENDCHAR
STARTCHAR uni1F25
ENCODING 7973
SWIDTH 574 0
DWIDTH 9 0
BBX 7 15 1 -3
BITMAP
46
44
28
00
F8
84
82
82
82
82
82
82
02
02
02
ENDCHAR
STARTCHAR uni1F26
ENCODING 7974
SWIDTH 574 0
DWIDTH 9 0
BBX 7 18 1 -3
BITMAP
78
4C
00
10
10
20
00
F8
84
82
82
82
82
82
82
02
02
02
ENDCHAR
STARTCHAR uni1F27
ENCODING 7975
SWIDTH 574 0
DWIDTH 9 0
BBX 7 18 1 -3
BITMAP
78
4C
00
10
10
08
00
F8
84
82
82
82
82
82
82
02
02
02
ENDCHAR
STARTCHAR uni1F28
ENCODING 7976
SWIDTH 768 0
DWIDTH 12 0
BBX 13 11 -2 0
BITMAP
4808
4808
C808
0808
0808
0FF8
0808
0808
0808
0808
0808
ENDCHAR
STARTCHAR uni1F29
ENCODING 7977
SWIDTH 768 0
DWIDTH 12 0
BBX 10 11 1 0
BITMAP
C040
C040
4040
4040
4040
7FC0
4040
4040
4040
4040
4040
ENDCHAR
STARTCHAR uni1F2A
ENCODING 7978
SWIDTH 958 0
DWIDTH 15 0
BBX 15 11 -1 0
BITMAP
5202
4A02
8602
0202
0202
03FE
0202
0202
0202
0202
0202
ENDCHAR
STARTCHAR uni1F2B
ENCODING 7979
SWIDTH 943 0
DWIDTH 15 0
BBX 14 11 0 0
BITMAP
A404
9404
4C04
0404
0404
07FC
0404
0404
0404
0404
0404
ENDCHAR
STARTCHAR uni1F2C
ENCODING 7980
SWIDTH 936 0
DWIDTH 15 0
BBX 15 11 -1 0
BITMAP
4A02
4A02
9202
0202
0202
03FE
0202
0202
0202
0202
0202
ENDCHAR
STARTCHAR uni1F2D
ENCODING 7981
SWIDTH 963 0
DWIDTH 15 0
BBX 14 11 0 0
BITMAP
8404
8C04
5C04
0404
0404
07FC
0404
0404
0404
0404
0404
ENDCHAR
STARTCHAR uni1F2E
ENCODING 7982
SWIDTH 881 0
DWIDTH 14 0
BBX 15 13 -2 0
BITMAP
7800
C800
0202
2202
2202
6202
0202
03FE
0202
0202
0202
0202
0202
ENDCHAR
STARTCHAR uni1F2F
ENCODING 7983
SWIDTH 881 0
DWIDTH 14 0
BBX 14 13 -1 0
BITMAP
7800
C800
0404
2404
2404
1404
0404
07FC
0404
0404
0404
0404
0404
ENDCHAR
STARTCHAR uni1F30
ENCODING 7984
SWIDTH 273 0
DWIDTH 5 0
BBX 3 12 1 0
BITMAP
40
40
80
00
80
80
80
80
80
80
80
60
ENDCHAR
STARTCHAR uni1F31
ENCODING 7985
SWIDTH 273 0
DWIDTH 5 0
BBX 3 12 1 0
BITMAP
80
80
40
00
80
80
80
80
80
80
80
60
ENDCHAR
STARTCHAR uni1F32
ENCODING 7986
SWIDTH 273 0
DWIDTH 5 0
BBX 6 12 -1 0
BITMAP
50
48
84
00
20
20
20
20
20
20
20
18
ENDCHAR
STARTCHAR uni1F33
ENCODING 7987
SWIDTH 273 0
DWIDTH 5 0
BBX 5 12 -1 0
BITMAP
A0
B0
58
00
20
20
20
20
20
20
20
18
ENDCHAR
STARTCHAR uni1F34
ENCODING 7988
SWIDTH 273 0
DWIDTH 5 0
BBX 5 12 0 0
BITMAP
48
58
90
00
40
40
40
40
40
40
40
30
ENDCHAR
STARTCHAR uni1F35
ENCODING 7989
SWIDTH 273 0
DWIDTH 5 0
BBX 6 12 -1 0
BITMAP
84
88
58
00
20
20
20
20
20
20
20
18
ENDCHAR
STARTCHAR uni1F36
ENCODING 7990
SWIDTH 273 0
DWIDTH 5 0
BBX 5 15 -1 0
BITMAP
70
88
00
20
20
40
00
20
20
20
20
20
20
20
18
ENDCHAR
STARTCHAR uni1F37
ENCODING 7991
SWIDTH 273 0
DWIDTH 5 0
BBX 5 15 -1 0
BITMAP
70
88
00
20
20
10
00
20
20
20
20
20
20
20
18
ENDCHAR
STARTCHAR uni1F38
ENCODING 7992
SWIDTH 332 0
DWIDTH 5 0
BBX 5 11 -2 0
BITMAP
48
48
C8
08
08
08
08
08
08
08
08
ENDCHAR
STARTCHAR uni1F39
ENCODING 7993
SWIDTH 332 0
DWIDTH 5 0
BBX 2 11 1 0
BITMAP
C0
C0
40
40
40
40
40
40
40
40
40
ENDCHAR
STARTCHAR uni1F3A
ENCODING 7994
SWIDTH 522 0
DWIDTH 8 0
BBX 7 11 -1 0
BITMAP
52
4A
86
02
02
02
02
02
02
02
02
ENDCHAR
STARTCHAR uni1F3B
ENCODING 7995
SWIDTH 507 0
DWIDTH 8 0
BBX 6 11 0 0
BITMAP
A4
94
4C
04
04
04
04
04
04
04
04
ENDCHAR
STARTCHAR uni1F3C
ENCODING 7996
SWIDTH 500 0
DWIDTH 8 0
BBX 7 11 -1 0
BITMAP
4A
4A
92
02
02
02
02
02
02
02
02
ENDCHAR
STARTCHAR uni1F3D
ENCODING 7997
SWIDTH 527 0
DWIDTH 8 0
BBX 6 11 0 0
BITMAP
84
8C
5C
04
04
04
04
04
04
04
04
ENDCHAR
STARTCHAR uni1F3E
ENCODING 7998
SWIDTH 445 0
DWIDTH 7 0
BBX 7 13 -2 0
BITMAP
78
C8
02
22
22
62
02
02
02
02
02
02
02
ENDCHAR
STARTCHAR uni1F3F
ENCODING 7999
SWIDTH 445 0
DWIDTH 7 0
BBX 6 13 -1 0
BITMAP
78
C8
04
24
24
14
04
04
04
04
04
04
04
ENDCHAR
STARTCHAR uni1F40
ENCODING 8000
SWIDTH 590 0
DWIDTH 10 0
BBX 8 12 1 0
BITMAP
08
08
10
00
3C
42
81
81
81
81
42
3C
ENDCHAR
STARTCHAR uni1F41
ENCODING 8001
SWIDTH 590 0
DWIDTH 10 0
BBX 8 12 1 0
BITMAP
10
10
08
00
3C
42
81
81
81
81
42
3C
ENDCHAR
STARTCHAR uni1F42
ENCODING 8002
SWIDTH 590 0
DWIDTH 10 0
BBX 8 12 1 0
BITMAP
28
24
42
00
3C
42
81
81
81
81
42
3C
ENDCHAR
STARTCHAR uni1F43
ENCODING 8003
SWIDTH 590 0
DWIDTH 10 0
BBX 8 12 1 0
BITMAP
58
4C
24
00
3C
42
81
81
81
81
42
3C
ENDCHAR
STARTCHAR uni1F44
ENCODING 8004
SWIDTH 590 0
DWIDTH 10 0
BBX 8 12 1 0
BITMAP
11
12
26
00
3C
42
81
81
81
81
42
3C
ENDCHAR
STARTCHAR uni1F45
ENCODING 8005
SWIDTH 590 0
DWIDTH 10 0
BBX 8 12 1 0
BITMAP
42
44
28
00
3C
42
81
81
81
81
42
3C
ENDCHAR
STARTCHAR uni1F48
ENCODING 8008
SWIDTH 788 0
DWIDTH 13 0
BBX 13 11 -2 0
BITMAP
43C0
4420
C810
0808
1008
1008
1008
0808
0810
0420
03C0
ENDCHAR
STARTCHAR uni1F49
ENCODING 8009
SWIDTH 824 0
DWIDTH 13 0
BBX 11 11 1 0
BITMAP
9F00
B080
6040
4040
4020
4020
4020
4040
2040
3080
1F00
ENDCHAR
STARTCHAR uni1F4A
ENCODING 8010
SWIDTH 1014 0
DWIDTH 16 0
BBX 16 11 -1 0
BITMAP
5078
4984
8502
0202
0201
0201
0201
0202
0102
0184
0078
ENDCHAR
STARTCHAR uni1F4B
ENCODING 8011
SWIDTH 999 0
DWIDTH 16 0
BBX 15 11 0 0
BITMAP
A1F0
9308
4C04
0404
0404
0402
0404
0404
0404
0308
01F0
ENDCHAR
STARTCHAR uni1F4C
ENCODING 8012
SWIDTH 941 0
DWIDTH 15 0
BBX 15 11 -1 0
BITMAP
49F0
4B08
9204
0404
0402
0402
0402
0404
0204
0308
01F0
ENDCHAR
STARTCHAR uni1F4D
ENCODING 8013
SWIDTH 968 0
DWIDTH 15 0
BBX 14 11 0 0
BITMAP
85E0
8A10
5C08
0804
0804
0804
0804
0804
0408
0210
01E0
ENDCHAR
STARTCHAR uni1F50
ENCODING 8016
SWIDTH 576 0
DWIDTH 9 0
BBX 7 12 1 0
BITMAP
08
08
10
00
82
82
82
82
82
82
44
38
ENDCHAR
STARTCHAR uni1F51
ENCODING 8017
SWIDTH 576 0
DWIDTH 9 0
BBX 7 12 1 0
BITMAP
10
10
18
00
82
82
82
82
82
82
44
38
ENDCHAR
STARTCHAR uni1F52
ENCODING 8018
SWIDTH 576 0
DWIDTH 9 0
BBX 7 12 1 0
BITMAP
28
24
42
00
82
82
82
82
82
82
44
38
ENDCHAR
STARTCHAR uni1F53
ENCODING 8019
SWIDTH 576 0
DWIDTH 9 0
BBX 7 12 1 0
BITMAP
B0
90
48
00
82
82
82
82
82
82
44
38
ENDCHAR
STARTCHAR uni1F54
ENCODING 8020
SWIDTH 576 0
DWIDTH 9 0
BBX 7 12 1 0
BITMAP
22
24
48
00
82
82
82
82
82
82
44
38
ENDCHAR
STARTCHAR uni1F55
ENCODING 8021
SWIDTH 576 0
DWIDTH 9 0
BBX 7 12 1 0
BITMAP
46
4C
28
00
82
82
82
82
82
82
44
38
ENDCHAR
STARTCHAR uni1F56
ENCODING 8022
SWIDTH 576 0
DWIDTH 9 0
BBX 7 15 1 0
BITMAP
78
4C
00
10
10
20
00
82
82
82
82
82
82
44
38
ENDCHAR
STARTCHAR uni1F57
ENCODING 8023
SWIDTH 576 0
DWIDTH 9 0
BBX 7 15 1 0
BITMAP
78
4C
00
10
10
18
00
82
82
82
82
82
82
44
38
ENDCHAR
STARTCHAR uni1F59
ENCODING 8025
SWIDTH 703 0
DWIDTH 11 0
BBX 9 11 1 0
BITMAP
C080
C080
6100
1100
1200
0A00
0C00
0400
0400
0400
0400
ENDCHAR
STARTCHAR uni1F5B
ENCODING 8027
SWIDTH 867 0
DWIDTH 14 0
BBX 13 11 0 0
BITMAP
A408
9408
4A10
0220
0120
0140
00C0
0080
0080
0080
0080
ENDCHAR
STARTCHAR uni1F5D
ENCODING 8029
SWIDTH 919 0
DWIDTH 15 0
BBX 14 11 0 0
BITMAP
8404
8A08
5A08
0110
0090
00A0
0040
0040
0040
0040
0040
ENDCHAR
STARTCHAR uni1F5F
ENCODING 8031
SWIDTH 845 0
DWIDTH 14 0
BBX 14 13 -1 0
BITMAP
7800
C800
0404
2208
2208
1110
0120
00A0
0040
0040
0040
0040
0040
ENDCHAR
STARTCHAR uni1F60
ENCODING 8032
SWIDTH 838 0
DWIDTH 13 0
BBX 11 12 1 0
BITMAP
0200
0200
0400
0000
2080
4040
8420
8420
8420
8420
4A40
3180
ENDCHAR
STARTCHAR uni1F61
ENCODING 8033
SWIDTH 838 0
DWIDTH 13 0
BBX 11 12 1 0
BITMAP
0400
0400
0200
0000
2080
4040
8420
8420
8420
8420
4A40
3180
ENDCHAR
STARTCHAR uni1F62
ENCODING 8034
SWIDTH 838 0
DWIDTH 13 0
BBX 11 12 1 0
BITMAP
0A00
0900
1080
0000
2080
4040
8420
8420
8420
8420
4A40
3180
ENDCHAR
STARTCHAR uni1F63
ENCODING 8035
SWIDTH 838 0
DWIDTH 13 0
BBX 11 12 1 0
BITMAP
2C00
2400
1200
0000
2080
4040
8420
8420
8420
8420
4A40
3180
ENDCHAR
STARTCHAR uni1F64
ENCODING 8036
SWIDTH 838 0
DWIDTH 13 0
BBX 11 12 1 0
BITMAP
0880
0900
1300
0000
2080
4040
8420
8420
8420
8420
4A40
3180
ENDCHAR
STARTCHAR uni1F65
ENCODING 8037
SWIDTH 838 0
DWIDTH 13 0
BBX 11 12 1 0
BITMAP
1180
1100
0A00
0000
2080
4040
8420
8420
8420
8420
4A40
3180
ENDCHAR
STARTCHAR uni1F66
ENCODING 8038
SWIDTH 838 0
DWIDTH 13 0
BBX 11 15 1 0
BITMAP
1E00
1300
0000
0400
0400
0800
0000
2080
4040
8420
8420
8420
8420
4A40
3180
ENDCHAR
STARTCHAR uni1F67
ENCODING 8039
SWIDTH 838 0
DWIDTH 13 0
BBX 11 15 1 0
BITMAP
1E00
1300
0000
0400
0400
0200
0000
2080
4040
8420
8420
8420
8420
4A40
3180
ENDCHAR
STARTCHAR uni1F68
ENCODING 8040
SWIDTH 791 0
DWIDTH 13 0
BBX 14 11 -2 0
BITMAP
43E0
4418
C808
1004
1004
1004
1004
0804
0808
0410
1E3C
ENDCHAR
STARTCHAR uni1F69
ENCODING 8041
SWIDTH 826 0
DWIDTH 13 0
BBX 12 11 1 0
BITMAP
8F80
B040
6020
4020
4010
4010
4010
4020
2020
1040
78F0
ENDCHAR
STARTCHAR uni1F6A
ENCODING 8042
SWIDTH 1016 0
DWIDTH 16 0
BBX 17 11 -1 0
BITMAP
507C00
498200
870100
020100
020080
020080
020080
020100
010100
008200
03C780
ENDCHAR
STARTCHAR uni1F6B
ENCODING 8043
SWIDTH 1001 0
DWIDTH 16 0
BBX 15 11 0 0
BITMAP
A1F0
930C
4C02
0402
0402
0802
0402
0402
0204
0308
0F1E
ENDCHAR
STARTCHAR uni1F6C
ENCODING 8044
SWIDTH 943 0
DWIDTH 15 0
BBX 16 11 -1 0
BITMAP
48F8
4B0C
9402
0402
0402
0401
0402
0402
0204
010C
078F
ENDCHAR
STARTCHAR uni1F6D
ENCODING 8045
SWIDTH 970 0
DWIDTH 16 0
BBX 15 11 0 0
BITMAP
85F0
8E08
5C04
0802
0802
0802
0802
0804
0404
0208
0F1E
ENDCHAR
STARTCHAR uni1F6E
ENCODING 8046
SWIDTH 869 0
DWIDTH 14 0
BBX 15 13 -2 0
BITMAP
7800
C800
01F0
220C
2406
6402
0802
0802
0C02
0402
0404
0208
0F1E
ENDCHAR
STARTCHAR uni1F6F
ENCODING 8047
SWIDTH 898 0
DWIDTH 14 0
BBX 15 13 -1 0
BITMAP
7800
C800
01F0
2608
2404
1802
0802
0802
0802
0804
0404
0208
0F1E
ENDCHAR
STARTCHAR uni1F70
ENCODING 8048
SWIDTH 606 0
DWIDTH 10 0
BBX 8 12 1 0
BITMAP
40
30
08
00
3E
42
82
82
82
82
42
3D
ENDCHAR
STARTCHAR uni1F71
ENCODING 8049
SWIDTH 606 0
DWIDTH 10 0
BBX 8 12 1 0
BITMAP
04
18
20
00
3E
42
82
82
82
82
42
3D
ENDCHAR
STARTCHAR uni1F72
ENCODING 8050
SWIDTH 503 0
DWIDTH 8 0
BBX 7 12 1 0
BITMAP
20
38
08
00
7C
80
80
70
80
80
80
7E
ENDCHAR
STARTCHAR uni1F73
ENCODING 8051
SWIDTH 503 0
DWIDTH 8 0
BBX 7 12 1 0
BITMAP
04
18
30
00
7C
80
80
70
80
80
80
7E
ENDCHAR
STARTCHAR uni1F74
ENCODING 8052
SWIDTH 574 0
DWIDTH 9 0
BBX 7 15 1 -3
BITMAP
40
30
10
00
F8
84
82
82
82
82
82
82
02
02
02
ENDCHAR
STARTCHAR uni1F75
ENCODING 8053
SWIDTH 574 0
DWIDTH 9 0
BBX 7 15 1 -3
BITMAP
04
18
20
00
F8
84
82
82
82
82
82
82
02
02
02
ENDCHAR
STARTCHAR uni1F76
ENCODING 8054
SWIDTH 273 0
DWIDTH 5 0
BBX 5 12 -1 0
BITMAP
C0
60
10
00
20
20
20
20
20
20
20
18
ENDCHAR
STARTCHAR uni1F77
ENCODING 8055
SWIDTH 273 0
DWIDTH 5 0
BBX 4 12 0 0
BITMAP
10
60
80
00
40
40
40
40
40
40
40
30
ENDCHAR
STARTCHAR uni1F78
ENCODING 8056
SWIDTH 590 0
DWIDTH 10 0
BBX 8 12 1 0
BITMAP
20
18
0C
00
3C
42
81
81
81
81
42
3C
ENDCHAR
STARTCHAR uni1F79
ENCODING 8057
SWIDTH 590 0
DWIDTH 10 0
BBX 8 12 1 0
BITMAP
02
0C
10
00
3C
42
81
81
81
81
42
3C
ENDCHAR
STARTCHAR uni1F7A
ENCODING 8058
SWIDTH 576 0
DWIDTH 9 0
BBX 7 12 1 0
BITMAP
40
30
10
00
82
82
82
82
82
82
44
38
ENDCHAR
STARTCHAR uni1F7B
ENCODING 8059
SWIDTH 576 0
DWIDTH 9 0
BBX 7 12 1 0
BITMAP
0C
38
20
00
82
82
82
82
82
82
44
38
ENDCHAR
STARTCHAR uni1F7C
ENCODING 8060
SWIDTH 838 0
DWIDTH 13 0
BBX 11 12 1 0
BITMAP
1000
0C00
0600
0000
2080
4040
8420
8420
8420
8420
4A40
3180
ENDCHAR
STARTCHAR uni1F7D
ENCODING 8061
SWIDTH 838 0
DWIDTH 13 0
BBX 11 12 1 0
BITMAP
0100
0600
0800
0000
2080
4040
8420
8420
8420
8420
4A40
3180
ENDCHAR
STARTCHAR uni1F80
ENCODING 8064
SWIDTH 606 0
DWIDTH 10 0
BBX 8 15 1 -3
BITMAP
08
08
10
00
3E
42
82
82
82
82
42
3D
00
08
0C
ENDCHAR
STARTCHAR uni1F81
ENCODING 8065
SWIDTH 606 0
DWIDTH 10 0
BBX 8 15 1 -3
BITMAP
10
10
08
00
3E
42
82
82
82
82
42
3D
00
08
0C
ENDCHAR
STARTCHAR uni1F82
ENCODING 8066
SWIDTH 606 0
DWIDTH 10 0
BBX 8 15 1 -3
BITMAP
14
12
21
00
3E
42
82
82
82
82
42
3D
00
08
0C
ENDCHAR
STARTCHAR uni1F83
ENCODING 8067
SWIDTH 606 0
DWIDTH 10 0
BBX 8 15 1 -3
BITMAP
B0
98
48
00
3E
42
82
82
82
82
42
3D
00
08
0C
ENDCHAR
STARTCHAR uni1F84
ENCODING 8068
SWIDTH 606 0
DWIDTH 10 0
BBX 8 15 1 -3
BITMAP
44
48
D8
00
3E
42
82
82
82
82
42
3D
00
08
0C
ENDCHAR
STARTCHAR uni1F85
ENCODING 8069
SWIDTH 606 0
DWIDTH 10 0
BBX 8 15 1 -3
BITMAP
42
44
28
00
3E
42
82
82
82
82
42
3D
00
08
0C
ENDCHAR
STARTCHAR uni1F86
ENCODING 8070
SWIDTH 606 0
DWIDTH 10 0
BBX 8 18 1 -3
BITMAP
1C
22
00
08
08
10
00
3E
42
82
82
82
82
42
3D
00
08
0C
ENDCHAR
STARTCHAR uni1F87
ENCODING 8071
SWIDTH 606 0
DWIDTH 10 0
BBX 8 18 1 -3
BITMAP
38
44
00
10
10
08
00
3E
42
82
82
82
82
42
3D
00
08
0C
ENDCHAR
STARTCHAR uni1F88
ENCODING 8072
SWIDTH 940 0
DWIDTH 15 0
BBX 15 11 0 0
BITMAP
4400
4A00
8A00
1108
1108
2088
2088
3F88
4048
4048
802E
ENDCHAR
STARTCHAR uni1F89
ENCODING 8073
SWIDTH 940 0
DWIDTH 15 0
BBX 15 11 0 0
BITMAP
2400
2A00
1A00
1108
1108
2088
2088
3F88
4048
4048
802E
ENDCHAR
STARTCHAR uni1F8A
ENCODING 8074
SWIDTH 1058 0
DWIDTH 17 0
BBX 17 11 -1 0
BITMAP
508000
494000
854000
022100
022100
042100
041100
0FF100
080900
080900
100580
ENDCHAR
STARTCHAR uni1F8B
ENCODING 8075
SWIDTH 1043 0
DWIDTH 17 0
BBX 16 11 0 0
BITMAP
A300
9300
4C80
0484
0444
0844
0824
1FE4
1014
2016
2013
ENDCHAR
STARTCHAR uni1F8C
ENCODING 8076
SWIDTH 1002 0
DWIDTH 16 0
BBX 17 11 -1 0
BITMAP
490000
4A8000
928000
044200
044200
082200
082200
0FE200
101200
101200
200B80
ENDCHAR
STARTCHAR uni1F8D
ENCODING 8077
SWIDTH 1029 0
DWIDTH 16 0
BBX 16 11 0 0
BITMAP
8700
8B00
5C80
0484
0884
0844
1044
1FE4
1024
2014
2013
ENDCHAR
STARTCHAR uni1F8E
ENCODING 8078
SWIDTH 940 0
DWIDTH 15 0
BBX 17 13 -2 0
BITMAP
780000
C80000
010000
228000
228000
644200
044200
082200
082200
0FE200
101200
101200
200B80
ENDCHAR
STARTCHAR uni1F8F
ENCODING 8079
SWIDTH 950 0
DWIDTH 15 0
BBX 16 13 -1 0
BITMAP
7800
C800
0200
2500
2500
1484
0884
0844
1044
1FE4
2024
2024
4013
ENDCHAR
STARTCHAR uni1F90
ENCODING 8080
SWIDTH 574 0
DWIDTH 9 0
BBX 7 15 1 -3
BITMAP
08
08
10
00
F8
84
82
82
82
82
82
82
02
82
42
ENDCHAR
STARTCHAR uni1F91
ENCODING 8081
SWIDTH 574 0
DWIDTH 9 0
BBX 7 15 1 -3
BITMAP
10
10
18
00
F8
84
82
82
82
82
82
82
02
82
42
ENDCHAR
STARTCHAR uni1F92
ENCODING 8082
SWIDTH 574 0
DWIDTH 9 0
BBX 7 15 1 -3
BITMAP
28
24
42
00
F8
84
82
82
82
82
82
82
02
82
42
ENDCHAR
STARTCHAR uni1F93
ENCODING 8083
SWIDTH 574 0
DWIDTH 9 0
BBX 7 15 1 -3
BITMAP
58
48
24
00
F8
84
82
82
82
82
82
82
02
82
42
ENDCHAR
STARTCHAR uni1F94
ENCODING 8084
SWIDTH 574 0
DWIDTH 9 0
BBX 7 15 1 -3
BITMAP
22
24
4C
00
F8
84
82
82
82
82
82
82
02
82
42
ENDCHAR
STARTCHAR uni1F95
ENCODING 8085
SWIDTH 574 0
DWIDTH 9 0
BBX 7 15 1 -3
BITMAP
46
44
28
00
F8
84
82
82
82
82
82
82
02
82
42
ENDCHAR
STARTCHAR uni1F96
ENCODING 8086
SWIDTH 574 0
DWIDTH 9 0
BBX 7 18 1 -3
BITMAP
78
4C
00
10
10
20
00
F8
84
82
82
82
82
82
82
02
82
42
ENDCHAR
STARTCHAR uni1F97
ENCODING 8087
SWIDTH 574 0
DWIDTH 9 0
BBX 7 18 1 -3
BITMAP
78
4C
00
10
10
18
00
F8
84
82
82
82
82
82
82
02
82
42
ENDCHAR
STARTCHAR uni1F98
ENCODING 8088
SWIDTH 1045 0
DWIDTH 17 0
BBX 18 11 -2 0
BITMAP
480800
480800
C80800
080900
080900
0FF900
080900
080900
080900
080980
0808C0
ENDCHAR
STARTCHAR uni1F99
ENCODING 8089
SWIDTH 1045 0
DWIDTH 17 0
BBX 15 11 1 0
BITMAP
C040
C040
4040
4048
4048
7FC8
4048
4048
4048
404C
4046
ENDCHAR
STARTCHAR uni1F9A
ENCODING 8090
SWIDTH 1235 0
DWIDTH 20 0
BBX 20 11 -1 0
BITMAP
520200
4A0200
860200
020240
020240
03FE40
020240
020240
020240
020260
020230
ENDCHAR
STARTCHAR uni1F9B
ENCODING 8091
SWIDTH 1220 0
DWIDTH 20 0
BBX 19 11 0 0
BITMAP
A40400
940400
4C0400
040480
040480
07FC80
040480
040480
040480
040480
040460
ENDCHAR
STARTCHAR uni1F9C
ENCODING 8092
SWIDTH 1213 0
DWIDTH 19 0
BBX 20 11 -1 0
BITMAP
4A0200
4A0200
920200
020240
020240
03FE40
020240
020240
020240
020240
020230
ENDCHAR
STARTCHAR uni1F9D
ENCODING 8093
SWIDTH 1240 0
DWIDTH 20 0
BBX 19 11 0 0
BITMAP
840400
8C0400
5C0400
040480
040480
07FC80
040480
040480
040480
040440
040460
ENDCHAR
STARTCHAR uni1F9E
ENCODING 8094
SWIDTH 1158 0
DWIDTH 19 0
BBX 20 13 -2 0
BITMAP
780000
C80000
020200
220200
220200
620240
020240
03FE40
020240
020240
020240
020240
020230
ENDCHAR
STARTCHAR uni1F9F
ENCODING 8095
SWIDTH 1158 0
DWIDTH 19 0
BBX 19 13 -1 0
BITMAP
780000
C80000
040400
240400
240400
140480
040480
07FC80
040480
040480
040480
040480
040460
ENDCHAR
STARTCHAR uni1FA0
ENCODING 8096
SWIDTH 838 0
DWIDTH 13 0
BBX 11 15 1 -3
BITMAP
0200
0200
0400
0000
2080
4040
8420
8420
8420
8420
4A40
3180
0000
0400
0600
ENDCHAR
STARTCHAR uni1FA1
ENCODING 8097
SWIDTH 838 0
DWIDTH 13 0
BBX 11 15 1 -3
BITMAP
0400
0400
0200
0000
2080
4040
8420
8420
8420
8420
4A40
3180
0000
0400
0600
ENDCHAR
STARTCHAR uni1FA2
ENCODING 8098
SWIDTH 838 0
DWIDTH 13 0
BBX 11 15 1 -3
BITMAP
0A00
0900
1080
0000
2080
4040
8420
8420
8420
8420
4A40
3180
0000
0400
0600
ENDCHAR
STARTCHAR uni1FA3
ENCODING 8099
SWIDTH 838 0
DWIDTH 13 0
BBX 11 15 1 -3
BITMAP
2C00
2400
1200
0000
2080
4040
8420
8420
8420
8420
4A40
3180
0000
0400
0600
ENDCHAR
STARTCHAR uni1FA4
ENCODING 8100
SWIDTH 838 0
DWIDTH 13 0
BBX 11 15 1 -3
BITMAP
0880
0900
1300
0000
2080
4040
8420
8420
8420
8420
4A40
3180
0000
0400
0600
ENDCHAR
STARTCHAR uni1FA5
ENCODING 8101
SWIDTH 838 0
DWIDTH 13 0
BBX 11 15 1 -3
BITMAP
1180
1100
0A00
0000
2080
4040
8420
8420
8420
8420
4A40
3180
0000
0400
0600
ENDCHAR
STARTCHAR uni1FA6
ENCODING 8102
SWIDTH 838 0
DWIDTH 13 0
BBX 11 18 1 -3
BITMAP
1E00
1300
0000
0400
0400
0800
0000
2080
4040
8420
8420
8420
8420
4A40
3180
0000
0400
0600
ENDCHAR
STARTCHAR uni1FA7
ENCODING 8103
SWIDTH 838 0
DWIDTH 13 0
BBX 11 18 1 -3
BITMAP
1E00
1300
0000
0400
0400
0200
0000
2080
4040
8420
8420
8420
8420
4A40
3180
0000
0400
0600
ENDCHAR
STARTCHAR uni1FA8
ENCODING 8104
SWIDTH 1068 0
DWIDTH 17 0
BBX 19 11 -2 0
BITMAP
43E000
441800
C80800
100480
100480
100480
100480
080480
080880
041080
1E3CE0
ENDCHAR
STARTCHAR uni1FA9
ENCODING 8105
SWIDTH 1103 0
DWIDTH 18 0
BBX 16 11 1 0
BITMAP
8F80
B040
6020
4024
4014
4014
4014
4024
2024
1046
78F3
ENDCHAR
STARTCHAR uni1FAA
ENCODING 8106
SWIDTH 1293 0
DWIDTH 21 0
BBX 21 11 -1 0
BITMAP
507C00
498200
870100
020120
0200A0
0200A0
0200A0
020120
010120
008230
03C798
ENDCHAR
STARTCHAR uni1FAB
ENCODING 8107
SWIDTH 1278 0
DWIDTH 20 0
BBX 20 11 0 0
BITMAP
A1F000
930C00
4C0200
040240
040240
080240
040240
040240
020440
030840
0F1E30
ENDCHAR
STARTCHAR uni1FAC
ENCODING 8108
SWIDTH 1220 0
DWIDTH 20 0
BBX 20 11 -1 0
BITMAP
48F800
4B0C00
940200
040240
040240
040140
040240
040240
020440
010C40
078F30
ENDCHAR
STARTCHAR uni1FAD
ENCODING 8109
SWIDTH 1247 0
DWIDTH 20 0
BBX 19 11 0 0
BITMAP
85F000
8E0800
5C0400
080240
080240
080240
080240
080440
040440
020840
0F1E60
ENDCHAR
STARTCHAR uni1FAE
ENCODING 8110
SWIDTH 1146 0
DWIDTH 18 0
BBX 20 13 -2 0
BITMAP
780000
C80000
01F000
220C00
240600
640240
080240
080240
0C0240
040240
040440
020840
0F1E30
ENDCHAR
STARTCHAR uni1FAF
ENCODING 8111
SWIDTH 1175 0
DWIDTH 19 0
BBX 19 13 -1 0
BITMAP
780000
C80000
01F000
260800
240400
180280
080280
080280
080280
080480
040480
020840
0F1E60
ENDCHAR
STARTCHAR uni1FB0
ENCODING 8112
SWIDTH 606 0
DWIDTH 10 0
BBX 8 12 1 0
BITMAP
24
38
00
00
3E
42
82
82
82
82
42
3D
ENDCHAR
STARTCHAR uni1FB1
ENCODING 8113
SWIDTH 606 0
DWIDTH 10 0
BBX 8 11 1 0
BITMAP
7C
00
00
3E
42
82
82
82
82
42
3D
ENDCHAR
STARTCHAR uni1FB2
ENCODING 8114
SWIDTH 606 0
DWIDTH 10 0
BBX 8 15 1 -3
BITMAP
40
30
08
00
3E
42
82
82
82
82
42
3D
00
08
0C
ENDCHAR
STARTCHAR uni1FB3
ENCODING 8115
SWIDTH 606 0
DWIDTH 10 0
BBX 8 11 1 -3
BITMAP
3E
42
82
82
82
82
42
3D
00
08
0C
ENDCHAR
STARTCHAR uni1FB4
ENCODING 8116
SWIDTH 606 0
DWIDTH 10 0
BBX 8 15 1 -3
BITMAP
02
0C
10
00
3E
42
82
82
82
82
42
3D
00
08
0C
ENDCHAR
STARTCHAR uni1FB6
ENCODING 8118
SWIDTH 606 0
DWIDTH 10 0
BBX 8 12 1 0
BITMAP
38
24
00
00
3E
42
82
82
82
82
42
3D
ENDCHAR
STARTCHAR uni1FB7
ENCODING 8119
SWIDTH 606 0
DWIDTH 10 0
BBX 8 15 1 -3
BITMAP
38
24
00
00
3E
42
82
82
82
82
42
3D
00
08
0C
ENDCHAR
STARTCHAR uni1FB8
ENCODING 8120
SWIDTH 663 0
DWIDTH 11 0
BBX 11 15 0 0
BITMAP
1200
0E00
0000
0000
0400
0A00
0A00
1100
1100
2080
2080
3F80
4040
4040
8020
ENDCHAR
STARTCHAR uni1FB9
ENCODING 8121
SWIDTH 663 0
DWIDTH 11 0
BBX 11 14 0 0
BITMAP
1F00
0000
0000
0400
0A00
0A00
1100
1100
2080
2080
3F80
4040
4040
8020
ENDCHAR
STARTCHAR uni1FBA
ENCODING 8122
SWIDTH 663 0
DWIDTH 11 0
BBX 11 11 0 0
BITMAP
8400
CA00
4A00
1100
1100
2080
2080
3F80
4040
4040
8020
ENDCHAR
STARTCHAR uni1FBB
ENCODING 8123
SWIDTH 663 0
DWIDTH 11 0
BBX 11 11 0 0
BITMAP
2400
6A00
8A00
1100
1100
2080
2080
3F80
4040
4040
8020
ENDCHAR
STARTCHAR uni1FBC
ENCODING 8124
SWIDTH 940 0
DWIDTH 15 0
BBX 15 11 0 0
BITMAP
0400
0A00
0A00
1108
1108
2088
2088
3F88
4048
4048
802E
ENDCHAR
STARTCHAR uni1FBD
ENCODING 8125
SWIDTH 376 0
DWIDTH 6 0
BBX 2 3 1 9
BITMAP
40
40
80
ENDCHAR
STARTCHAR uni1FBE
ENCODING 8126
SWIDTH 273 0
DWIDTH 4 0
BBX 2 2 1 -3
BITMAP
80
40
ENDCHAR
STARTCHAR uni1FBF
ENCODING 8127
SWIDTH 376 0
DWIDTH 6 0
BBX 2 3 1 9
BITMAP
40
40
80
ENDCHAR
STARTCHAR uni1FC0
ENCODING 8128
SWIDTH 376 0
DWIDTH 6 0
BBX 4 2 1 10
BITMAP
60
90
ENDCHAR
STARTCHAR uni1FC1
ENCODING 8129
SWIDTH 376 0
DWIDTH 6 0
BBX 5 5 0 9
BITMAP
70
88
00
50
50
ENDCHAR
STARTCHAR uni1FC2
ENCODING 8130
SWIDTH 574 0
DWIDTH 9 0
BBX 7 15 1 -3
BITMAP
40
30
10
00
F8
84
82
82
82
82
82
82
02
82
42
ENDCHAR
STARTCHAR uni1FC3
ENCODING 8131
SWIDTH 574 0
DWIDTH 9 0
BBX 7 11 1 -3
BITMAP
F8
84
82
82
82
82
82
82
02
42
22
ENDCHAR
STARTCHAR uni1FC4
ENCODING 8132
SWIDTH 574 0
DWIDTH 9 0
BBX 7 15 1 -3
BITMAP
04
18
20
00
F8
84
82
82
82
82
82
82
02
82
42
ENDCHAR
STARTCHAR uni1FC6
ENCODING 8134
SWIDTH 574 0
DWIDTH 9 0
BBX 7 15 1 -3
BITMAP
38
24
00
00
F8
84
82
82
82
82
82
82
02
02
02
ENDCHAR
STARTCHAR uni1FC7
ENCODING 8135
SWIDTH 574 0
DWIDTH 9 0
BBX 7 15 1 -3
BITMAP
38
24
00
00
F8
84
82
82
82
82
82
82
02
82
42
ENDCHAR
STARTCHAR uni1FC8
ENCODING 8136
SWIDTH 692 0
DWIDTH 11 0
BBX 10 11 0 0
BITMAP
9FC0
D000
5000
1000
1000
1F80
1000
1000
1000
1000
1FC0
ENDCHAR
STARTCHAR uni1FC9
ENCODING 8137
SWIDTH 692 0
DWIDTH 11 0
BBX 10 11 0 0
BITMAP
5FC0
D000
9000
1000
1000
1F80
1000
1000
1000
1000
1FC0
ENDCHAR
STARTCHAR uni1FCA
ENCODING 8138
SWIDTH 826 0
DWIDTH 13 0
BBX 12 11 0 0
BITMAP
9010
D010
5010
1010
1010
1FF0
1010
1010
1010
1010
1010
ENDCHAR
STARTCHAR uni1FCB
ENCODING 8139
SWIDTH 826 0
DWIDTH 13 0
BBX 12 11 0 0
BITMAP
5010
D010
9010
1010
1010
1FF0
1010
1010
1010
1010
1010
ENDCHAR
STARTCHAR uni1FCC
ENCODING 8140
SWIDTH 982 0
DWIDTH 16 0
BBX 14 11 1 0
BITMAP
8080
8080
8080
8090
8090
FF90
8090
8090
8090
8098
808C
ENDCHAR
STARTCHAR uni1FCD
ENCODING 8141
SWIDTH 376 0
DWIDTH 6 0
BBX 6 3 0 9
BITMAP
50
48
84
ENDCHAR
STARTCHAR uni1FCE
ENCODING 8142
SWIDTH 376 0
DWIDTH 6 0
BBX 6 3 0 9
BITMAP
44
48
90
ENDCHAR
STARTCHAR uni1FCF
ENCODING 8143
SWIDTH 376 0
DWIDTH 6 0
BBX 5 6 0 9
BITMAP
70
88
00
20
20
40
ENDCHAR
STARTCHAR uni1FD0
ENCODING 8144
SWIDTH 273 0
DWIDTH 5 0
BBX 4 12 0 0
BITMAP
90
60
00
00
40
40
40
40
40
40
40
30
ENDCHAR
STARTCHAR uni1FD1
ENCODING 8145
SWIDTH 273 0
DWIDTH 5 0
BBX 5 11 -1 0
BITMAP
F8
00
00
20
20
20
20
20
20
20
18
ENDCHAR
STARTCHAR uni1FD2
ENCODING 8146
SWIDTH 273 0
DWIDTH 5 0
BBX 7 13 -2 0
BITMAP
20
92
92
08
00
10
10
10
10
10
10
10
0C
ENDCHAR
STARTCHAR uni1FD3
ENCODING 8147
SWIDTH 273 0
DWIDTH 5 0
BBX 7 13 -2 0
BITMAP
08
9A
92
20
00
10
10
10
10
10
10
10
0C
ENDCHAR
STARTCHAR uni1FD6
ENCODING 8150
SWIDTH 273 0
DWIDTH 5 0
BBX 4 12 0 0
BITMAP
60
90
00
00
40
40
40
40
40
40
40
30
ENDCHAR
STARTCHAR uni1FD7
ENCODING 8151
SWIDTH 273 0
DWIDTH 5 0
BBX 5 14 -1 0
BITMAP
70
88
00
50
50
00
20
20
20
20
20
20
20
18
ENDCHAR
STARTCHAR uni1FD8
ENCODING 8152
SWIDTH 269 0
DWIDTH 3 0
BBX 4 15 -1 0
BITMAP
90
70
00
00
20
20
20
20
20
20
20
20
20
20
20
ENDCHAR
STARTCHAR uni1FD9
ENCODING 8153
SWIDTH 269 0
DWIDTH 3 0
BBX 5 14 -1 0
BITMAP
F8
00
00
20
20
20
20
20
20
20
20
20
20
20
ENDCHAR
STARTCHAR uni1FDA
ENCODING 8154
SWIDTH 390 0
DWIDTH 6 0
BBX 4 11 0 0
BITMAP
90
D0
50
10
10
10
10
10
10
10
10
ENDCHAR
STARTCHAR uni1FDB
ENCODING 8155
SWIDTH 390 0
DWIDTH 6 0
BBX 4 11 0 0
BITMAP
50
D0
90
10
10
10
10
10
10
10
10
ENDCHAR
STARTCHAR uni1FDD
ENCODING 8157
SWIDTH 376 0
DWIDTH 6 0
BBX 5 3 1 9
BITMAP
A0
90
48
ENDCHAR
STARTCHAR uni1FDE
ENCODING 8158
SWIDTH 376 0
DWIDTH 6 0
BBX 6 3 1 9
BITMAP
84
88
50
ENDCHAR
STARTCHAR uni1FDF
ENCODING 8159
SWIDTH 376 0
DWIDTH 6 0
BBX 5 6 1 9
BITMAP
70
88
00
20
20
10
ENDCHAR
STARTCHAR uni1FE0
ENCODING 8160
SWIDTH 576 0
DWIDTH 9 0
BBX 7 12 1 0
BITMAP
2C
38
00
00
82
82
82
82
82
82
44
38
ENDCHAR
STARTCHAR uni1FE1
ENCODING 8161
SWIDTH 576 0
DWIDTH 9 0
BBX 7 11 1 0
BITMAP
7C
00
00
82
82
82
82
82
82
44
38
ENDCHAR
STARTCHAR uni1FE2
ENCODING 8162
SWIDTH 576 0
DWIDTH 9 0
BBX 7 13 1 0
BITMAP
20
A2
92
08
00
82
82
82
82
82
82
44
38
ENDCHAR
STARTCHAR uni1FE3
ENCODING 8163
SWIDTH 576 0
DWIDTH 9 0
BBX 7 13 1 0
BITMAP
08
92
A2
20
00
82
82
82
82
82
82
44
38
ENDCHAR
STARTCHAR uni1FE4
ENCODING 8164
SWIDTH 595 0
DWIDTH 10 0
BBX 8 15 1 -3
BITMAP
08
08
10
00
3C
42
81
81
81
81
C2
BC
80
80
80
ENDCHAR
STARTCHAR uni1FE5
ENCODING 8165
SWIDTH 595 0
DWIDTH 10 0
BBX 8 15 1 -3
BITMAP
10
10
08
00
3C
42
81
81
81
81
C2
BC
80
80
80
ENDCHAR
STARTCHAR uni1FE6
ENCODING 8166
SWIDTH 576 0
DWIDTH 9 0
BBX 7 12 1 0
BITMAP
38
2C
00
00
82
82
82
82
82
82
44
38
ENDCHAR
STARTCHAR uni1FE7
ENCODING 8167
SWIDTH 576 0
DWIDTH 9 0
BBX 7 14 1 0
BITMAP
78
4C
00
28
28
00
82
82
82
82
82
82
44
38
ENDCHAR
STARTCHAR uni1FE8
ENCODING 8168
SWIDTH 598 0
DWIDTH 9 0
BBX 9 15 0 0
BITMAP
1200
1C00
0000
0000
8080
4100
4100
2200
2200
1400
0800
0800
0800
0800
0800
ENDCHAR
STARTCHAR uni1FE9
ENCODING 8169
SWIDTH 598 0
DWIDTH 9 0
BBX 9 14 0 0
BITMAP
3E00
0000
0000
8080
4100
4100
2200
2200
1400
0800
0800
0800
0800
0800
ENDCHAR
STARTCHAR uni1FEA
ENCODING 8170
SWIDTH 740 0
DWIDTH 12 0
BBX 11 11 0 0
BITMAP
9020
D040
4840
0880
0480
0500
0300
0200
0200
0200
0200
ENDCHAR
STARTCHAR uni1FEB
ENCODING 8171
SWIDTH 782 0
DWIDTH 13 0
BBX 12 11 0 0
BITMAP
5010
C820
8820
0440
0480
0280
0100
0100
0100
0100
0100
ENDCHAR
STARTCHAR uni1FEC
ENCODING 8172
SWIDTH 671 0
DWIDTH 11 0
BBX 9 11 1 0
BITMAP
FE00
C100
4080
4080
4080
4100
7E00
4000
4000
4000
4000
ENDCHAR
STARTCHAR uni1FED
ENCODING 8173
SWIDTH 376 0
DWIDTH 6 0
BBX 7 4 -1 9
BITMAP
20
92
92
08
ENDCHAR
STARTCHAR uni1FEE
ENCODING 8174
SWIDTH 376 0
DWIDTH 6 0
BBX 7 4 1 9
BITMAP
08
92
92
20
ENDCHAR
STARTCHAR uni1FEF
ENCODING 8175
SWIDTH 376 0
DWIDTH 6 0
BBX 4 3 1 9
BITMAP
80
60
10
ENDCHAR
STARTCHAR uni1FF2
ENCODING 8178
SWIDTH 838 0
DWIDTH 13 0
BBX 11 15 1 -3
BITMAP
1000
0C00
0600
0000
2080
4040
8420
8420
8420
8420
4A40
3180
0000
0400
0600
ENDCHAR
STARTCHAR uni1FF3
ENCODING 8179
SWIDTH 838 0
DWIDTH 13 0
BBX 11 11 1 -3
BITMAP
2080
4040
8420
8420
8420
8420
4A40
3180
0000
0400
0600
ENDCHAR
STARTCHAR uni1FF4
ENCODING 8180
SWIDTH 838 0
DWIDTH 13 0
BBX 11 15 1 -3
BITMAP
0100
0600
0800
0000
2080
4040
8420
8420
8420
8420
4A40
3180
0000
0400
0600
ENDCHAR
STARTCHAR uni1FF6
ENCODING 8182
SWIDTH 838 0
DWIDTH 13 0
BBX 11 12 1 0
BITMAP
0E00
0900
0000
0000
2080
4040
8420
8420
8420
8420
4A40
3180
ENDCHAR
STARTCHAR uni1FF7
ENCODING 8183
SWIDTH 838 0
DWIDTH 13 0
BBX 11 15 1 -3
BITMAP
0E00
0900
0000
0000
2080
4040
8420
8420
8420
8420
4A40
3180
0000
0400
0600
ENDCHAR
STARTCHAR uni1FF8
ENCODING 8184
SWIDTH 881 0
DWIDTH 14 0
BBX 13 11 0 0
BITMAP
87C0
CC20
4810
1010
1008
1008
1008
1010
0810
0C20
07C0
ENDCHAR
STARTCHAR uni1FF9
ENCODING 8185
SWIDTH 834 0
DWIDTH 13 0
BBX 12 11 0 0
BITMAP
4780
C840
9020
2010
2010
2010
2010
2010
1020
0840
0780
ENDCHAR
STARTCHAR uni1FFA
ENCODING 8186
SWIDTH 883 0
DWIDTH 14 0
BBX 14 11 0 0
BITMAP
83E0
CC30
5008
1008
1004
1004
1008
1008
0810
0410
1E3C
ENDCHAR
STARTCHAR uni1FFB
ENCODING 8187
SWIDTH 837 0
DWIDTH 13 0
BBX 13 11 0 0
BITMAP
47C0
D820
9010
2008
2008
2008
2008
2010
1010
0820
3C78
ENDCHAR
STARTCHAR uni1FFC
ENCODING 8188
SWIDTH 1061 0
DWIDTH 17 0
BBX 15 11 1 0
BITMAP
1F00
2080
4040
8024
8024
8024
8024
4044
4044
2084
F1E6
ENDCHAR
STARTCHAR uni1FFD
ENCODING 8189
SWIDTH 376 0
DWIDTH 6 0
BBX 4 3 1 9
BITMAP
10
60
80
ENDCHAR
STARTCHAR uni1FFE
ENCODING 8190
SWIDTH 376 0
DWIDTH 6 0
BBX 2 3 3 9
BITMAP
80
80
40
ENDCHAR
STARTCHAR endash
ENCODING 8211
SWIDTH 496 0
DWIDTH 8 0
BBX 8 1 0 4
BITMAP
FF
ENDCHAR
STARTCHAR emdash
ENCODING 8212
SWIDTH 996 0
DWIDTH 16 0
BBX 16 1 0 4
BITMAP
FFFF
ENDCHAR
STARTCHAR afii00208
ENCODING 8213
SWIDTH 996 0
DWIDTH 16 0
BBX 16 1 0 4
BITMAP
FFFF
ENDCHAR
STARTCHAR quoteleft
ENCODING 8216
SWIDTH 235 0
DWIDTH 4 0
BBX 2 4 2 8
BITMAP
40
80
80
80
ENDCHAR
STARTCHAR quoteright
ENCODING 8217
SWIDTH 235 0
DWIDTH 4 0
BBX 2 4 0 8
BITMAP
40
40
40
80
ENDCHAR
STARTCHAR quotesinglbase
ENCODING 8218
SWIDTH 235 0
DWIDTH 4 0
BBX 2 4 0 -2
BITMAP
40
40
40
80
ENDCHAR
STARTCHAR quotedblleft
ENCODING 8220
SWIDTH 417 0
DWIDTH 7 0
BBX 5 4 2 8
BITMAP
48
90
90
90
ENDCHAR
STARTCHAR quotedblright
ENCODING 8221
SWIDTH 417 0
DWIDTH 7 0
BBX 5 4 0 8
BITMAP
48
48
48
90
ENDCHAR
STARTCHAR quotedblbase
ENCODING 8222
SWIDTH 417 0
DWIDTH 7 0
BBX 5 4 0 -2
BITMAP
48
48
48
90
ENDCHAR
STARTCHAR dagger
ENCODING 8224
SWIDTH 476 0
DWIDTH 8 0
BBX 5 12 1 -2
BITMAP
20
20
20
F8
20
20
20
20
20
20
20
20
ENDCHAR
STARTCHAR daggerdbl
ENCODING 8225
SWIDTH 476 0
DWIDTH 8 0
BBX 5 12 1 -2
BITMAP
20
20
20
F8
20
20
20
F8
20
20
20
20
ENDCHAR
STARTCHAR bullet
ENCODING 8226
SWIDTH 360 0
DWIDTH 6 0
BBX 4 4 1 4
BITMAP
60
F0
F0
60
ENDCHAR
STARTCHAR ellipsis
ENCODING 8230
SWIDTH 996 0
DWIDTH 16 0
BBX 11 2 2 0
BITMAP
8420
8420
ENDCHAR
STARTCHAR perthousand
ENCODING 8240
SWIDTH 1227 0
DWIDTH 20 0
BBX 18 11 1 0
BITMAP
704000
888000
890000
890000
8A0000
74E380
051440
091440
091440
111440
20E380
ENDCHAR
STARTCHAR guilsinglleft
ENCODING 8249
SWIDTH 291 0
DWIDTH 5 0
BBX 4 7 0 1
BITMAP
10
20
40
80
40
20
10
ENDCHAR
STARTCHAR guilsinglright
ENCODING 8250
SWIDTH 291 0
DWIDTH 5 0
BBX 4 7 0 1
BITMAP
80
40
20
10
20
40
80
ENDCHAR
STARTCHAR fraction
ENCODING 8260
SWIDTH 148 0
DWIDTH 2 0
BBX 8 11 -3 0
BITMAP
01
02
04
04
08
10
10
20
20
40
80
ENDCHAR
STARTCHAR zerosuperior
ENCODING 8304
SWIDTH 359 0
DWIDTH 6 0
BBX 4 6 1 5
BITMAP
60
90
90
90
90
60
ENDCHAR
STARTCHAR foursuperior
ENCODING 8308
SWIDTH 359 0
DWIDTH 6 0
BBX 5 6 0 5
BITMAP
10
30
50
90
F8
10
ENDCHAR
STARTCHAR fivesuperior
ENCODING 8309
SWIDTH 359 0
DWIDTH 6 0
BBX 4 6 1 5
BITMAP
F0
80
E0
10
10
E0
ENDCHAR
STARTCHAR sixsuperior
ENCODING 8310
SWIDTH 359 0
DWIDTH 6 0
BBX 4 6 1 5
BITMAP
30
40
E0
90
90
60
ENDCHAR
STARTCHAR sevensuperior
ENCODING 8311
SWIDTH 359 0
DWIDTH 6 0
BBX 4 6 1 5
BITMAP
F0
10
20
20
40
40
ENDCHAR
STARTCHAR eightsuperior
ENCODING 8312
SWIDTH 359 0
DWIDTH 6 0
BBX 4 6 1 5
BITMAP
60
90
60
90
90
60
ENDCHAR
STARTCHAR ninesuperior
ENCODING 8313
SWIDTH 359 0
DWIDTH 6 0
BBX 4 6 1 5
BITMAP
60
90
90
70
20
C0
ENDCHAR
STARTCHAR zeroinferior
ENCODING 8320
SWIDTH 359 0
DWIDTH 6 0
BBX 4 6 1 0
BITMAP
60
90
90
90
90
60
ENDCHAR
STARTCHAR oneinferior
ENCODING 8321
SWIDTH 359 0
DWIDTH 6 0
BBX 2 6 2 0
BITMAP
40
C0
40
40
40
40
ENDCHAR
STARTCHAR twoinferior
ENCODING 8322
SWIDTH 359 0
DWIDTH 6 0
BBX 4 6 1 0
BITMAP
60
90
10
60
80
F0
ENDCHAR
STARTCHAR threeinferior
ENCODING 8323
SWIDTH 359 0
DWIDTH 6 0
BBX 4 6 1 0
BITMAP
E0
10
60
10
10
E0
ENDCHAR
STARTCHAR fourinferior
ENCODING 8324
SWIDTH 359 0
DWIDTH 6 0
BBX 5 6 0 0
BITMAP
10
30
50
90
F8
10
ENDCHAR
STARTCHAR fiveinferior
ENCODING 8325
SWIDTH 359 0
DWIDTH 6 0
BBX 4 6 1 0
BITMAP
F0
80
E0
10
10
E0
ENDCHAR
STARTCHAR sixinferior
ENCODING 8326
SWIDTH 359 0
DWIDTH 6 0
BBX 4 6 1 0
BITMAP
30
40
E0
90
90
60
ENDCHAR
STARTCHAR seveninferior
ENCODING 8327
SWIDTH 359 0
DWIDTH 6 0
BBX 4 6 1 0
BITMAP
F0
10
20
20
40
40
ENDCHAR
STARTCHAR eightinferior
ENCODING 8328
SWIDTH 359 0
DWIDTH 6 0
BBX 4 6 1 0
BITMAP
60
90
60
90
90
60
ENDCHAR
STARTCHAR nineinferior
ENCODING 8329
SWIDTH 359 0
DWIDTH 6 0
BBX 4 6 1 0
BITMAP
60
90
90
70
20
C0
ENDCHAR
STARTCHAR Euro
ENCODING 8364
SWIDTH 564 0
DWIDTH 9 0
BBX 8 11 1 0
BITMAP
1F
20
40
40
FE
40
FC
40
40
20
1F
ENDCHAR
STARTCHAR uni20AE
ENCODING 8366
SWIDTH 564 0
DWIDTH 11 0
BBX 9 11 1 0
BITMAP
FF80
0800
0800
0A00
0C00
3800
0A00
0C00
3800
0800
0800
ENDCHAR
STARTCHAR uni20B4
ENCODING 8372
SWIDTH 564 0
DWIDTH 9 0
BBX 7 11 1 0
BITMAP
78
04
04
FE
08
30
FE
40
40
40
3E
ENDCHAR
STARTCHAR uni20B9
ENCODING 8377
SWIDTH 564 0
DWIDTH 9 0
BBX 8 11 1 0
BITMAP
FF
08
04
FE
04
08
F0
40
20
10
08
ENDCHAR
STARTCHAR afii61289
ENCODING 8467
SWIDTH 450 0
DWIDTH 7 0
BBX 6 12 0 0
BITMAP
18
24
24
24
24
28
30
20
60
A0
20
1C
ENDCHAR
STARTCHAR afii61352
ENCODING 8470
SWIDTH 1130 0
DWIDTH 18 0
BBX 16 11 1 0
BITMAP
808E
C091
A091
9091
9091
888E
8480
8280
829F
8180
8080
ENDCHAR
STARTCHAR trademark
ENCODING 8482
SWIDTH 759 0
DWIDTH 12 0
BBX 10 5 0 6
BITMAP
FC40
26C0
26C0
2540
2440
ENDCHAR
STARTCHAR uni2126
ENCODING 8486
SWIDTH 784 0
DWIDTH 13 0
BBX 11 11 1 0
BITMAP
1F00
2080
4040
8020
8020
8020
8020
4040
4040
2080
F1E0
ENDCHAR
STARTCHAR estimated
ENCODING 8494
SWIDTH 932 0
DWIDTH 15 0
BBX 13 12 1 0
BITMAP
1FC0
3020
4010
4018
C018
FFF8
C000
C000
4000
4030
3060
0F80
ENDCHAR
STARTCHAR onethird
ENCODING 8531
SWIDTH 874 0
DWIDTH 14 0
BBX 11 11 2 0
BITMAP
4100
C100
4200
4400
4400
49E0
1020
10C0
2020
4020
41E0
ENDCHAR
STARTCHAR twothirds
ENCODING 8532
SWIDTH 874 0
DWIDTH 14 0
BBX 12 11 1 0
BITMAP
6080
9080
1100
6100
8200
F4F0
0410
0860
1010
1010
20F0
ENDCHAR
STARTCHAR onefifth
ENCODING 8533
SWIDTH 874 0
DWIDTH 14 0
BBX 11 11 2 0
BITMAP
4100
C100
4200
4400
4400
49E0
1100
11C0
2020
4020
41E0
ENDCHAR
STARTCHAR twofifths
ENCODING 8534
SWIDTH 874 0
DWIDTH 14 0
BBX 12 11 1 0
BITMAP
6040
9080
1100
6100
8200
F2F0
0480
08E0
0810
1010
20F0
ENDCHAR
STARTCHAR threefifths
ENCODING 8535
SWIDTH 874 0
DWIDTH 14 0
BBX 12 11 1 0
BITMAP
E080
1080
6100
1100
1200
E4F0
0480
08E0
1010
1010
20F0
ENDCHAR
STARTCHAR fourfifths
ENCODING 8536
SWIDTH 874 0
DWIDTH 14 0
BBX 13 11 0 0
BITMAP
1020
3040
5080
9080
F900
1278
0240
0470
0408
0808
1078
ENDCHAR
STARTCHAR onesixth
ENCODING 8537
SWIDTH 874 0
DWIDTH 14 0
BBX 11 11 2 0
BITMAP
4100
C100
4200
4200
4400
4860
0880
11E0
2120
2120
40E0
ENDCHAR
STARTCHAR fivesixths
ENCODING 8538
SWIDTH 874 0
DWIDTH 14 0
BBX 12 11 1 0
BITMAP
F040
8080
E100
1100
1200
E430
0440
08F0
0890
1090
2070
ENDCHAR
STARTCHAR oneeighth
ENCODING 8539
SWIDTH 874 0
DWIDTH 14 0
BBX 11 11 2 0
BITMAP
4100
C100
4200
4400
4400
48E0
1120
10E0
2120
4120
40E0
ENDCHAR
STARTCHAR threeeighths
ENCODING 8540
SWIDTH 874 0
DWIDTH 14 0
BBX 12 11 1 0
BITMAP
E080
1080
6100
1100
1200
E470
0490
0870
1090
1090
2070
ENDCHAR
STARTCHAR fiveeighths
ENCODING 8541
SWIDTH 874 0
DWIDTH 14 0
BBX 12 11 1 0
BITMAP
F080
8080
E100
1100
1200
E470
0490
0870
1090
1090
2070
ENDCHAR
STARTCHAR seveneighths
ENCODING 8542
SWIDTH 874 0
DWIDTH 14 0
BBX 12 11 1 0
BITMAP
F080
1100
2100
2200
4400
4470
0890
1070
1090
2090
4070
ENDCHAR
STARTCHAR partialdiff
ENCODING 8706
SWIDTH 585 0
DWIDTH 9 0
BBX 7 12 1 0
BITMAP
78
04
02
02
3E
42
82
82
82
82
84
78
ENDCHAR
STARTCHAR Delta
ENCODING 8710
SWIDTH 651 0
DWIDTH 10 0
BBX 9 11 0 0
BITMAP
0800
1400
1400
1400
2200
2200
4100
4100
4100
8080
FF80
ENDCHAR
STARTCHAR product
ENCODING 8719
SWIDTH 697 0
DWIDTH 11 0
BBX 8 12 1 -1
BITMAP
FF
81
81
81
81
81
81
81
81
81
81
81
ENDCHAR
STARTCHAR summation
ENCODING 8721
SWIDTH 515 0
DWIDTH 8 0
BBX 8 13 0 -2
BITMAP
FF
80
40
20
10
08
04
08
10
20
40
80
FF
ENDCHAR
STARTCHAR minus
ENCODING 8722
SWIDTH 564 0
DWIDTH 9 0
BBX 7 1 1 4
BITMAP
FE
ENDCHAR
STARTCHAR uni2215
ENCODING 8725
SWIDTH 148 0
DWIDTH 2 0
BBX 8 11 -3 0
BITMAP
01
02
04
04
08
10
10
20
20
40
80
ENDCHAR
STARTCHAR uni2219
ENCODING 8729
SWIDTH 246 0
DWIDTH 4 0
BBX 1 2 1 4
BITMAP
80
80
ENDCHAR
STARTCHAR radical
ENCODING 8730
SWIDTH 564 0
DWIDTH 9 0
BBX 9 13 0 0
BITMAP
0080
0080
0100
0100
0100
0200
6200
A200
1400
1400
1400
0800
0800
ENDCHAR
STARTCHAR infinity
ENCODING 8734
SWIDTH 588 0
DWIDTH 9 0
BBX 9 5 0 2
BITMAP
7700
9C80
8880
9C80
7700
ENDCHAR
STARTCHAR integral
ENCODING 8747
SWIDTH 369 0
DWIDTH 6 0
BBX 6 15 0 -3
BITMAP
1C
20
20
20
20
20
20
20
20
20
20
20
20
20
C0
ENDCHAR
STARTCHAR approxequal
ENCODING 8776
SWIDTH 564 0
DWIDTH 9 0
BBX 7 6 1 2
BITMAP
72
8C
00
00
72
8C
ENDCHAR
STARTCHAR notequal
ENCODING 8800
SWIDTH 564 0
DWIDTH 9 0
BBX 7 8 1 1
BITMAP
04
08
FE
10
10
FE
20
40
ENDCHAR
STARTCHAR lessequal
ENCODING 8804
SWIDTH 564 0
DWIDTH 9 0
BBX 7 9 1 0
BITMAP
02
0C
30
C0
30
0C
02
00
FE
ENDCHAR
STARTCHAR greaterequal
ENCODING 8805
SWIDTH 564 0
DWIDTH 9 0
BBX 8 9 1 0
BITMAP
80
70
0C
03
0C
70
80
00
FE
ENDCHAR
STARTCHAR lozenge
ENCODING 9674
SWIDTH 552 0
DWIDTH 9 0
BBX 7 11 0 0
BITMAP
10
28
28
44
44
82
44
44
28
28
10
ENDCHAR
STARTCHAR uniE0FF
ENCODING 57599
SWIDTH 782 0
DWIDTH 13 0
BBX 12 11 0 0
BITMAP
0F80
3FC0
7960
76F0
6F70
DFF0
6F70
76F0
7960
3FC0
0F80
ENDCHAR
STARTCHAR uniEFFD
ENCODING 61437
SWIDTH 1682 0
DWIDTH 27 0
BBX 25 6 1 0
BITMAP
6039E300
90242480
9038C480
90242480
92242480
6239E300
ENDCHAR
STARTCHAR uniF000
ENCODING 61440
SWIDTH 977 0
DWIDTH 16 0
BBX 9 11 6 0
BITMAP
0F00
9000
9000
9000
9000
0F00
9080
9080
9080
9080
0F00
ENDCHAR
STARTCHAR fi
ENCODING 61441
SWIDTH 643 0
DWIDTH 10 0
BBX 8 12 1 0
BITMAP
79
81
80
80
F9
81
81
81
81
81
81
81
ENDCHAR
STARTCHAR fl
ENCODING 61442
SWIDTH 663 0
DWIDTH 11 0
BBX 10 12 1 0
BITMAP
7900
8100
8100
8100
F900
8100
8100
8100
8100
8100
8100
80C0
ENDCHAR
STARTCHAR uniF0FF
ENCODING 61695
SWIDTH 451 0
DWIDTH 7 0
BBX 7 7 0 5
BITMAP
38
6C
DE
BE
DE
6C
38
ENDCHAR
STARTCHAR ubuntu
ENCODING 61952
SWIDTH 3511 0
DWIDTH 56 0
BBX 54 12 0 0
BITMAP
00400000000070
004000002000D8
004000002001AC
004000002001FC
847C213E3C85AC
844221212084D8
84412121208470
84412121208400
84412121208400
84412121208400
84422121208400
7C7C1F211C7C00
ENDCHAR
STARTCHAR oneseventh
ENCODING 62726
SWIDTH 874 0
DWIDTH 14 0
BBX 11 11 2 0
BITMAP
4100
C200
4200
4400
4800
49E0
1020
1040
2040
4080
4080
ENDCHAR
STARTCHAR twosevenths
ENCODING 62727
SWIDTH 874 0
DWIDTH 14 0
BBX 12 11 1 0
BITMAP
6080
9080
1100
6100
8200
F4F0
0410
0820
1020
1040
2040
ENDCHAR
STARTCHAR threesevenths
ENCODING 62728
SWIDTH 874 0
DWIDTH 14 0
BBX 12 11 1 0
BITMAP
E080
1080
6100
1200
1200
E4F0
0410
0820
1020
1040
2040
ENDCHAR
STARTCHAR foursevenths
ENCODING 62729
SWIDTH 874 0
DWIDTH 14 0
BBX 13 11 0 0
BITMAP
1040
3040
5080
9100
F900
1278
0208
0410
0810
0820
1020
ENDCHAR
STARTCHAR fivesevenths
ENCODING 62730
SWIDTH 874 0
DWIDTH 14 0
BBX 12 11 1 0
BITMAP
F080
8080
E100
1200
1200
E4F0
0410
0820
1020
1040
2040
ENDCHAR
STARTCHAR sixsevenths
ENCODING 62731
SWIDTH 874 0
DWIDTH 14 0
BBX 12 11 1 0
BITMAP
3080
4080
E100
9200
9200
64F0
0410
0820
1020
1040
2040
ENDCHAR
STARTCHAR oneninth
ENCODING 62732
SWIDTH 874 0
DWIDTH 14 0
BBX 11 11 2 0
BITMAP
4100
C100
4200
4400
4400
48E0
1120
1120
20E0
4060
41C0
ENDCHAR
STARTCHAR twoninths
ENCODING 62733
SWIDTH 874 0
DWIDTH 14 0
BBX 12 11 1 0
BITMAP
6040
9080
1100
6100
8200
F470
0490
0890
0870
1030
20E0
ENDCHAR
STARTCHAR fourninths
ENCODING 62734
SWIDTH 874 0
DWIDTH 14 0
BBX 13 11 0 0
BITMAP
1020
3040
5080
9080
F900
1238
0248
0448
0438
0818
1070
ENDCHAR
STARTCHAR fiveninths
ENCODING 62735
SWIDTH 874 0
DWIDTH 14 0
BBX 12 11 1 0
BITMAP
F080
8080
E100
1100
1200
E470
0490
0890
1070
1030
20E0
ENDCHAR
STARTCHAR sevenninths
ENCODING 62736
SWIDTH 874 0
DWIDTH 14 0
BBX 12 11 1 0
BITMAP
F080
1100
2100
2200
4400
4470
0890
1090
1070
2030
40E0
ENDCHAR
STARTCHAR eightninths
ENCODING 62737
SWIDTH 874 0
DWIDTH 14 0
BBX 12 11 1 0
BITMAP
6080
9080
6100
9100
9200
6470
0490
0890
1070
1030
20E0
ENDCHAR
STARTCHAR zero.alt
ENCODING 63488
SWIDTH 564 0
DWIDTH 9 0
BBX 7 11 1 0
BITMAP
38
44
82
82
82
82
82
82
82
44
38
ENDCHAR
STARTCHAR one.alt
ENCODING 63489
SWIDTH 373 0
DWIDTH 6 0
BBX 4 11 0 0
BITMAP
10
30
50
90
10
10
10
10
10
10
10
ENDCHAR
STARTCHAR two.alt
ENCODING 63490
SWIDTH 495 0
DWIDTH 8 0
BBX 7 11 1 0
BITMAP
30
CC
84
04
04
18
10
20
40
80
FE
ENDCHAR
STARTCHAR three.alt
ENCODING 63491
SWIDTH 504 0
DWIDTH 8 0
BBX 6 11 1 0
BITMAP
F8
04
04
04
0C
38
0C
04
04
0C
F8
ENDCHAR
STARTCHAR four.alt
ENCODING 63492
SWIDTH 533 0
DWIDTH 9 0
BBX 7 11 1 0
BITMAP
0C
1C
14
24
44
44
84
FE
04
04
04
ENDCHAR
STARTCHAR five.alt
ENCODING 63493
SWIDTH 496 0
DWIDTH 8 0
BBX 6 11 1 0
BITMAP
FC
80
80
80
F0
0C
04
04
04
0C
F0
ENDCHAR
STARTCHAR six.alt
ENCODING 63494
SWIDTH 546 0
DWIDTH 9 0
BBX 7 11 1 0
BITMAP
1C
20
40
80
F8
84
82
82
86
44
78
ENDCHAR
STARTCHAR seven.alt
ENCODING 63495
SWIDTH 471 0
DWIDTH 8 0
BBX 7 11 0 0
BITMAP
FE
02
04
04
08
08
10
10
10
20
20
ENDCHAR
STARTCHAR eight.alt
ENCODING 63496
SWIDTH 550 0
DWIDTH 9 0
BBX 7 11 1 0
BITMAP
38
44
82
82
44
38
44
82
82
C4
78
ENDCHAR
STARTCHAR nine.alt
ENCODING 63497
SWIDTH 546 0
DWIDTH 9 0
BBX 7 11 1 0
BITMAP
38
44
82
82
82
42
3E
04
04
08
70
ENDCHAR
STARTCHAR zero.sups
ENCODING 63498
SWIDTH 359 0
DWIDTH 6 0
BBX 4 6 1 7
BITMAP
60
90
90
90
90
60
ENDCHAR
STARTCHAR one.sups
ENCODING 63499
SWIDTH 359 0
DWIDTH 6 0
BBX 2 6 2 7
BITMAP
40
C0
40
40
40
40
ENDCHAR
STARTCHAR two.sups
ENCODING 63500
SWIDTH 359 0
DWIDTH 6 0
BBX 4 6 1 7
BITMAP
60
90
10
60
80
F0
ENDCHAR
STARTCHAR three.sups
ENCODING 63501
SWIDTH 359 0
DWIDTH 6 0
BBX 4 6 1 7
BITMAP
E0
10
60
10
10
E0
ENDCHAR
STARTCHAR four.sups
ENCODING 63502
SWIDTH 359 0
DWIDTH 6 0
BBX 5 6 0 7
BITMAP
10
30
50
90
F8
10
ENDCHAR
STARTCHAR five.sups
ENCODING 63503
SWIDTH 359 0
DWIDTH 6 0
BBX 4 6 1 7
BITMAP
F0
80
E0
10
10
E0
ENDCHAR
STARTCHAR six.sups
ENCODING 63504
SWIDTH 359 0
DWIDTH 6 0
BBX 4 6 1 7
BITMAP
30
40
E0
90
90
60
ENDCHAR
STARTCHAR seven.sups
ENCODING 63505
SWIDTH 359 0
DWIDTH 6 0
BBX 4 6 1 7
BITMAP
F0
10
20
20
40
40
ENDCHAR
STARTCHAR eight.sups
ENCODING 63506
SWIDTH 359 0
DWIDTH 6 0
BBX 4 6 1 7
BITMAP
60
90
60
90
90
60
ENDCHAR
STARTCHAR nine.sups
ENCODING 63507
SWIDTH 359 0
DWIDTH 6 0
BBX 4 6 1 7
BITMAP
60
90
90
70
20
C0
ENDCHAR
STARTCHAR zero.sinf
ENCODING 63508
SWIDTH 359 0
DWIDTH 6 0
BBX 4 6 1 -2
BITMAP
60
90
90
90
90
60
ENDCHAR
STARTCHAR one.sinf
ENCODING 63509
SWIDTH 359 0
DWIDTH 6 0
BBX 2 6 2 -2
BITMAP
40
C0
40
40
40
40
ENDCHAR
STARTCHAR two.sinf
ENCODING 63510
SWIDTH 359 0
DWIDTH 6 0
BBX 4 6 1 -2
BITMAP
60
90
10
60
80
F0
ENDCHAR
STARTCHAR three.sinf
ENCODING 63511
SWIDTH 359 0
DWIDTH 6 0
BBX 4 6 1 -2
BITMAP
E0
10
60
10
10
E0
ENDCHAR
STARTCHAR four.sinf
ENCODING 63512
SWIDTH 359 0
DWIDTH 6 0
BBX 5 6 0 -2
BITMAP
10
30
50
90
F8
10
ENDCHAR
STARTCHAR five.sinf
ENCODING 63513
SWIDTH 359 0
DWIDTH 6 0
BBX 4 6 1 -2
BITMAP
F0
80
E0
10
10
E0
ENDCHAR
STARTCHAR six.sinf
ENCODING 63514
SWIDTH 359 0
DWIDTH 6 0
BBX 4 6 1 -2
BITMAP
30
40
E0
90
90
60
ENDCHAR
STARTCHAR seven.sinf
ENCODING 63515
SWIDTH 359 0
DWIDTH 6 0
BBX 4 6 1 -2
BITMAP
F0
10
20
20
40
40
ENDCHAR
STARTCHAR eight.sinf
ENCODING 63516
SWIDTH 359 0
DWIDTH 6 0
BBX 4 6 1 -2
BITMAP
60
90
60
90
90
60
ENDCHAR
STARTCHAR nine.sinf
ENCODING 63517
SWIDTH 359 0
DWIDTH 6 0
BBX 4 6 1 -2
BITMAP
60
90
90
70
20
C0
ENDCHAR
STARTCHAR f_f
ENCODING 64256
SWIDTH 776 0
DWIDTH 12 0
BBX 11 12 1 0
BITMAP
79E0
8100
8200
8200
FBE0
8200
8200
8200
8200
8200
8200
8200
ENDCHAR
STARTCHAR f_i
ENCODING 64257
SWIDTH 643 0
DWIDTH 10 0
BBX 8 12 1 0
BITMAP
79
81
80
80
F9
81
81
81
81
81
81
81
ENDCHAR
STARTCHAR f_l
ENCODING 64258
SWIDTH 663 0
DWIDTH 11 0
BBX 10 12 1 0
BITMAP
7900
8100
8100
8100
F900
8100
8100
8100
8100
8100
8100
80C0
ENDCHAR
STARTCHAR f_f_i
ENCODING 64259
SWIDTH 1033 0
DWIDTH 17 0
BBX 14 12 1 0
BITMAP
79E4
8104
8200
8200
FBE4
8204
8204
8204
8204
8204
8204
8204
ENDCHAR
STARTCHAR f_f_l
ENCODING 64260
SWIDTH 1053 0
DWIDTH 17 0
BBX 16 12 1 0
BITMAP
79E4
8104
8204
8204
FBE4
8204
8204
8204
8204
8204
8204
8203
ENDCHAR
STARTCHAR .notdef
ENCODING -1
SWIDTH 500 0
DWIDTH 8 0
BBX 6 12 1 0
BITMAP
FC
84
84
84
84
84
84
84
84
84
84
FC
ENDCHAR
STARTCHAR i.locl
ENCODING -1
SWIDTH 253 0
DWIDTH 3 0
BBX 1 12 1 0
BITMAP
80
80
00
00
80
80
80
80
80
80
80
80
ENDCHAR
STARTCHAR kgreenlandic.case
ENCODING -1
SWIDTH 744 0
DWIDTH 12 0
BBX 12 12 1 0
BITMAP
0010
8120
8220
8C20
9000
A000
C000
B000
8800
8600
8100
8080
ENDCHAR
STARTCHAR napostrophe.case
ENCODING -1
SWIDTH 840 0
DWIDTH 13 0
BBX 13 12 -1 0
BITMAP
4000
4808
CC08
0A08
0B08
0908
0888
0848
0848
0828
0818
0818
ENDCHAR
STARTCHAR caron.alt
ENCODING -1
SWIDTH 376 0
DWIDTH 6 0
BBX 1 4 2 8
BITMAP
80
80
80
80
ENDCHAR
STARTCHAR commaaccent
ENCODING -1
SWIDTH 249 0
DWIDTH 4 0
BBX 2 2 0 -3
BITMAP
40
80
ENDCHAR
STARTCHAR revcommaaccent
ENCODING -1
SWIDTH 249 0
DWIDTH 4 0
BBX 2 3 1 10
BITMAP
40
80
80
ENDCHAR
STARTCHAR caron.alt.short
ENCODING -1
SWIDTH 376 0
DWIDTH 6 0
BBX 1 3 2 10
BITMAP
80
80
80
ENDCHAR
STARTCHAR Parenleft
ENCODING -1
SWIDTH 324 0
DWIDTH 5 0
BBX 4 16 1 -2
BITMAP
10
20
40
40
40
80
80
80
80
80
80
40
40
40
20
10
ENDCHAR
STARTCHAR Parenright
ENCODING -1
SWIDTH 324 0
DWIDTH 5 0
BBX 4 16 0 -2
BITMAP
80
40
20
20
20
10
10
10
10
10
10
20
20
20
40
80
ENDCHAR
STARTCHAR Hyphen
ENCODING -1
SWIDTH 299 0
DWIDTH 6 0
BBX 4 1 1 5
BITMAP
F0
ENDCHAR
STARTCHAR Slash
ENCODING -1
SWIDTH 384 0
DWIDTH 6 0
BBX 7 16 0 -2
BITMAP
02
04
04
04
08
08
08
10
10
20
20
20
40
40
40
80
ENDCHAR
STARTCHAR At
ENCODING -1
SWIDTH 950 0
DWIDTH 15 0
BBX 13 13 1 -1
BITMAP
0F80
3060
4010
47D0
8848
9048
9048
9048
8848
47B0
4000
3000
0FC0
ENDCHAR
STARTCHAR Bracketleft
ENCODING -1
SWIDTH 329 0
DWIDTH 5 0
BBX 3 16 2 -2
BITMAP
E0
80
80
80
80
80
80
80
80
80
80
80
80
80
80
E0
ENDCHAR
STARTCHAR Backslash
ENCODING -1
SWIDTH 384 0
DWIDTH 6 0
BBX 7 16 0 -2
BITMAP
80
40
40
40
20
20
20
10
10
08
08
08
04
04
04
02
ENDCHAR
STARTCHAR Bracketright
ENCODING -1
SWIDTH 329 0
DWIDTH 5 0
BBX 3 16 0 -2
BITMAP
E0
20
20
20
20
20
20
20
20
20
20
20
20
20
20
E0
ENDCHAR
STARTCHAR Braceleft
ENCODING -1
SWIDTH 333 0
DWIDTH 5 0
BBX 5 16 0 -2
BITMAP
18
20
20
20
20
20
20
C0
20
20
20
20
20
20
20
18
ENDCHAR
STARTCHAR Braceright
ENCODING -1
SWIDTH 333 0
DWIDTH 5 0
BBX 5 16 0 -2
BITMAP
C0
20
20
20
20
20
20
18
20
20
20
20
20
20
20
C0
ENDCHAR
STARTCHAR Guilsinglleft
ENCODING -1
SWIDTH 291 0
DWIDTH 5 0
BBX 4 7 0 2
BITMAP
10
20
40
80
40
20
10
ENDCHAR
STARTCHAR Bullet
ENCODING -1
SWIDTH 360 0
DWIDTH 6 0
BBX 4 4 1 4
BITMAP
60
F0
F0
60
ENDCHAR
STARTCHAR Endash
ENCODING -1
SWIDTH 496 0
DWIDTH 8 0
BBX 8 1 0 5
BITMAP
FF
ENDCHAR
STARTCHAR Emdash
ENCODING -1
SWIDTH 996 0
DWIDTH 16 0
BBX 16 1 0 5
BITMAP
FFFF
ENDCHAR
STARTCHAR Guilsinglright
ENCODING -1
SWIDTH 291 0
DWIDTH 5 0
BBX 4 7 0 2
BITMAP
80
40
20
10
20
40
80
ENDCHAR
STARTCHAR Exclamdown
ENCODING -1
SWIDTH 276 0
DWIDTH 4 0
BBX 1 11 1 0
BITMAP
80
80
00
00
80
80
80
80
80
80
80
ENDCHAR
STARTCHAR Guillemotleft
ENCODING -1
SWIDTH 499 0
DWIDTH 8 0
BBX 7 7 0 2
BITMAP
12
24
48
90
48
24
12
ENDCHAR
STARTCHAR Guillemotright
ENCODING -1
SWIDTH 499 0
DWIDTH 8 0
BBX 7 7 0 2
BITMAP
98
4C
24
12
24
4C
98
ENDCHAR
STARTCHAR Questiondown
ENCODING -1
SWIDTH 404 0
DWIDTH 6 0
BBX 5 11 0 0
BITMAP
10
10
00
00
10
10
20
40
80
88
70
ENDCHAR
STARTCHAR double_grave
ENCODING -1
SWIDTH 376 0
DWIDTH 6 0
BBX 6 3 0 9
BITMAP
90
48
24
ENDCHAR
STARTCHAR ring_acute
ENCODING -1
SWIDTH 376 0
DWIDTH 6 0
BBX 4 6 2 9
BITMAP
30
C0
60
90
90
60
ENDCHAR
STARTCHAR dieresis_macron
ENCODING -1
SWIDTH 376 0
DWIDTH 6 0
BBX 4 4 1 9
BITMAP
F0
00
90
90
ENDCHAR
STARTCHAR dot_macron
ENCODING -1
SWIDTH 376 0
DWIDTH 6 0
BBX 3 4 2 9
BITMAP
E0
00
40
40
ENDCHAR
STARTCHAR dieresis_grave
ENCODING -1
SWIDTH 376 0
DWIDTH 6 0
BBX 4 6 1 9
BITMAP
80
40
20
00
90
90
ENDCHAR
STARTCHAR dieresis_acute
ENCODING -1
SWIDTH 376 0
DWIDTH 6 0
BBX 4 6 1 9
BITMAP
10
20
40
00
90
90
ENDCHAR
STARTCHAR dieresis_breve
ENCODING -1
SWIDTH 376 0
DWIDTH 6 0
BBX 5 5 0 9
BITMAP
88
70
00
88
88
ENDCHAR
STARTCHAR tilde_macron
ENCODING -1
SWIDTH 376 0
DWIDTH 6 0
BBX 5 4 1 9
BITMAP
F8
00
68
90
ENDCHAR
STARTCHAR acute.asc
ENCODING -1
SWIDTH 376 0
DWIDTH 6 0
BBX 3 2 1 13
BITMAP
60
80
ENDCHAR
STARTCHAR circumflex.asc
ENCODING -1
SWIDTH 376 0
DWIDTH 6 0
BBX 3 2 2 13
BITMAP
40
A0
ENDCHAR
STARTCHAR caron.asc
ENCODING -1
SWIDTH 376 0
DWIDTH 6 0
BBX 3 2 2 13
BITMAP
A0
40
ENDCHAR
STARTCHAR dieresis_grave.cap
ENCODING -1
SWIDTH 376 0
DWIDTH 6 0
BBX 6 4 0 12
BITMAP
40
20
94
84
ENDCHAR
STARTCHAR dieresis_acute.cap
ENCODING -1
SWIDTH 376 0
DWIDTH 6 0
BBX 6 4 0 12
BITMAP
08
10
A4
84
ENDCHAR
STARTCHAR dieresis_breve.cap
ENCODING -1
SWIDTH 376 0
DWIDTH 6 0
BBX 5 5 0 12
BITMAP
88
70
00
88
88
ENDCHAR
STARTCHAR afii10066.locl
ENCODING -1
SWIDTH 588 0
DWIDTH 9 0
BBX 7 12 1 0
BITMAP
3C
40
40
20
38
44
82
82
82
82
44
38
ENDCHAR
STARTCHAR tenge
ENCODING -1
SWIDTH 564 0
DWIDTH 9 0
BBX 7 11 1 0
BITMAP
FE
00
00
FE
10
10
10
10
10
10
10
ENDCHAR
STARTCHAR rouble
ENCODING -1
SWIDTH 564 0
DWIDTH 9 0
BBX 8 11 0 0
BITMAP
3E
21
21
21
21
FE
20
20
FE
20
20
ENDCHAR
STARTCHAR kratka
ENCODING -1
SWIDTH 376 0
DWIDTH 6 0
BBX 5 2 1 10
BITMAP
88
70
ENDCHAR
STARTCHAR tonos.cap
ENCODING -1
SWIDTH 376 0
DWIDTH 6 0
BBX 1 3 2 8
BITMAP
80
80
80
ENDCHAR
STARTCHAR uni1F88.alt
ENCODING -1
SWIDTH 663 0
DWIDTH 11 0
BBX 11 14 0 -3
BITMAP
4400
4A00
8A00
1100
1100
2080
2080
3F80
4040
4040
8020
0000
0800
0400
ENDCHAR
STARTCHAR uni1F89.alt
ENCODING -1
SWIDTH 663 0
DWIDTH 11 0
BBX 11 14 0 -3
BITMAP
2400
2A00
1A00
1100
1100
2080
2080
3F80
4040
4040
8020
0000
0800
0400
ENDCHAR
STARTCHAR uni1F8A.alt
ENCODING -1
SWIDTH 781 0
DWIDTH 13 0
BBX 14 14 -1 -3
BITMAP
5080
4940
8540
0220
0220
0420
0410
0FF0
0808
0808
1004
0000
0100
0080
ENDCHAR
STARTCHAR uni1F8B.alt
ENCODING -1
SWIDTH 766 0
DWIDTH 12 0
BBX 12 14 0 -3
BITMAP
A300
9300
4C80
0480
0440
0840
0820
1FE0
1010
2010
2010
0000
0200
0300
ENDCHAR
STARTCHAR uni1F8C.alt
ENCODING -1
SWIDTH 725 0
DWIDTH 12 0
BBX 13 14 -1 -3
BITMAP
4900
4A80
9280
0440
0440
0820
0820
0FE0
1010
1010
2008
0000
0200
0100
ENDCHAR
STARTCHAR uni1F8D.alt
ENCODING -1
SWIDTH 752 0
DWIDTH 12 0
BBX 12 14 0 -3
BITMAP
8700
8B00
5C80
0480
0880
0840
1040
1FE0
1020
2010
2010
0000
0200
0300
ENDCHAR
STARTCHAR uni1F8E.alt
ENCODING -1
SWIDTH 663 0
DWIDTH 11 0
BBX 13 16 -2 -3
BITMAP
7800
C800
0100
2280
2280
6440
0440
0820
0820
0FE0
1010
1010
2008
0000
0200
0100
ENDCHAR
STARTCHAR uni1F8F.alt
ENCODING -1
SWIDTH 673 0
DWIDTH 11 0
BBX 12 16 -1 -3
BITMAP
7800
C800
0200
2500
2500
1480
0880
0840
1040
1FE0
2020
2020
4010
0000
0400
0200
ENDCHAR
STARTCHAR uni1F98.alt
ENCODING -1
SWIDTH 768 0
DWIDTH 12 0
BBX 13 14 -2 -3
BITMAP
4808
4808
C808
0808
0808
0FF8
0808
0808
0808
0808
0808
0000
0080
0080
ENDCHAR
STARTCHAR uni1F99.alt
ENCODING -1
SWIDTH 768 0
DWIDTH 12 0
BBX 10 14 1 -3
BITMAP
C040
C040
4040
4040
4040
7FC0
4040
4040
4040
4040
4040
0000
0400
0400
ENDCHAR
STARTCHAR uni1F9A.alt
ENCODING -1
SWIDTH 958 0
DWIDTH 15 0
BBX 15 14 -1 -3
BITMAP
5202
4A02
8602
0202
0202
03FE
0202
0202
0202
0202
0202
0000
0020
0030
ENDCHAR
STARTCHAR uni1F9B.alt
ENCODING -1
SWIDTH 943 0
DWIDTH 15 0
BBX 14 14 0 -3
BITMAP
A404
9404
4C04
0404
0404
07FC
0404
0404
0404
0404
0404
0000
0080
0040
ENDCHAR
STARTCHAR uni1F9C.alt
ENCODING -1
SWIDTH 936 0
DWIDTH 15 0
BBX 15 14 -1 -3
BITMAP
4A02
4A02
9202
0202
0202
03FE
0202
0202
0202
0202
0202
0000
0040
0020
ENDCHAR
STARTCHAR uni1F9D.alt
ENCODING -1
SWIDTH 963 0
DWIDTH 15 0
BBX 14 14 0 -3
BITMAP
8404
8C04
5C04
0404
0404
07FC
0404
0404
0404
0404
0404
0000
0040
0060
ENDCHAR
STARTCHAR uni1F9E.alt
ENCODING -1
SWIDTH 881 0
DWIDTH 14 0
BBX 15 16 -2 -3
BITMAP
7800
C800
0202
2202
2202
6202
0202
03FE
0202
0202
0202
0202
0202
0000
0040
0020
ENDCHAR
STARTCHAR uni1F9F.alt
ENCODING -1
SWIDTH 881 0
DWIDTH 14 0
BBX 14 16 -1 -3
BITMAP
7800
C800
0404
2404
2404
1404
0404
07FC
0404
0404
0404
0404
0404
0000
0080
0040
ENDCHAR
STARTCHAR uni1FA8.alt
ENCODING -1
SWIDTH 791 0
DWIDTH 13 0
BBX 14 14 -2 -3
BITMAP
43E0
4418
C808
1004
1004
1004
1004
0804
0808
0410
1E3C
0000
0100
0080
ENDCHAR
STARTCHAR uni1FA9.alt
ENCODING -1
SWIDTH 826 0
DWIDTH 13 0
BBX 12 14 1 -3
BITMAP
8F80
B040
6020
4020
4010
4010
4010
4020
2020
1040
78F0
0000
0400
0600
ENDCHAR
STARTCHAR uni1FAA.alt
ENCODING -1
SWIDTH 1016 0
DWIDTH 16 0
BBX 17 14 -1 -3
BITMAP
507C00
498200
870100
020100
020080
020080
020080
020100
010100
008200
03C780
000000
002000
001000
ENDCHAR
STARTCHAR uni1FAB.alt
ENCODING -1
SWIDTH 1001 0
DWIDTH 16 0
BBX 15 14 0 -3
BITMAP
A1F0
930C
4C02
0402
0402
0802
0402
0402
0204
0308
0F1E
0000
0040
0060
ENDCHAR
STARTCHAR uni1FAC.alt
ENCODING -1
SWIDTH 943 0
DWIDTH 15 0
BBX 16 14 -1 -3
BITMAP
48F8
4B0C
9402
0402
0402
0401
0402
0402
0204
010C
078F
0000
0040
0060
ENDCHAR
STARTCHAR uni1FAD.alt
ENCODING -1
SWIDTH 970 0
DWIDTH 16 0
BBX 15 14 0 -3
BITMAP
85F0
8E08
5C04
0802
0802
0802
0802
0804
0404
0208
0F1E
0000
0080
0040
ENDCHAR
STARTCHAR uni1FAE.alt
ENCODING -1
SWIDTH 869 0
DWIDTH 14 0
BBX 15 16 -2 -3
BITMAP
7800
C800
01F0
220C
2406
6402
0802
0802
0C02
0402
0404
0208
0F1E
0000
0080
0040
ENDCHAR
STARTCHAR uni1FAF.alt
ENCODING -1
SWIDTH 898 0
DWIDTH 14 0
BBX 15 16 -1 -3
BITMAP
7800
C800
01F0
2608
2404
1802
0802
0802
0802
0804
0404
0208
0F1E
0000
0080
0040
ENDCHAR
STARTCHAR uni1FBC.alt
ENCODING -1
SWIDTH 663 0
DWIDTH 11 0
BBX 11 14 0 -3
BITMAP
0400
0A00
0A00
1100
1100
2080
2080
3F80
4040
4040
8020
0000
0800
0400
ENDCHAR
STARTCHAR uni1FCC.alt
ENCODING -1
SWIDTH 705 0
DWIDTH 11 0
BBX 9 14 1 -3
BITMAP
8080
8080
8080
8080
8080
FF80
8080
8080
8080
8080
8080
0000
1800
0800
ENDCHAR
STARTCHAR uni1FFC.alt
ENCODING -1
SWIDTH 784 0
DWIDTH 13 0
BBX 11 14 1 -3
BITMAP
1F00
2080
4040
8020
8020
8020
8020
4040
4040
2080
F1E0
0000
0800
0400
ENDCHAR
ENDFONT
